ply
format ascii 1.0
comment VCGLIB generated
element vertex 594
property float x
property float y
property float z
element face 1184
property list uchar int vertex_indices
end_header
0.007503 1.486518 0.432588 
0 1.447832 0.439101 
0 1.483417 0.454106 
0.043966 0.02955 0.032867 
0.05098 0.057857 0.062555 
0.03373 0.028143 0.044449 
0.037535 0.050344 0.067733 
-0.058628 1.495561 -0.023213 
-0.060915 1.497939 -0.044251 
0.060353 1.497939 -0.044251 
0.025136 0.047624 0.06914 
0.026143 0.064003 0.086632 
0 0.047624 0.06914 
0.055499 1.149531 0.048648 
0.055499 1.254434 0.056163 
0.048063 1.147199 0.088536 
0.048063 1.253256 0.104543 
0.027749 1.145487 0.117736 
0.027749 1.252396 0.143274 
0 1.144862 0.128424 
0 1.252083 0.152619 
-0.048063 1.253256 0.104543 
-0.053659 1.30013 0.117368 
-0.053143 1.302706 -0.002175 
-0.061112 1.372907 -0.048365 
0.03541 0.160807 0.095176 
0.061201 0.1472 0.064497 
0.035822 0.198238 0.07585 
0.06202 0.188648 0.046078 
0.027749 1.153574 -0.02044 
0 1.1542 -0.031128 
0.027749 1.256476 -0.030905 
0 1.256789 -0.041455 
-0.003198 1.44492 0.425882 
0.003136 1.44492 0.425882 
-0.048063 1.255611 0.007783 
0.048063 1.151868 0.00876 
0.048063 1.255611 0.007783 
-0.027749 1.252396 0.143274 
0.004134 1.728795 -0.018129 
-0.000371 1.728625 -0.019301 
0.030642 1.767155 0.353815 
0.035172 1.762545 0.353799 
0.045003 1.759012 0.297006 
0.060706 1.300779 0.082605 
0.053659 1.30013 0.117368 
0.053143 1.302706 -0.002175 
-0.017785 1.295797 -0.045498 
-0.027749 1.256476 -0.030905 
0.003105 1.777477 0.425843 
-0.003167 1.777477 0.425842 
-0.02627 1.739002 0.018262 
-0.035172 1.570872 0.353887 
-0.017869 1.570095 0.409233 
-0.035172 1.610152 0.353869 
-0.017872 1.610915 0.410551 
-0.035172 1.531588 0.353906 
-0.017865 1.52927 0.406573 
-0.035172 1.649436 0.353851 
-0.035172 1.688715 0.353833 
-0.035172 1.727999 0.353815 
-0.049498 1.464107 0.297063 
-0.035172 1.45774 0.35394 
-0.035172 1.492304 0.353924 
0.06077 1.291496 0.056391 
0.060773 1.302338 0.030732 
-0.049752 1.691687 -0.142903 
0.057169 1.7043 -0.077849 
0.020653 0.008662 0.023856 
0.014991 0.016864 0.037562 
0.022421 0.032947 0.054305 
0.064745 1.737549 0.179147 
0.064745 1.47723 0.179065 
0.064773 1.70511 -0.044303 
0.002112 1.682887 0.45894 
-0.017861 1.48845 0.403912 
0.048063 1.027622 0.075185 
0.055499 1.02966 0.041047 
-3.8e-05 1.66538 0.471015 
-0.02501 1.647154 -0.270637 
-0.012683 1.629118 -0.309394 
-0.025009 1.614596 -0.270636 
-0.012683 1.614596 -0.309391 
-0.040456 1.6146 -0.208912 
0.05741 1.607074 -0.110943 
0.05799 1.590367 -0.106328 
0.053411 1.687137 -0.142904 
0.061551 1.699718 -0.077849 
0.061555 1.506192 -0.077849 
0.057992 1.539123 -0.106302 
-0.002567 1.677436 0.45664 
0.048063 1.031693 0.00691 
0.027749 1.033183 -0.018081 
0 1.033726 -0.027228 
0.027749 1.026131 0.100176 
0 1.025588 0.109323 
-0.051829 1.60988 -0.125727 
-0.055637 1.614467 -0.125119 
-0.05741 1.607074 -0.110943 
-0.01884 1.736394 0.000427 
-0.021084 1.731454 5.5e-05 
-0.009336 1.633377 -0.309395 
-0.021516 1.651557 -0.270637 
-0.060806 1.472787 0.177032 
-0.061041 1.300779 0.082605 
-0.061112 1.302338 0.030732 
0.048063 0.921683 0.065211 
0.055499 0.924086 0.035073 
0.048063 0.926488 0.004935 
0.027749 0.928247 -0.017127 
0.058154 0.075587 -0.005297 
0.054731 0.048593 0.011142 
0.033154 0.05823 -0.035534 
0.030991 0.025801 -0.016458 
0 0.928891 -0.025202 
-0.017884 1.733381 0.403759 
0.035172 1.45774 0.35394 
0.030665 1.453025 0.353942 
-0.03161 1.30295 -0.045969 
-0.04494 1.759022 0.297005 
-0.035172 1.762545 0.353799 
-0.049498 1.754376 0.296998 
-0.01788 1.692561 0.40647 
0.018014 1.295802 -0.045498 
-0.055743 1.46596 0.238938 
-0.059959 1.470625 0.238938 
-0.058628 1.472557 0.179193 
-0.061112 1.372925 0.180561 
-0.036743 1.609968 -0.208912 
0.060358 1.710105 -0.044359 
-0.000562 1.710114 -0.04436 
0.060502 1.472787 0.177032 
0 0.201755 0.086737 
0 0.165781 0.106391 
0 0.051877 -0.046601 
0 0.018497 -0.027182 
-0.052981 1.718141 0.011602 
-0.043327 1.71483 -0.011512 
0.060306 1.742126 0.179159 
0.042584 1.73742 0.146318 
0.030003 1.739959 0.164054 
-0.052981 1.734122 0.123203 
0.034883 0.13992 0.107897 
0 0.146717 0.118617 
0.032243 0.125468 0.115303 
0 0.133348 0.125262 
0.042584 1.71482 -0.01151 
0.060377 1.726118 0.067404 
0.024077 0.09461 0.11384 
0.028803 0.10978 0.117134 
0 0.102481 0.122265 
0 0.117869 0.126407 
0.027749 0.919924 0.087273 
0 0.91928 0.095349 
0.057179 1.501601 -0.077849 
-0.053411 1.687137 -0.142904 
0.049226 0.82712 0.054024 
0.056841 0.829754 0.025867 
-0.064745 1.737549 0.179147 
-0.03373 1.737406 0.040695 
-0.038336 1.754339 0.063273 
-0.002501 1.620939 -0.327117 
0.008622 1.633377 -0.309395 
-0.028686 1.734126 0.018296 
-0.031419 1.747361 0.01559 
0.049226 0.832388 -0.002291 
0.018648 0.082154 0.105526 
0 0.089381 0.113048 
0.028421 0.834317 -0.022904 
0.025616 0.00765 0.008903 
0 0 0 
0.029267 0.013473 -0.005225 
0 0.005681 -0.015273 
0 0.011155 0.03162 
-0.017824 1.290691 0.162734 
0 1.287885 0.162078 
-0.031631 1.297674 0.164371 
0.058335 1.372392 0.183264 
-0.058629 1.372396 0.183258 
0 0.835022 -0.030448 
0 0.00173 0.016383 
0.058087 1.472557 0.179193 
0.028421 0.825192 0.074638 
0 0.824486 0.082182 
0.058099 1.495561 -0.023213 
-0.058629 1.373128 -0.050642 
0.058346 1.373128 -0.050642 
0 1.292894 -0.045312 
0.037533 0.073705 0.092109 
0.048063 0.726786 0.03961 
0.055499 0.729661 0.012839 
0.048063 0.732537 -0.013933 
0.027749 0.734642 -0.03353 
0 0.735412 -0.040704 
0.027749 0.724681 0.059208 
0 0.72391 0.066381 
0 0.091527 -0.061029 
0 0.149255 -0.075795 
0.035065 0.096501 -0.049814 
0.035822 0.152772 -0.064907 
0.031816 1.302904 -0.045966 
0.048063 0.617539 0.024639 
0.055499 0.620446 -0.002198 
-0.023623 1.744624 -0.003111 
0.048063 0.623352 -0.029035 
0 1.741578 -0.023936 
0.060773 1.372907 -0.048365 
0.00583 1.741795 -0.022455 
0.011617 1.729646 -0.012317 
0.027943 1.734126 0.018296 
0.031048 1.747361 0.01559 
0.036182 1.750696 0.038381 
0.036182 1.757982 0.088166 
0.031048 1.761317 0.110956 
0.027749 0.62548 -0.048681 
0 0.626259 -0.055872 
0.027749 0.615411 0.044285 
0 0.614632 0.051477 
0.06088 0.11009 -0.019174 
0.068174 0.099416 0.035807 
0.070452 0.128634 0.022636 
0.031846 1.297637 0.164365 
0.02501 1.647154 -0.270637 
0.012683 1.629118 -0.309394 
0.048063 0.502591 0.012841 
0.055499 0.504303 -0.014889 
0.048063 0.506016 -0.042618 
0.060773 1.372925 0.180553 
0.062045 0.16238 -0.035162 
0.071615 0.175528 0.005461 
0.011617 1.752342 0.14277 
0.014124 1.765949 0.142587 
0.027749 0.507269 -0.062918 
0.004134 1.753193 0.148582 
-0.000371 1.753364 0.149754 
-0.006201 1.766888 0.149001 
0 0.507728 -0.070348 
0.059906 0.122993 0.077234 
0.027749 0.501338 0.033141 
0 0.500879 0.040571 
0.00527 1.613813 -0.327117 
0.00527 1.617309 -0.327117 
-0.002218 1.609963 -0.327117 
0.008255 1.609968 -0.30939 
0.050691 0.394473 0.011274 
0.058004 0.394473 -0.019766 
0.049781 0.394473 -0.050806 
-0.014496 1.765949 0.142587 
-0.021084 1.750535 0.130399 
-0.023623 1.764054 0.129658 
-0.057529 1.721826 0.068032 
-0.049834 1.714107 0.015278 
-0.040726 1.710915 -0.006519 
-0.028884 1.708472 -0.023207 
-0.011431 1.740438 -0.031825 
0 1.740042 -0.034528 
0.01106 1.740438 -0.031825 
0.014379 1.706941 -0.033675 
0.028528 0.394473 -0.073528 
0 0.394473 -0.081845 
0.029475 0.394473 0.033997 
0 0.394473 0.042314 
0.057619 0.114905 0.082949 
0.054468 0.101092 0.090059 
0.060632 0.245264 0.025865 
0.069822 0.237233 -0.011158 
0.05744 0.307021 0.014357 
0.065756 0.30382 -0.019363 
0.05648 0.30054 -0.053136 
0.032351 0.298196 -0.077831 
0 0.297338 -0.08687 
0.033383 0.309287 0.039027 
0 0.310145 0.048066 
0.047384 0.086727 0.093244 
0.022559 1.741726 -0.023034 
0.028141 1.708472 -0.023207 
0.033278 1.743943 -0.007901 
0.039983 1.710915 -0.006519 
0.049091 1.714107 0.015278 
0.04733 1.750507 0.036954 
0.056786 1.721826 0.068032 
0.04733 1.758207 0.089588 
0.049091 1.72955 0.120786 
0.033278 1.764772 0.134443 
0.039983 1.732737 0.142583 
0.022559 1.766989 0.149575 
0.01106 1.768277 0.158366 
-0.015122 1.736712 0.169739 
0.060303 0.229146 -0.048247 
0.064876 0.081605 0.04727 
0.034728 0.223264 -0.075361 
0 0.221111 -0.085285 
0.035081 0.251096 0.052943 
0 0.253248 0.062867 
-0.022931 1.766989 0.149575 
-0.033649 1.764772 0.134443 
-0.042215 1.761773 0.113927 
-0.05557 1.725824 0.095353 
-0.05905 1.730267 0.096287 
-0.05557 1.717829 0.04071 
-0.05905 1.721996 0.038518 
-0.030745 1.712286 -0.029247 
-0.015122 1.706941 -0.033675 
-0.016094 1.71069 -0.040396 
-0.000371 1.706421 -0.037242 
-0.035065 0.096501 -0.049814 
-0.035822 0.152772 -0.064907 
-0.06088 0.11009 -0.019174 
-0.062045 0.16238 -0.035162 
-0.070452 0.128634 0.022636 
-0.071615 0.175528 0.005461 
-0.06202 0.188648 0.046078 
-0.061201 0.1472 0.064497 
-0.035822 0.198238 0.07585 
-0.03541 0.160807 0.095176 
-0.035081 0.251096 0.052943 
-0.060632 0.245264 0.025865 
-0.058154 0.075587 -0.005297 
-0.068174 0.099416 0.035807 
-0.034728 0.223264 -0.075361 
-0.060303 0.229146 -0.048247 
0.015351 1.710685 -0.040395 
0.030003 1.712281 -0.029246 
0.052238 1.718128 0.011604 
0.058307 1.721982 0.03852 
0.054827 1.717829 0.04071 
0.058307 1.730253 0.096289 
0.054827 1.725824 0.095353 
0.052238 1.734108 0.123205 
0.028141 1.73518 0.159271 
0.015351 1.74156 0.175203 
0.014379 1.736712 0.169739 
-0.000553 1.742131 0.179158 
-0.000371 1.737236 0.173305 
-0.069822 0.237233 -0.011158 
-0.033383 0.309287 0.039027 
-0.05744 0.307021 0.014357 
-0.032351 0.298196 -0.077831 
-0.05648 0.30054 -0.053136 
-0.065756 0.30382 -0.019363 
-0.050691 0.394473 0.011274 
-0.029475 0.394473 0.033997 
-0.028528 0.394473 -0.073528 
-0.049781 0.394473 -0.050806 
-0.058004 0.394473 -0.019766 
-0.016094 1.741565 0.175202 
-0.030746 1.739968 0.164053 
-0.028884 1.73518 0.159271 
-0.043327 1.737429 0.146317 
-0.040726 1.732737 0.142583 
-0.049834 1.72955 0.120786 
-0.036553 1.757982 0.088166 
-0.047702 1.758207 0.089588 
-0.049588 1.754357 0.063271 
-0.031419 1.761317 0.110956 
-0.011431 1.768277 0.158366 
0 1.768672 0.16107 
0 1.767104 0.150482 
-0.006201 1.741795 -0.022455 
-0.027749 0.501338 0.033141 
-0.048063 0.502591 0.012841 
-0.027749 0.507269 -0.062918 
-0.048063 0.506016 -0.042618 
-0.055499 0.504303 -0.014889 
-0.048063 0.617539 0.024639 
-0.027749 0.615411 0.044285 
0.051386 0.036566 0.021213 
-0.014496 1.742733 -0.01604 
-0.022931 1.741726 -0.023034 
-0.033649 1.743943 -0.007901 
-0.042215 1.746942 0.012615 
-0.036553 1.750696 0.038381 
-0.047702 1.750507 0.036954 
-0.031235 1.749316 0.08874 
-0.03373 1.744587 0.089759 
-0.035487 1.740994 0.065226 
-0.028686 1.747862 0.112157 
-0.01884 1.755153 0.128628 
-0.012359 1.752342 0.14277 
-0.010472 1.756892 0.140506 
-0.004877 1.753193 0.148582 
-0.000371 1.757798 0.146684 
0.002964 1.757665 0.145786 
-0.027749 0.62548 -0.048681 
-0.048063 0.623352 -0.029035 
-0.055499 0.620446 -0.002198 
-0.048063 0.726786 0.03961 
-0.027749 0.724681 0.059208 
-0.027749 0.734642 -0.03353 
-0.048063 0.732537 -0.013933 
-0.055499 0.729661 0.012839 
0.020341 1.750535 0.130399 
0.027943 1.747862 0.112157 
0.032987 1.744587 0.089759 
0.034744 1.740994 0.065226 
-0.021296 1.609968 -0.270636 
-0.053917 1.590068 -0.110649 
-0.05799 1.590367 -0.106328 
-0.060021 1.511238 -0.090111 
-0.05604 1.507452 -0.092491 
-0.061555 1.506192 -0.077849 
-0.057759 1.501601 -0.077849 
-0.064773 1.70511 -0.044303 
-0.057776 1.7043 -0.077849 
-0.06092 1.710114 -0.04436 
0.035172 1.570872 0.353887 
0.035172 1.531588 0.353906 
0.035172 1.610152 0.353869 
0.035172 1.492304 0.353924 
0.049498 1.464107 0.297063 
0.049498 1.754376 0.296998 
0.035172 1.727999 0.353815 
0.035172 1.688715 0.353833 
0.035172 1.649436 0.353851 
-0.00527 1.617309 -0.327117 
-0.049226 0.82712 0.054024 
-0.028421 0.825192 0.074638 
-0.028421 0.834317 -0.022904 
-0.049226 0.832388 -0.002291 
-0.056841 0.829754 0.025867 
-0.048063 0.921683 0.065211 
-0.027749 0.919924 0.087273 
0.060654 0.068693 0.05558 
-0.027749 0.928247 -0.017127 
-0.048063 0.926488 0.004935 
-0.00527 1.613813 -0.327117 
-0.008969 1.609968 -0.30939 
0.059959 1.470625 0.238938 
0.059959 1.746017 0.238938 
-0.017857 1.452294 0.402151 
-0.055499 0.924086 0.035073 
-0.013499 1.774027 0.401745 
-0.017887 1.769514 0.401954 
-0.007503 1.611302 0.446925 
-0.017876 1.651736 0.409182 
-0.007504 1.449409 0.426606 
-0.007503 1.569709 0.444393 
-0.007503 1.528111 0.439294 
-0.048063 1.027622 0.075185 
-0.027749 1.026131 0.100176 
-0.027749 1.033183 -0.018081 
-0.048063 1.031693 0.00691 
-0.055499 1.02966 0.041047 
-0.048063 1.147199 0.088536 
-0.027749 1.145487 0.117736 
-0.027749 1.153574 -0.02044 
-0.048063 1.151868 0.00876 
-0.055499 1.149531 0.048648 
0.060021 1.511238 -0.090111 
0.055442 1.507452 -0.09249 
0.058449 1.525342 -0.102679 
-0.055499 1.254434 0.056163 
0.053284 1.590068 -0.110649 
0.053285 1.538783 -0.110622 
0.001508 1.609963 -0.327117 
-0.040458 1.668843 -0.208912 
-0.053407 1.6146 -0.142934 
-0.049658 1.609972 -0.142934 
0.025009 1.614596 -0.270636 
0.020582 1.609968 -0.270636 
0.020801 1.651557 -0.270637 
0.053407 1.6146 -0.142934 
-0.054731 0.048593 0.011142 
-0.064876 0.081605 0.04727 
-0.033154 0.05823 -0.035534 
-0.030991 0.025801 -0.016458 
0.055637 1.614467 -0.125119 
0.051173 1.60988 -0.125726 
0.040458 1.668843 -0.208912 
0.036174 1.673324 -0.208912 
0.064773 1.502558 -0.044252 
0.00179 1.620939 -0.327117 
-0.029267 0.013473 -0.005225 
-0.051386 0.036566 0.021213 
-0.043966 0.02955 0.032867 
-0.025616 0.00765 0.008903 
-0.020653 0.008662 0.023856 
-0.03373 0.028143 0.044449 
-0.060654 0.068693 0.05558 
0.007504 1.449409 0.426606 
-0.047384 0.086727 0.093244 
-0.05098 0.057857 0.062555 
-0.037533 0.073705 0.092109 
-0.037535 0.050344 0.067733 
-0.028803 0.10978 0.117134 
-0.024077 0.09461 0.11384 
0.052751 1.604273 -0.114447 
-0.05339 1.604273 -0.114444 
-0.032243 0.125468 0.115303 
-0.034883 0.13992 0.107897 
-0.059906 0.122993 0.077234 
-0.057619 0.114905 0.082949 
-0.014991 0.016864 0.037562 
-0.022421 0.032947 0.054305 
-0.018648 0.082154 0.105526 
0.007502 1.773167 0.426544 
0 1.77819 0.429329 
0.017857 1.452294 0.402151 
0.017887 1.769514 0.401954 
-0.026143 0.064003 0.086632 
-0.025136 0.047624 0.06914 
-0.054468 0.101092 0.090059 
-0.007503 1.486518 0.432588 
0.012683 1.614596 -0.309391 
0.025527 1.739002 0.018262 
0.032226 1.745774 0.064527 
0.018097 1.736394 0.000427 
0.002964 1.733883 -0.016732 
-0.000371 1.733749 -0.01763 
-0.003707 1.733883 -0.016732 
-0.010472 1.734655 -0.011452 
-0.031235 1.742232 0.040314 
-0.032969 1.745774 0.064527 
-0.02627 1.752545 0.110792 
-0.003707 1.757665 0.145786 
0.009729 1.756892 0.140506 
0.018097 1.755153 0.128628 
0.025527 1.752545 0.110792 
0.030492 1.749316 0.08874 
0.036029 1.609968 -0.208912 
-0.036888 1.673324 -0.208912 
0.049061 1.691687 -0.142902 
0 1.611868 -0.337016 
0.060502 1.495313 -0.021039 
0.060308 1.47257 0.179061 
-0.061551 1.699718 -0.077849 
0 1.775168 0.43893 
-0.007502 1.736091 0.432536 
-0.007502 1.773167 0.426544 
0 1.696903 0.465564 
0 1.611509 0.473959 
0 1.568812 0.472055 
0.037965 1.754339 0.063273 
0.049216 1.754357 0.063271 
0 1.444534 0.429506 
0 1.526114 0.465656 
0.00583 1.766888 0.149001 
0.032987 1.737406 0.040695 
0.030492 1.742232 0.040314 
-0.057992 1.539123 -0.106302 
-0.058449 1.525342 -0.102679 
0.020341 1.731454 5.5e-05 
0.009729 1.734655 -0.011452 
-0.064773 1.502558 -0.044252 
0.040456 1.6146 -0.208912 
0.017884 1.733381 0.403759 
-0.060912 1.726122 0.067403 
-0.060859 1.742131 0.179158 
-0.060862 1.47257 0.179061 
-0.060806 1.495313 -0.021039 
-0.064745 1.47723 0.179065 
0.01788 1.692561 0.40647 
0.017876 1.651736 0.409182 
0.017872 1.610915 0.410551 
0.017869 1.570095 0.409233 
0.017865 1.52927 0.406573 
-0.059959 1.746017 0.238938 
-0.055733 1.7507 0.238937 
0.041843 1.761773 0.113927 
0.023251 1.764054 0.129658 
0.017861 1.48845 0.403912 
-0.05391 1.538783 -0.110622 
0.055488 1.750696 0.238938 
0.013396 1.774022 0.401745 
0.013391 1.447629 0.401923 
-0.013491 1.447629 0.401923 
0.014124 1.742733 -0.01604 
-0.044955 1.459419 0.297064 
0.045018 1.459419 0.297064 
-0.030824 1.767159 0.353815 
0.048979 1.609972 -0.142936 
0.053766 1.523424 -0.106588 
-0.054384 1.523424 -0.10659 
-0.030841 1.453025 0.353942 
-0.004877 1.728795 -0.018129 
-0.012359 1.729646 -0.012317 
0.041843 1.746942 0.012615 
0.018062 1.290696 0.162738 
0.023251 1.744624 -0.003111 
0.055498 1.46596 0.238938 
0 1.7396 0.453968 
0.007502 1.736091 0.432536 
0.007503 1.694493 0.43926 
-0.007565 1.694493 0.43926 
-0.007565 1.6529 0.44438 
-0.001538 1.674023 0.462915 
0.007503 1.611302 0.446925 
0 1.654206 0.472009 
0.007503 1.6529 0.44438 
0.007503 1.569709 0.444393 
0.007503 1.528111 0.439294 
0.003781 1.672164 0.453232 
-3.8e-05 1.691415 0.467087 
-0.061111 1.291496 0.056326 
3 0 2 1 
3 3 4 5 
3 4 6 5 
3 10 11 12 
3 13 14 15 
3 14 16 15 
3 15 16 17 
3 16 18 17 
3 17 18 19 
3 18 20 19 
3 25 26 27 
3 26 28 27 
3 29 30 31 
3 30 32 31 
3 36 29 37 
3 29 31 37 
3 13 36 14 
3 36 37 14 
3 41 42 43 
3 16 44 45 
3 47 32 48 
3 52 53 54 
3 53 55 54 
3 56 57 52 
3 57 53 52 
3 58 59 54 
3 59 60 54 
3 61 62 54 
3 62 63 54 
3 63 56 54 
3 56 52 54 
3 68 5 69 
3 5 70 69 
3 71 72 73 
3 56 63 57 
3 63 75 57 
3 15 76 13 
3 76 77 13 
3 79 80 81 
3 80 82 81 
3 81 83 79 
3 86 87 85 
3 87 88 85 
3 36 13 91 
3 13 77 91 
3 29 36 92 
3 36 91 92 
3 92 93 29 
3 93 30 29 
3 94 17 95 
3 17 19 95 
3 99 100 51 
3 17 94 15 
3 94 76 15 
3 76 106 77 
3 106 107 77 
3 91 77 108 
3 77 107 108 
3 92 91 109 
3 91 108 109 
3 110 111 112 
3 111 113 112 
3 109 114 92 
3 114 93 92 
3 47 48 118 
3 119 121 120 
3 59 122 60 
3 122 115 60 
3 123 31 32 
3 129 67 130 
3 27 132 25 
3 132 133 25 
3 112 113 134 
3 113 135 134 
3 139 140 138 
3 142 143 144 
3 143 145 144 
3 148 149 150 
3 149 151 150 
3 152 94 153 
3 94 95 153 
3 149 144 151 
3 144 145 151 
3 94 152 76 
3 152 106 76 
3 154 9 8 
3 106 156 107 
3 156 157 107 
3 163 164 159 
3 108 107 165 
3 107 157 165 
3 166 167 12 
3 109 108 168 
3 108 165 168 
3 169 170 171 
3 170 172 171 
3 12 173 69 
3 174 175 176 
3 177 178 176 
3 12 70 10 
3 168 179 109 
3 179 114 109 
3 68 180 169 
3 180 170 169 
3 180 68 173 
3 68 69 173 
3 166 148 167 
3 148 150 167 
3 182 152 183 
3 152 153 183 
3 152 182 106 
3 182 156 106 
3 148 166 188 
3 166 11 188 
3 156 189 157 
3 189 190 157 
3 157 190 165 
3 190 191 165 
3 165 191 168 
3 191 192 168 
3 168 192 179 
3 192 193 179 
3 194 182 195 
3 182 183 195 
3 196 197 198 
3 197 199 198 
3 182 194 156 
3 194 189 156 
3 37 31 46 
3 31 200 46 
3 189 201 190 
3 201 202 190 
3 203 164 163 
3 190 202 191 
3 202 204 191 
3 46 200 206 
3 5 68 3 
3 68 169 3 
3 191 204 192 
3 204 214 192 
3 192 214 193 
3 214 215 193 
3 216 194 217 
3 194 195 217 
3 110 218 219 
3 218 220 219 
3 16 45 18 
3 45 221 18 
3 194 216 189 
3 216 201 189 
3 201 224 202 
3 224 225 202 
3 202 225 204 
3 225 226 204 
3 45 227 221 
3 218 228 220 
3 228 229 220 
3 204 226 214 
3 226 232 214 
3 214 232 215 
3 232 236 215 
3 10 6 11 
3 6 188 11 
3 26 25 237 
3 25 142 237 
3 25 133 142 
3 133 143 142 
3 238 216 239 
3 216 217 239 
3 198 199 218 
3 199 228 218 
3 216 238 201 
3 238 224 201 
3 224 244 225 
3 244 245 225 
3 198 112 196 
3 112 134 196 
3 225 245 226 
3 245 246 226 
3 248 249 247 
3 256 257 255 
3 226 246 232 
3 246 258 232 
3 232 258 236 
3 258 259 236 
3 238 239 260 
3 239 261 260 
3 229 28 220 
3 28 26 220 
3 224 238 244 
3 238 260 244 
3 142 144 262 
3 144 263 262 
3 28 229 264 
3 229 265 264 
3 244 266 245 
3 266 267 245 
3 245 267 246 
3 267 268 246 
3 246 268 258 
3 268 269 258 
3 258 269 259 
3 269 270 259 
3 271 260 272 
3 260 261 272 
3 188 273 148 
3 273 149 148 
3 260 271 244 
3 271 266 244 
3 274 275 256 
3 275 257 256 
3 274 276 275 
3 276 277 275 
3 288 268 265 
3 268 267 265 
3 219 289 110 
3 289 111 110 
3 26 237 220 
3 237 219 220 
3 268 288 269 
3 288 290 269 
3 5 6 70 
3 6 10 70 
3 269 290 270 
3 290 291 270 
3 264 292 28 
3 292 27 28 
3 271 272 292 
3 272 293 292 
3 292 264 271 
3 264 266 271 
3 273 263 149 
3 263 144 149 
3 265 229 288 
3 229 228 288 
3 288 228 290 
3 228 199 290 
3 302 303 301 
3 302 304 303 
3 196 305 197 
3 305 306 197 
3 305 307 306 
3 307 308 306 
3 307 309 308 
3 309 310 308 
3 311 312 313 
3 312 314 313 
3 313 315 311 
3 315 316 311 
3 132 293 313 
3 293 315 313 
3 290 199 291 
3 199 197 291 
3 312 311 309 
3 311 310 309 
3 317 318 307 
3 318 309 307 
3 12 69 70 
3 197 306 291 
3 306 319 291 
3 306 308 319 
3 308 320 319 
3 332 330 333 
3 330 331 333 
3 308 310 320 
3 310 334 320 
3 315 335 316 
3 335 336 316 
3 293 272 315 
3 272 335 315 
3 265 267 264 
3 267 266 264 
3 291 319 270 
3 319 337 270 
3 319 320 337 
3 320 338 337 
3 320 334 338 
3 334 339 338 
3 336 335 340 
3 335 341 340 
3 335 272 341 
3 272 261 341 
3 270 337 259 
3 337 342 259 
3 337 338 342 
3 338 343 342 
3 338 339 343 
3 339 344 343 
3 332 333 345 
3 346 347 348 
3 347 349 348 
3 340 344 336 
3 344 339 336 
3 341 359 340 
3 359 360 340 
3 261 239 341 
3 239 359 341 
3 259 342 236 
3 342 361 236 
3 342 343 361 
3 343 362 361 
3 343 344 362 
3 344 363 362 
3 344 340 363 
3 340 360 363 
3 360 359 364 
3 359 365 364 
3 359 239 365 
3 239 217 365 
3 171 113 366 
3 113 111 366 
3 171 366 169 
3 366 3 169 
3 6 4 188 
3 4 273 188 
3 370 372 371 
3 374 376 373 
3 378 379 377 
3 378 380 379 
3 236 361 215 
3 361 383 215 
3 361 362 383 
3 362 384 383 
3 362 363 384 
3 363 385 384 
3 363 360 385 
3 360 364 385 
3 364 365 386 
3 365 387 386 
3 365 217 387 
3 217 195 387 
3 237 262 219 
3 262 289 219 
3 218 110 198 
3 110 112 198 
3 215 383 193 
3 383 388 193 
3 383 384 388 
3 384 389 388 
3 384 385 389 
3 385 390 389 
3 385 364 390 
3 364 386 390 
3 398 399 400 
3 399 401 400 
3 402 404 403 
3 405 406 407 
3 406 408 407 
3 409 410 407 
3 411 412 407 
3 412 413 407 
3 386 387 415 
3 387 416 415 
3 387 195 416 
3 195 183 416 
3 166 12 11 
3 193 388 179 
3 388 417 179 
3 388 389 417 
3 389 418 417 
3 389 390 418 
3 390 419 418 
3 390 386 419 
3 386 415 419 
3 415 416 420 
3 416 421 420 
3 416 183 421 
3 183 153 421 
3 262 263 289 
3 263 422 289 
3 417 423 179 
3 423 114 179 
3 418 424 417 
3 424 423 417 
3 427 428 409 
3 428 410 409 
3 63 62 75 
3 62 429 75 
3 428 427 71 
3 427 72 71 
3 419 430 418 
3 430 424 418 
3 436 53 437 
3 53 57 437 
3 419 415 430 
3 415 420 430 
3 420 421 438 
3 421 439 438 
3 421 153 439 
3 153 95 439 
3 423 440 114 
3 440 93 114 
3 424 441 423 
3 441 440 423 
3 430 442 424 
3 442 441 424 
3 430 420 442 
3 420 438 442 
3 438 439 443 
3 439 444 443 
3 439 95 444 
3 95 19 444 
3 440 445 93 
3 445 30 93 
3 441 446 440 
3 446 445 440 
3 442 447 441 
3 447 446 441 
3 442 438 447 
3 438 443 447 
3 448 449 450 
3 447 451 446 
3 451 35 446 
3 446 35 445 
3 35 48 445 
3 445 48 30 
3 48 32 30 
3 263 273 422 
3 273 4 422 
3 3 366 4 
3 366 422 4 
3 289 422 111 
3 422 366 111 
3 262 237 142 
3 20 38 19 
3 38 444 19 
3 38 21 444 
3 21 443 444 
3 21 451 443 
3 451 447 443 
3 462 463 317 
3 463 318 317 
3 317 464 462 
3 464 465 462 
3 460 469 468 
3 464 134 465 
3 134 135 465 
3 472 473 465 
3 473 462 465 
3 474 473 475 
3 473 472 475 
3 475 476 474 
3 476 477 474 
3 463 462 478 
3 462 473 478 
3 311 316 310 
3 316 334 310 
3 334 316 339 
3 316 336 339 
3 480 481 482 
3 481 483 482 
3 151 484 150 
3 484 485 150 
3 145 488 151 
3 488 484 151 
3 489 490 491 
3 307 305 317 
3 305 464 317 
3 173 12 492 
3 492 12 493 
3 167 494 12 
3 16 14 44 
3 494 499 12 
3 12 500 493 
3 12 499 500 
3 145 143 488 
3 143 489 488 
3 489 491 488 
3 491 501 488 
3 482 485 480 
3 485 484 480 
3 318 490 309 
3 490 312 309 
3 480 484 501 
3 484 488 501 
3 490 318 491 
3 318 463 491 
3 491 463 501 
3 463 478 501 
3 501 478 480 
3 478 481 480 
3 478 473 481 
3 473 474 481 
3 437 57 502 
3 57 75 502 
3 113 171 135 
3 171 172 135 
3 474 477 481 
3 477 483 481 
3 312 490 314 
3 490 489 314 
3 500 483 493 
3 483 477 493 
3 305 196 464 
3 196 134 464 
3 500 499 483 
3 499 482 483 
3 493 477 492 
3 477 476 492 
3 492 476 173 
3 476 180 173 
3 292 293 27 
3 293 132 27 
3 504 506 505 
3 507 508 505 
3 508 509 505 
3 509 510 505 
3 511 512 505 
3 515 516 505 
3 516 517 505 
3 517 518 505 
3 172 170 472 
3 170 475 472 
3 465 135 472 
3 135 172 472 
3 133 132 314 
3 132 313 314 
3 494 167 485 
3 167 150 485 
3 499 494 482 
3 494 485 482 
3 476 475 180 
3 475 170 180 
3 35 23 48 
3 23 118 48 
3 458 459 503 
3 143 133 489 
3 133 314 489 
3 118 23 24 
3 21 38 22 
3 526 528 527 
3 530 433 531 
3 433 436 531 
3 466 467 461 
3 531 436 535 
3 436 437 535 
3 357 356 536 
3 45 44 227 
3 54 55 58 
3 55 434 58 
3 31 123 200 
3 400 401 543 
3 527 115 122 
3 404 402 546 
3 548 550 549 
3 550 543 549 
3 124 125 548 
3 125 550 548 
3 545 551 411 
3 551 412 411 
3 551 552 412 
3 552 413 412 
3 552 553 413 
3 553 407 413 
3 553 554 407 
3 554 405 407 
3 554 555 405 
3 555 406 405 
3 556 121 557 
3 121 119 557 
3 457 96 456 
3 96 97 456 
3 560 408 555 
3 408 406 555 
3 556 557 547 
3 50 49 563 
3 34 33 564 
3 33 565 564 
3 433 55 436 
3 55 53 436 
3 575 100 99 
3 42 41 498 
3 117 116 497 
3 58 434 59 
3 434 122 59 
3 18 221 577 
3 582 581 580 
3 586 588 587 
3 2 0 590 
3 582 551 581 
3 551 545 581 
3 588 552 582 
3 552 551 582 
3 586 553 588 
3 553 552 588 
3 586 589 553 
3 589 554 553 
3 589 590 554 
3 590 555 554 
3 590 0 555 
3 0 560 555 
3 577 20 18 
3 479 0 1 
3 7 549 184 
3 549 8 184 
3 8 9 184 
3 9 523 184 
3 74 592 90 
3 21 22 104 
3 23 105 24 
3 33 34 534 
3 35 105 23 
3 174 176 38 
3 507 39 508 
3 39 40 508 
3 42 410 43 
3 174 38 20 
3 65 37 46 
3 49 50 496 
3 51 163 511 
3 163 159 511 
3 60 120 54 
3 120 121 54 
3 121 61 54 
3 64 65 44 
3 65 206 44 
3 206 523 44 
3 523 131 44 
3 131 227 44 
3 66 403 521 
3 403 67 521 
3 72 470 73 
3 591 74 90 
3 591 585 78 
3 83 455 79 
3 84 466 85 
3 466 461 85 
3 461 86 85 
3 88 448 85 
3 448 450 85 
3 450 89 85 
3 591 90 585 
3 96 487 97 
3 487 98 97 
3 100 163 51 
3 80 79 101 
3 79 102 101 
3 127 103 104 
3 103 549 104 
3 549 24 104 
3 24 105 104 
3 105 593 104 
3 32 47 187 
3 60 115 120 
3 115 432 120 
3 409 116 568 
3 116 117 568 
3 569 119 120 
3 567 61 124 
3 61 125 124 
3 178 126 127 
3 126 103 127 
3 549 7 24 
3 7 185 24 
3 186 184 206 
3 184 523 206 
3 83 81 128 
3 81 395 128 
3 67 403 130 
3 403 404 130 
3 131 181 227 
3 181 177 227 
3 22 127 104 
3 546 300 404 
3 300 136 404 
3 136 137 404 
3 137 301 404 
3 301 303 404 
3 303 130 404 
3 147 326 138 
3 326 328 138 
3 328 139 138 
3 140 330 138 
3 330 332 138 
3 332 345 547 
3 345 346 547 
3 346 348 547 
3 348 141 547 
3 141 298 547 
3 298 546 547 
3 130 321 129 
3 321 322 129 
3 322 146 129 
3 146 323 129 
3 323 324 129 
3 324 147 129 
3 453 561 452 
3 561 396 452 
3 401 154 8 
3 83 456 455 
3 456 155 455 
3 550 125 158 
3 125 556 158 
3 159 371 375 
3 371 160 375 
3 471 161 162 
3 161 101 162 
3 164 371 159 
3 175 577 176 
3 577 221 176 
3 221 177 176 
3 177 181 178 
3 181 126 178 
3 7 184 185 
3 184 186 185 
3 185 186 118 
3 186 200 118 
3 200 123 118 
3 123 187 118 
3 187 47 118 
3 100 203 163 
3 575 367 100 
3 367 203 100 
3 574 358 575 
3 358 367 575 
3 574 40 358 
3 40 205 358 
3 200 186 206 
3 40 39 205 
3 39 207 205 
3 39 208 207 
3 208 566 207 
3 208 541 566 
3 541 578 566 
3 541 209 578 
3 209 210 578 
3 209 537 210 
3 537 211 210 
3 537 394 211 
3 394 532 211 
3 393 212 394 
3 212 532 394 
3 392 213 393 
3 213 212 393 
3 391 559 392 
3 559 213 392 
3 222 458 223 
3 458 503 223 
3 227 177 221 
3 230 231 391 
3 231 559 391 
3 233 536 230 
3 536 231 230 
3 234 357 233 
3 357 536 233 
3 380 235 234 
3 235 357 234 
3 240 241 503 
3 241 223 503 
3 426 242 243 
3 242 454 243 
3 380 378 235 
3 378 247 235 
3 378 248 247 
3 248 376 249 
3 376 354 249 
3 376 374 354 
3 374 351 354 
3 374 375 351 
3 375 160 351 
3 372 299 353 
3 299 250 353 
3 370 251 372 
3 251 299 372 
3 369 252 370 
3 252 251 370 
3 368 253 369 
3 253 252 369 
3 254 302 368 
3 302 253 368 
3 255 304 254 
3 304 302 254 
3 257 304 255 
3 276 576 277 
3 576 278 277 
3 576 279 278 
3 279 325 278 
3 279 533 325 
3 533 280 325 
3 281 327 533 
3 327 280 533 
3 558 282 281 
3 282 327 281 
3 283 284 558 
3 284 282 558 
3 285 329 283 
3 329 284 283 
3 285 286 329 
3 286 331 329 
3 286 356 331 
3 356 333 331 
3 356 355 333 
3 355 287 333 
3 355 294 287 
3 294 347 287 
3 294 295 347 
3 295 349 347 
3 295 296 349 
3 296 350 349 
3 296 352 350 
3 352 297 350 
3 352 353 297 
3 353 250 297 
3 250 546 297 
3 546 298 297 
3 250 299 546 
3 299 300 546 
3 299 251 300 
3 251 136 300 
3 251 252 136 
3 252 137 136 
3 252 253 137 
3 253 301 137 
3 253 302 301 
3 304 130 303 
3 257 321 304 
3 321 130 304 
3 275 322 257 
3 322 321 257 
3 277 146 275 
3 146 322 275 
3 146 277 323 
3 277 278 323 
3 323 278 324 
3 278 325 324 
3 324 325 147 
3 325 280 147 
3 326 147 327 
3 147 280 327 
3 328 326 282 
3 326 327 282 
3 139 328 284 
3 328 282 284 
3 140 139 329 
3 139 284 329 
3 330 140 331 
3 140 329 331 
3 333 287 345 
3 345 287 346 
3 287 347 346 
3 348 349 141 
3 349 350 141 
3 141 350 298 
3 350 297 298 
3 351 160 352 
3 160 353 352 
3 352 296 351 
3 296 354 351 
3 296 295 354 
3 295 249 354 
3 295 294 249 
3 294 247 249 
3 294 355 247 
3 355 235 247 
3 355 356 235 
3 356 357 235 
3 205 255 358 
3 255 254 358 
3 358 254 367 
3 254 368 367 
3 367 368 203 
3 368 369 203 
3 203 369 164 
3 369 370 164 
3 164 370 371 
3 371 372 160 
3 372 353 160 
3 373 512 374 
3 512 375 374 
3 376 513 373 
3 376 248 513 
3 248 377 513 
3 248 378 377 
3 380 514 379 
3 514 380 381 
3 380 234 381 
3 234 233 381 
3 233 382 381 
3 382 233 515 
3 233 230 515 
3 515 230 516 
3 230 391 516 
3 516 391 517 
3 391 392 517 
3 517 392 518 
3 392 393 518 
3 518 393 505 
3 393 394 505 
3 102 460 101 
3 460 162 101 
3 395 426 459 
3 426 243 459 
3 396 397 487 
3 397 98 487 
3 525 402 403 
3 408 116 407 
3 116 409 407 
3 410 42 407 
3 42 411 407 
3 414 80 161 
3 80 101 161 
3 82 425 426 
3 425 242 426 
3 125 61 556 
3 61 121 556 
3 50 431 528 
3 431 432 528 
3 433 584 55 
3 584 434 55 
3 429 565 435 
3 565 33 435 
3 50 528 496 
3 528 526 496 
3 449 571 450 
3 85 89 452 
3 89 453 452 
3 450 571 89 
3 571 453 89 
3 522 240 454 
3 79 455 102 
3 455 520 102 
3 81 82 395 
3 82 426 395 
3 455 155 520 
3 155 66 520 
3 456 83 457 
3 83 128 457 
3 544 519 458 
3 519 459 458 
3 223 162 222 
3 162 460 222 
3 461 570 544 
3 570 519 544 
3 46 206 65 
3 84 486 466 
3 486 467 466 
3 222 460 468 
3 9 154 470 
3 154 88 470 
3 471 241 522 
3 84 85 486 
3 85 452 486 
3 454 242 522 
3 34 479 534 
3 479 1 534 
3 486 487 467 
3 487 96 467 
3 161 471 522 
3 526 495 496 
3 495 49 496 
3 34 564 479 
3 564 497 479 
3 498 563 495 
3 563 49 495 
3 14 64 44 
3 503 243 240 
3 243 454 240 
3 162 223 471 
3 223 241 471 
3 538 504 505 
3 506 542 505 
3 542 507 505 
3 510 99 505 
3 99 51 505 
3 51 511 505 
3 512 373 505 
3 373 513 505 
3 513 377 505 
3 377 379 505 
3 379 514 505 
3 514 381 505 
3 381 382 505 
3 382 515 505 
3 129 73 67 
3 73 87 67 
3 88 154 448 
3 154 449 448 
3 487 486 396 
3 486 452 396 
3 128 395 519 
3 395 459 519 
3 102 520 460 
3 520 469 460 
3 521 86 469 
3 86 468 469 
3 459 243 503 
3 185 118 24 
3 38 176 22 
3 178 127 176 
3 127 22 176 
3 414 522 425 
3 138 71 147 
3 71 73 147 
3 73 129 147 
3 9 470 523 
3 470 72 523 
3 72 524 523 
3 524 131 523 
3 67 87 521 
3 87 86 521 
3 400 543 525 
3 543 402 525 
3 580 526 527 
3 529 580 583 
3 580 527 583 
3 530 587 433 
3 587 584 433 
3 511 159 512 
3 159 375 512 
3 467 570 461 
3 212 281 532 
3 281 533 532 
3 33 534 435 
3 534 1 435 
3 535 437 2 
3 437 502 2 
3 356 286 536 
3 425 82 414 
3 82 80 414 
3 394 537 505 
3 537 538 505 
3 539 540 397 
3 540 398 397 
3 398 400 397 
3 400 525 397 
3 525 155 397 
3 155 456 397 
3 456 97 397 
3 97 98 397 
3 537 209 538 
3 209 504 538 
3 205 207 255 
3 207 256 255 
3 158 402 550 
3 402 543 550 
3 435 1 502 
3 1 2 502 
3 123 32 187 
3 209 541 504 
3 541 506 504 
3 541 208 506 
3 208 542 506 
3 528 432 527 
3 432 115 527 
3 425 522 242 
3 401 8 543 
3 544 468 461 
3 468 86 461 
3 583 527 122 
3 458 222 544 
3 222 468 544 
3 521 469 66 
3 469 520 66 
3 498 545 42 
3 545 411 42 
3 522 414 161 
3 285 231 286 
3 231 536 286 
3 402 158 546 
3 158 547 546 
3 103 548 549 
3 543 8 549 
3 155 525 66 
3 525 403 66 
3 37 65 14 
3 65 64 14 
3 120 432 569 
3 432 431 569 
3 584 583 434 
3 583 122 434 
3 558 213 283 
3 213 559 283 
3 398 540 399 
3 540 572 399 
3 158 556 547 
3 397 396 539 
3 396 561 539 
3 547 557 332 
3 557 562 332 
3 562 138 332 
3 131 524 181 
3 524 579 181 
3 579 124 181 
3 124 548 181 
3 548 103 181 
3 103 126 181 
3 208 39 542 
3 39 507 542 
3 540 539 572 
3 539 561 572 
3 557 119 562 
3 119 43 562 
3 431 50 563 
3 0 479 560 
3 479 497 560 
3 274 256 566 
3 256 207 566 
3 124 579 567 
3 579 568 567 
3 569 41 119 
3 41 43 119 
3 502 75 435 
3 75 429 435 
3 467 96 570 
3 96 457 570 
3 573 567 117 
3 567 568 117 
3 449 399 571 
3 399 572 571 
3 497 116 560 
3 116 408 560 
3 213 558 212 
3 558 281 212 
3 564 565 117 
3 565 573 117 
3 569 431 41 
3 431 563 41 
3 62 573 429 
3 573 565 429 
3 88 87 470 
3 87 73 470 
3 399 449 401 
3 449 154 401 
3 571 572 453 
3 572 561 453 
3 509 574 510 
3 574 575 510 
3 562 428 138 
3 428 71 138 
3 241 240 522 
3 128 519 457 
3 519 570 457 
3 510 575 99 
3 41 563 498 
3 564 117 497 
3 533 279 532 
3 279 211 532 
3 279 576 211 
3 576 210 211 
3 61 567 62 
3 567 573 62 
3 577 175 20 
3 576 276 210 
3 276 578 210 
3 568 579 409 
3 579 427 409 
3 283 559 285 
3 559 231 285 
3 72 427 524 
3 427 579 524 
3 428 562 410 
3 562 43 410 
3 276 274 578 
3 274 566 578 
3 580 581 526 
3 581 495 526 
3 529 582 580 
3 592 529 90 
3 529 583 90 
3 583 584 90 
3 584 587 90 
3 587 78 90 
3 78 585 90 
3 530 586 587 
3 530 531 586 
3 531 589 586 
3 531 535 589 
3 535 590 589 
3 535 2 590 
3 495 581 498 
3 581 545 498 
3 591 78 74 
3 78 587 74 
3 587 588 74 
3 588 582 74 
3 582 529 74 
3 529 592 74 
3 40 574 508 
3 574 509 508 
3 174 20 175 
3 593 105 451 
3 105 35 451 
3 21 104 451 
3 104 593 451 
