ply
format ascii 1.0
comment VCGLIB generated
element vertex 184
property float x
property float y
property float z
property float nx
property float ny
property float nz
property float texture_u
property float texture_v
element face 364
property list uchar int vertex_indices
end_header
-0 1.063352 4.315307 7.755704e-07 0.728003 0.685574 1.000000 0.500000
0.20745 1.04292 4.315307 0.1197433 0.5133359 0.8497928 1.000000 0.597545
0.15258 0.767069 0.003914 0.1110731 0.6731537 -0.7311134 0.000000 0.571745
0 0.782097 0.003914 9.260553e-07 0.8692585 -0.4943579 0.000000 0.500000
0.406927 0.982409 4.315307 0.2175897 0.4801113 0.8497928 1.000000 0.691342
0.299296 0.722564 0.003914 0.2402641 0.6385501 -0.7311135 0.000000 0.640732
0.590767 0.884145 4.315307 0.307074 0.4284365 0.8497928 1.000000 0.777785
0.43451 0.65029 0.003914 0.3602232 0.5794069 -0.7311134 0.000000 0.704311
0.751904 0.751904 4.315307 0.2670127 0.2670127 0.9259635 1.000000 0.853554
0.553026 0.553026 0.003914 0.546662 0.546662 -0.634288 0.000000 0.760039
0.884145 0.590767 4.315307 0.4284362 0.3070743 0.8497928 1.000000 0.915735
0.65029 0.43451 0.003914 0.5794064 0.3602241 -0.7311135 0.000000 0.805774
0.98241 0.406927 4.315307 0.4801111 0.21759 0.8497929 1.000000 0.961940
0.722564 0.299296 0.003914 0.6385502 0.2402636 -0.7311136 0.000000 0.839758
1.04292 0.20745 4.315307 0.5133361 0.1197425 0.8497928 1.000000 0.990393
0.767069 0.15258 0.003914 0.6731538 0.1110726 -0.7311134 0.000000 0.860684
1.063352 -0 4.315307 0.8230878 1.333827e-06 0.5679142 1.000000 1.000000
0.782097 0 0.003914 0.5358467 8.683483e-07 -0.8443154 0.000000 0.867751
1.04292 -0.20745 4.315307 0.5133359 -0.119743 0.8497928 1.000000 0.990393
0.76707 -0.15258 0.003914 0.6731539 -0.1110718 -0.7311135 0.000000 0.860685
0.98241 -0.406927 4.315307 0.4801109 -0.2175905 0.8497929 1.000000 0.961940
0.722564 -0.299296 0.003914 0.6385497 -0.240265 -0.7311135 0.000000 0.839758
0.884145 -0.590767 4.315307 0.4284362 -0.3070743 0.8497928 1.000000 0.915735
0.65029 -0.43451 0.003914 0.5794064 -0.3602241 -0.7311135 0.000000 0.805774
0.751904 -0.751904 4.315307 0.267013 -0.2670125 0.9259635 1.000000 0.853554
0.553026 -0.553026 0.003914 0.5466625 -0.5466616 -0.634288 0.000000 0.760039
0.590767 -0.884146 4.315307 0.3070745 -0.4284361 0.8497928 1.000000 0.777785
0.43451 -0.65029 0.003914 0.3602236 -0.5794066 -0.7311136 0.000000 0.704311
0.406927 -0.98241 4.315307 0.21759 -0.4801112 0.8497928 1.000000 0.691342
0.299296 -0.722564 0.003914 0.2402648 -0.6385499 -0.7311136 0.000000 0.640732
0.207449 -1.042921 4.315307 0.1400791 -0.6005147 0.7872483 1.000000 0.597545
0.152579 -0.76707 0.003914 0.131108 -0.7945813 -0.5928333 0.000000 0.571744
-0 -1.063353 4.315307 -1.854269e-06 -0.728003 0.6855739 1.000000 0.500000
-0 -0.782097 0.003914 -2.214055e-06 -0.8692584 -0.4943581 0.000000 0.500000
-0.20745 -1.04292 4.315307 -0.1197435 -0.5133359 0.8497928 1.000000 0.402455
-0.15258 -0.767069 0.003914 -0.111074 -0.6731536 -0.7311134 0.000000 0.428255
-0.406928 -0.982409 4.315307 -0.2175896 -0.4801113 0.8497929 1.000000 0.308658
-0.299296 -0.722564 0.003914 -0.2402638 -0.6385502 -0.7311136 0.000000 0.359268
-0.590768 -0.884145 4.315307 -0.3070744 -0.4284361 0.8497928 1.000000 0.222214
-0.43451 -0.65029 0.003914 -0.3602235 -0.5794067 -0.7311135 0.000000 0.295689
-0.751904 -0.751903 4.315307 -0.267013 -0.2670124 0.9259635 1.000000 0.146446
-0.553027 -0.553026 0.003914 -0.5466626 -0.5466616 -0.634288 0.000000 0.239961
-0.884146 -0.590766 4.315307 -0.4284366 -0.3070737 0.8497928 1.000000 0.084265
-0.65029 -0.43451 0.003914 -0.579407 -0.360223 -0.7311135 0.000000 0.194226
-0.98241 -0.406927 4.315307 -0.4801112 -0.21759 0.8497928 1.000000 0.038060
-0.722564 -0.299295 0.003914 -0.6385498 -0.2402651 -0.7311135 0.000000 0.160242
-1.042921 -0.207449 4.315307 -0.5133359 -0.1197431 0.8497929 1.000000 0.009607
-0.76707 -0.152579 0.003914 -0.6731539 -0.1110711 -0.7311136 0.000000 0.139315
-1.063352 1e-06 4.315307 -0.8230879 2.408299e-06 0.5679141 1.000000 0.000000
-0.782097 1e-06 0.003914 -0.5358467 1.567851e-06 -0.8443153 0.000000 0.132249
-1.04292 0.207451 4.315307 -0.5133356 0.1197444 0.8497928 1.000000 0.009607
-0.767069 0.15258 0.003914 -0.6731535 0.1110739 -0.7311135 0.000000 0.139316
-0.982409 0.406928 4.315307 -0.4801118 0.2175889 0.8497928 1.000000 0.038060
-0.722563 0.299296 0.003914 -0.63855 0.2402645 -0.7311134 0.000000 0.160243
-0.884145 0.590768 4.315307 -0.4284364 0.3070739 0.8497928 1.000000 0.084265
-0.65029 0.434511 0.003914 -0.5794076 0.3602219 -0.7311136 0.000000 0.194226
-0.751903 0.751905 4.315307 -0.2670122 0.2670133 0.9259636 1.000000 0.146447
-0.553026 0.553027 0.003914 -0.546661 0.5466632 -0.634288 0.000000 0.239961
-0.590766 0.884146 4.315307 -0.307073 0.4284371 0.8497928 1.000000 0.222215
-0.434509 0.650291 0.003914 -0.3602217 0.5794078 -0.7311135 0.000000 0.295689
-0.406926 0.98241 4.315307 -0.2175887 0.4801118 0.8497928 1.000000 0.308659
-0.299295 0.722564 0.003914 -0.2402632 0.6385505 -0.7311135 0.000000 0.359268
-0 1.045537 4.315307 9.390994e-07 -0.8692585 0.494358 1.000000 0.500000
0.026566 1.04292 4.315307 -0.05270521 -0.5351018 0.8431419 1.000000 0.512492
-0.207448 1.04292 4.315307 -0.1400784 0.600515 0.7872483 1.000000 0.402456
-0.026565 1.04292 4.315307 0.05270574 -0.5351017 0.8431419 1.000000 0.487509
-0.316484 0.991318 4.315307 0.1560832 -0.5145383 0.843142 1.000000 0.351186
-0.203973 1.025447 4.315307 0.1829431 -0.7842708 0.5928332 1.000000 0.404090
0.117008 1.034013 4.315307 -0.06702535 -0.6805257 0.7296522 1.000000 0.555018
-0.345849 0.98241 4.315307 0.1985002 -0.654374 0.7296522 1.000000 0.337378
0.203974 1.025447 4.315307 -0.1829427 -0.7842709 0.5928332 1.000000 0.595911
0.34585 0.982409 4.315307 -0.1560823 -0.5145387 0.8431419 1.000000 0.662623
-0.544659 0.888687 4.315307 0.2534645 -0.4742019 0.843142 1.000000 0.243895
-0.400108 0.965951 4.315307 0.3324313 -0.7335108 0.5928333 1.000000 0.311865
0.36082 0.977868 4.315307 -0.1984975 -0.6543749 0.7296522 1.000000 0.669662
-0.553155 0.884146 4.315307 0.3223458 -0.603076 0.7296523 1.000000 0.239900
0.553156 0.884145 4.315307 -0.3223519 -0.6030728 0.7296522 1.000000 0.760100
0.40011 0.96595 4.315307 -0.2610095 -0.630142 0.731297 1.000000 0.688136
-0.720144 0.755033 4.315307 0.4338194 -0.5285908 0.7296523 1.000000 0.161380
-0.580868 0.869333 4.315307 0.378929 -0.5671135 0.7312969 1.000000 0.226869
0.559008 0.881017 4.315307 -0.3223517 -0.603073 0.7296522 1.000000 0.762852
-0.723955 0.751905 4.315307 0.4338235 -0.5285875 0.7296523 1.000000 0.159588
0.723956 0.751904 4.315307 -0.4338124 -0.5285967 0.7296523 1.000000 0.840412
0.580869 0.869332 4.315307 -0.3789319 -0.5671118 0.7312967 1.000000 0.773131
-0.859192 0.593226 4.315307 0.4156511 -0.3410945 0.8431422 1.000000 0.095998
-0.739305 0.739307 4.315307 0.4823015 -0.4822756 0.7312971 1.000000 0.152371
0.726951 0.749446 4.315307 -0.4338189 -0.5285914 0.7296522 1.000000 0.841820
-0.861209 0.590768 4.315307 0.5286055 -0.4338012 0.7296525 1.000000 0.095050
0.861209 0.590767 4.315307 -0.4156276 -0.3411244 0.8431417 1.000000 0.904950
0.739306 0.739306 4.315307 -0.4822952 -0.4822832 0.7312962 1.000000 0.847630
-0.961189 0.409018 4.315307 0.4742049 -0.2534584 0.8431421 1.000000 0.048038
-0.869332 0.58087 4.315307 0.6545621 -0.4691451 0.5928333 1.000000 0.091230
0.862925 0.588677 4.315307 -0.5285656 -0.433852 0.7296512 1.000000 0.905757
-0.962306 0.406928 4.315307 0.6030768 -0.3223443 0.7296525 1.000000 0.047513
0.962306 0.406927 4.315307 -0.4742225 -0.2534239 0.8431426 1.000000 0.952487
0.869332 0.580869 4.315307 -0.6545625 -0.469142 0.5928354 1.000000 0.908770
-1.023822 0.209332 4.315307 0.5145236 -0.1561351 0.8431413 1.000000 0.018587
-0.96595 0.400111 4.315307 0.7335075 -0.3324386 0.5928334 1.000000 0.045799
0.963311 0.405046 4.315307 -0.6030793 -0.3223395 0.7296525 1.000000 0.952960
-1.024393 0.207451 4.315307 0.6543595 -0.1985516 0.7296513 1.000000 0.018319
1.024393 0.20745 4.315307 -0.5145567 -0.1560178 0.8431429 1.000000 0.981681
0.96595 0.40011 4.315307 -0.7334985 -0.3324587 0.5928333 1.000000 0.954201
-1.045362 0.001773 4.315307 0.5350991 -0.05273889 0.8431415 1.000000 0.008459
-1.025447 0.203975 4.315307 0.7842768 -0.1829173 0.5928333 1.000000 0.017823
1.02493 0.205678 4.315307 -0.6543946 -0.1984264 0.7296538 1.000000 0.981934
-1.045537 1e-06 4.315307 0.773096 -5.278096e-05 0.6342891 1.000000 0.008377
1.045537 0 4.315307 -0.773096 5.047252e-05 0.634289 1.000000 0.991623
1.025447 0.203974 4.315307 -0.7842675 -0.1829572 0.5928332 1.000000 0.982177
-1.025448 -0.203973 4.315307 0.7842666 0.1829607 0.5928333 1.000000 0.017823
-1.024931 -0.205677 4.315307 0.6543485 0.1985913 0.7296504 1.000000 0.018066
1.045362 -0.001772 4.315307 -0.5350992 0.05273801 0.8431415 1.000000 0.991541
-1.024393 -0.207449 4.315307 0.5145212 0.1561441 0.8431411 1.000000 0.018319
1.025447 -0.203974 4.315307 -0.7842769 0.182917 0.5928332 1.000000 0.982177
1.024393 -0.20745 4.315307 -0.6543596 0.1985514 0.7296512 1.000000 0.981681
-0.965951 -0.400109 4.315307 0.7335078 0.332438 0.5928333 1.000000 0.045799
-0.963312 -0.405046 4.315307 0.603038 0.3224209 0.7296507 1.000000 0.047040
1.023822 -0.209331 4.315307 -0.5145237 0.1561352 0.8431413 1.000000 0.981413
-0.962306 -0.406927 4.315307 0.4741749 0.2535173 0.8431413 1.000000 0.047513
0.96595 -0.40011 4.315307 -0.7335074 0.332439 0.5928333 1.000000 0.954201
0.962306 -0.406927 4.315307 -0.6030766 0.3223446 0.7296523 1.000000 0.952487
-0.869333 -0.580869 4.315307 0.6545502 0.4691616 0.5928335 1.000000 0.091230
-0.862925 -0.588676 4.315307 0.5285981 0.4338107 0.7296522 1.000000 0.094243
0.961189 -0.409017 4.315307 -0.4742049 0.2534584 0.843142 1.000000 0.951962
-0.86121 -0.590766 4.315307 0.4156529 0.3410923 0.8431422 1.000000 0.095049
0.869332 -0.580869 4.315307 -0.6545671 0.4691384 0.592833 1.000000 0.908770
0.861209 -0.590767 4.315307 -0.5286115 0.4337939 0.7296526 1.000000 0.904950
-0.739307 -0.739306 4.315307 0.4822933 0.4822827 0.7312979 1.000000 0.152370
-0.726951 -0.749446 4.315307 0.4338042 0.5286033 0.7296523 1.000000 0.158180
0.859192 -0.593225 4.315307 -0.4156455 0.3411017 0.843142 1.000000 0.904002
-0.723957 -0.751903 4.315307 0.4338078 0.5286004 0.7296523 1.000000 0.159587
0.739306 -0.739306 4.315307 -0.4822947 0.4822838 0.7312962 1.000000 0.847630
0.723956 -0.751904 4.315307 -0.4338239 0.5285873 0.7296522 1.000000 0.840412
-0.58087 -0.869332 4.315307 0.3789333 0.5671108 0.7312968 1.000000 0.226868
-0.559009 -0.881017 4.315307 0.3223501 0.6030738 0.7296522 1.000000 0.237148
0.720145 -0.755032 4.315307 -0.4338199 0.5285905 0.7296523 1.000000 0.838620
-0.553157 -0.884145 4.315307 0.3223488 0.6030745 0.7296523 1.000000 0.239899
0.580869 -0.869333 4.315307 -0.3789324 0.5671113 0.7312968 1.000000 0.773131
0.553156 -0.884146 4.315307 -0.3223474 0.6030752 0.7296523 1.000000 0.760100
-0.40011 -0.96595 4.315307 0.2610105 0.6301416 0.7312969 1.000000 0.311864
-0.360821 -0.977868 4.315307 0.1984982 0.6543745 0.7296523 1.000000 0.330338
0.54466 -0.888687 4.315307 -0.2534615 0.4742034 0.843142 1.000000 0.756105
-0.345851 -0.982409 4.315307 0.1560832 0.5145383 0.843142 1.000000 0.337377
0.400109 -0.965951 4.315307 -0.3324306 0.7335113 0.5928332 1.000000 0.688136
0.34585 -0.98241 4.315307 -0.1985022 0.6543734 0.7296522 1.000000 0.662623
-0.203975 -1.025447 4.315307 0.1829479 0.7842697 0.5928332 1.000000 0.404089
-0.117008 -1.034013 4.315307 0.06702515 0.6805257 0.7296523 1.000000 0.444982
0.316485 -0.991318 4.315307 -0.1560836 0.5145382 0.843142 1.000000 0.648815
-0.026566 -1.042921 4.315307 0.05269859 0.5351022 0.843142 1.000000 0.487508
0.203974 -1.025448 4.315307 -0.1829413 0.7842711 0.5928335 1.000000 0.595911
0.026566 -1.042921 4.315307 -0.05269782 0.5351023 0.843142 1.000000 0.512492
-0 -1.045537 4.315307 1.94015e-07 0.8692585 0.4943579 1.000000 0.500000
-0.152578 0.76707 0.003914 -0.1311078 0.7945814 -0.5928331 0.000000 0.428256
0.150266 0.75544 0.095241 -0.113821 -0.8236179 0.5556064 0.021183 0.570657
0 0.77024 0.095241 9.390993e-07 -0.8692584 0.494358 0.021183 0.500000
0.294758 0.711609 0.095241 -0.3061588 -0.8136805 0.4941568 0.021183 0.638599
0.427922 0.640431 0.095241 -0.4480094 -0.6999481 0.5562016 0.021183 0.701214
0.544642 0.544642 0.095241 -0.642117 -0.6243185 0.4448732 0.021183 0.756097
0.640431 0.427922 0.095241 -0.7173732 -0.4203291 0.555607 0.021183 0.801138
0.711609 0.294758 0.095241 -0.7855946 -0.2722871 0.5556086 0.021183 0.834607
0.75544 0.150266 0.095241 -0.6731524 -0.1110793 0.7311137 0.021183 0.855216
0.77024 0 0.095241 -0.5358449 3.498329e-05 0.8443164 0.021183 0.862175
0.75544 -0.150266 0.095241 -0.7651117 0.1134425 0.6338257 0.021183 0.855216
0.711609 -0.294758 0.095241 -0.7855819 0.2723292 0.5556059 0.021183 0.834607
0.640431 -0.427922 0.095241 -0.7173679 0.4203388 0.5556065 0.021183 0.801138
0.544642 -0.544642 0.095241 -0.6421392 0.6242945 0.4448748 0.021183 0.756097
0.427922 -0.640431 0.095241 -0.4590203 0.7383151 0.4941571 0.021183 0.701214
0.294758 -0.711609 0.095241 -0.2723117 0.7855875 0.5556066 0.021183 0.638599
0.150266 -0.75544 0.095241 -0.1274785 0.8601199 0.4939058 0.021183 0.570657
-0 -0.77024 0.095241 -2.412961e-07 0.8692585 0.4943579 0.021183 0.500000
-0.150267 -0.75544 0.095241 0.1138174 0.8236181 0.5556068 0.021183 0.429343
-0.294758 -0.711608 0.095241 0.3061596 0.8136801 0.4941568 0.021183 0.361401
-0.427923 -0.640431 0.095241 0.4480063 0.6999502 0.5562016 0.021183 0.298786
-0.544642 -0.544641 0.095241 0.6421235 0.6243106 0.4448749 0.021183 0.243903
-0.640431 -0.427922 0.095241 0.7173447 0.4203805 0.555605 0.021183 0.198862
-0.711609 -0.294757 0.095241 0.7855719 0.2723612 0.5556043 0.021183 0.165393
-0.75544 -0.150266 0.095241 0.6731521 0.1110799 0.7311139 0.021183 0.144784
-0.77024 1e-06 0.095241 0.5358449 -3.658331e-05 0.8443165 0.021183 0.137825
-0.755439 0.150267 0.095241 0.7651114 -0.1134438 0.6338257 0.021183 0.144784
-0.711608 0.294759 0.095241 0.7855818 -0.2723292 0.555606 0.021183 0.165394
-0.64043 0.427923 0.095241 0.7173678 -0.4203388 0.5556067 0.021183 0.198863
-0.544641 0.544642 0.095241 0.6421394 -0.6242942 0.444875 0.021183 0.243904
-0.427921 0.640431 0.095241 0.4590202 -0.7383151 0.4941571 0.021183 0.298787
-0.294757 0.711609 0.095241 0.2723103 -0.785588 0.5556066 0.021183 0.361402
-0.150265 0.75544 0.095241 0.127487 -0.860119 0.4939053 0.021183 0.429344
3 0 1 2 
3 0 2 3 
3 1 4 5 
3 1 5 2 
3 4 6 7 
3 4 7 5 
3 6 8 9 
3 6 9 7 
3 9 8 10 
3 9 10 11 
3 11 10 12 
3 11 12 13 
3 13 12 14 
3 13 14 15 
3 15 14 16 
3 15 16 17 
3 16 18 19 
3 16 19 17 
3 18 20 21 
3 18 21 19 
3 20 22 23 
3 20 23 21 
3 22 24 25 
3 22 25 23 
3 25 24 26 
3 25 26 27 
3 27 26 28 
3 27 28 29 
3 29 28 30 
3 29 30 31 
3 31 30 32 
3 31 32 33 
3 32 34 35 
3 32 35 33 
3 34 36 37 
3 34 37 35 
3 36 38 39 
3 36 39 37 
3 38 40 41 
3 38 41 39 
3 41 40 42 
3 41 42 43 
3 43 42 44 
3 43 44 45 
3 45 44 46 
3 45 46 47 
3 47 46 48 
3 47 48 49 
3 48 50 51 
3 48 51 49 
3 50 52 53 
3 50 53 51 
3 52 54 55 
3 52 55 53 
3 54 56 57 
3 54 57 55 
3 57 56 58 
3 57 58 59 
3 59 58 60 
3 59 60 61 
3 0 62 63 
3 0 63 1 
3 0 64 65 
3 0 65 62 
3 64 60 66 
3 64 66 67 
3 67 65 64 
3 1 63 68 
3 66 60 69 
3 1 70 71 
3 1 71 4 
3 1 68 70 
3 60 58 72 
3 60 72 73 
3 73 69 60 
3 74 4 71 
3 58 75 72 
3 76 6 4 
3 76 4 77 
3 4 74 77 
3 58 56 78 
3 58 78 79 
3 79 75 58 
3 80 6 76 
3 56 81 78 
3 82 8 6 
3 82 6 83 
3 6 80 83 
3 56 54 84 
3 56 84 85 
3 85 81 56 
3 86 8 82 
3 54 87 84 
3 88 10 8 
3 88 8 89 
3 8 86 89 
3 54 52 90 
3 54 90 91 
3 91 87 54 
3 92 10 88 
3 52 93 90 
3 94 12 10 
3 94 10 95 
3 10 92 95 
3 52 50 96 
3 52 96 97 
3 97 93 52 
3 98 12 94 
3 50 99 96 
3 100 14 12 
3 100 12 101 
3 12 98 101 
3 50 48 102 
3 50 102 103 
3 103 99 50 
3 104 14 100 
3 48 105 102 
3 106 16 14 
3 106 14 107 
3 14 104 107 
3 46 108 105 
3 46 105 48 
3 46 109 108 
3 110 16 106 
3 46 111 109 
3 18 16 110 
3 18 110 112 
3 112 113 18 
3 44 114 111 
3 44 111 46 
3 44 115 114 
3 116 18 113 
3 44 117 115 
3 20 18 116 
3 20 116 118 
3 118 119 20 
3 42 120 117 
3 42 117 44 
3 42 121 120 
3 122 20 119 
3 42 123 121 
3 22 20 122 
3 22 122 124 
3 124 125 22 
3 40 126 123 
3 40 123 42 
3 40 127 126 
3 128 22 125 
3 40 129 127 
3 24 22 128 
3 24 128 130 
3 130 131 24 
3 38 132 129 
3 38 129 40 
3 38 133 132 
3 134 24 131 
3 38 135 133 
3 26 24 134 
3 26 134 136 
3 136 137 26 
3 36 138 135 
3 36 135 38 
3 36 139 138 
3 140 26 137 
3 36 141 139 
3 28 26 140 
3 28 140 142 
3 142 143 28 
3 34 144 141 
3 34 141 36 
3 34 145 144 
3 146 28 143 
3 34 147 145 
3 30 28 146 
3 30 146 148 
3 148 149 30 
3 32 150 147 
3 32 147 34 
3 32 30 149 
3 32 149 150 
3 0 3 151 
3 0 151 64 
3 61 60 64 
3 61 64 151 
3 3 2 151 
3 2 61 151 
3 2 5 61 
3 5 59 61 
3 5 7 59 
3 7 57 59 
3 7 9 57 
3 9 55 57 
3 9 11 55 
3 11 53 55 
3 11 13 53 
3 13 51 53 
3 13 15 51 
3 15 49 51 
3 15 17 49 
3 17 47 49 
3 17 19 47 
3 19 45 47 
3 19 21 45 
3 21 43 45 
3 21 23 43 
3 23 41 43 
3 23 25 41 
3 25 39 41 
3 25 27 39 
3 27 37 39 
3 27 29 37 
3 29 35 37 
3 29 31 35 
3 31 33 35 
3 152 70 68 
3 152 68 63 
3 62 153 152 
3 62 152 63 
3 154 74 71 
3 154 71 70 
3 154 77 74 
3 70 152 154 
3 155 80 76 
3 155 76 154 
3 155 83 80 
3 76 77 154 
3 156 86 82 
3 156 82 155 
3 156 89 86 
3 82 83 155 
3 156 95 92 
3 156 92 88 
3 156 157 95 
3 88 89 156 
3 157 158 101 
3 157 101 98 
3 94 95 157 
3 94 157 98 
3 158 159 107 
3 158 107 104 
3 104 100 158 
3 100 101 158 
3 106 107 159 
3 106 159 160 
3 161 110 106 
3 161 106 160 
3 161 112 110 
3 162 113 112 
3 162 112 161 
3 162 116 113 
3 162 118 116 
3 163 119 118 
3 163 118 162 
3 163 122 119 
3 163 124 122 
3 164 128 125 
3 164 125 124 
3 124 163 164 
3 164 130 128 
3 164 165 134 
3 164 134 131 
3 131 130 164 
3 165 136 134 
3 165 142 140 
3 165 140 137 
3 137 136 165 
3 165 166 142 
3 166 146 143 
3 166 143 142 
3 166 167 148 
3 166 148 146 
3 167 150 149 
3 167 149 148 
3 167 168 150 
3 169 145 147 
3 169 147 150 
3 169 144 145 
3 150 168 169 
3 170 138 139 
3 170 139 141 
3 144 169 170 
3 144 170 141 
3 171 133 135 
3 171 135 170 
3 171 132 133 
3 135 138 170 
3 172 127 129 
3 172 129 171 
3 172 126 127 
3 129 132 171 
3 172 121 123 
3 172 123 126 
3 172 173 120 
3 172 120 121 
3 173 174 114 
3 173 114 115 
3 115 117 173 
3 117 120 173 
3 174 175 108 
3 174 108 109 
3 109 111 174 
3 111 114 174 
3 105 108 175 
3 105 175 176 
3 177 102 105 
3 177 105 176 
3 177 103 102 
3 178 99 103 
3 178 103 177 
3 178 96 99 
3 178 97 96 
3 179 93 97 
3 179 97 178 
3 179 90 93 
3 179 91 90 
3 180 85 84 
3 180 84 87 
3 91 179 180 
3 91 180 87 
3 180 181 78 
3 180 78 81 
3 81 85 180 
3 181 79 78 
3 181 72 75 
3 181 75 79 
3 181 182 73 
3 181 73 72 
3 62 65 183 
3 62 183 153 
3 65 67 183 
3 182 67 66 
3 182 66 69 
3 69 73 182 
3 182 183 67 
3 153 183 152 
3 152 183 182 
3 152 182 154 
3 154 182 181 
3 154 181 155 
3 155 181 180 
3 155 180 156 
3 156 180 179 
3 156 179 157 
3 157 179 178 
3 157 178 158 
3 158 178 177 
3 158 177 159 
3 159 177 176 
3 159 176 160 
3 160 176 175 
3 160 175 161 
3 161 175 174 
3 161 174 162 
3 162 174 173 
3 162 173 163 
3 163 173 172 
3 163 172 164 
3 164 172 171 
3 164 171 165 
3 165 171 170 
3 165 170 166 
3 166 170 169 
3 166 169 167 
3 167 169 168 
