ply
format ascii 1.0
comment VCGLIB generated
comment TextureFile rock_texture.jpg
element vertex 350
property float x
property float y
property float z
property float nx
property float ny
property float nz
property float texture_u
property float texture_v
element face 350
property list uchar int vertex_indices
end_header
-2.31031 0.105989 2.07758 -0.175054 -0.961974 0.20954 0.469163 0.365141
0.088602 0.0271618 1.38637 0.020142 -0.998474 0.0508129 0.353106 0.196455
-0.804083 0.0932497 2.1973 -0.051088 -0.981536 0.184271 0.440061 0.245393
-0.210852 0.175609 2.95816 -0.320566 -0.674062 0.665456 0.484885 0.180437
-0.869604 0.215345 2.48758 -0.298044 -0.622089 0.72396 0.46436 0.243315
-1.60015 0.0335331 -0.524406 -0.072207 -0.995605 -0.0592361 0.244962 0.375199
-0.229681 0.0233592 -1.31567 0.00061 -0.99823 -0.0591451 0.147135 0.28879
-0.777578 -7.41031e-008 0.565094 -0.013916 -0.999756 0.0162659 0.310318 0.28413
0.479242 0.00565306 -0.469833 0.057314 -0.997223 -0.0469071 0.196044 0.212646
-2.55356 0.0667239 0.673595 -0.168096 -0.985382 0.0271609 0.364256 0.41912
-2.63648 0.325337 -1.50178 -0.415021 -0.882778 -0.219977 0.193156 0.480266
-2.33309 0.21163 -1.33344 -0.178137 -0.974792 -0.134251 0.199077 0.452431
-2.93364 0.178003 -0.434162 -0.381451 -0.920927 -0.0796531 0.285857 0.476423
-3.15159 0.333692 -0.507969 -0.984802 -0.167577 -0.045595 0.285104 0.495308
-2.74511 0.102381 0.226856 -0.780541 -0.589038 0.209082 0.33365 0.445186
1.34937 0.178576 2.95107 0.14597 -0.843776 0.516404 0.444298 0.059694
1.30642 0.152169 2.75899 0.133427 -0.9859 0.100772 0.43026 0.06781
1.6985 0.307123 3.00065 0.46382 -0.383709 0.798486 0.438865 0.031514
2.33805 0.328406 1.83559 0.834712 -0.202246 0.512162 0.33006 0.011144
2.62734 0.284837 1.38368 0.765923 -0.536821 0.35374 0.286963 0
1.31332 0.051225 -0.053829 0.072359 -0.997314 0.0106199 0.207478 0.137626
3.11143 0.181865 -0.394867 0.523331 -0.846553 0.0972009 0.133917 0.006928
2.73351 0.231931 0.359776 0.68041 -0.691336 0.242988 0.203259 0.017365
-0.299719 0.149338 -2.83157 -0.059084 -0.983062 -0.173315 0.028391 0.3323
0.126932 0.16251 -2.93499 0.252693 -0.86288 -0.437635 0.009211 0.301835
0.038568 0.245784 -3.07647 0.289956 -0.206641 -0.934446 0 0.312304
-0.425375 0.21504 -3.04428 -0.123722 -0.593707 -0.795068 0.014548 0.347426
0.0068 0.303602 3.07647 -0.138981 -0.0445571 0.989288 0.488273 0.160724
-2.12711 0.335446 -2.67693 -0.308054 -0.897458 -0.315622 0.086925 0.470228
-2.47112 0.441992 2.1321 -0.651997 0.574023 0.495315 0.057473 0.507465
-2.48528 0.735079 1.38368 -0.829646 0.51146 0.223792 0.071603 0.568112
-2.6232 0.328474 0.254974 -0.92703 0.048708 0.371715 0.02449 0.654259
-2.64858 0.134196 1.29382 -0.890347 -0.443251 0.103702 0.415634 0.411013
-2.45588 0.205149 2.27557 -0.617267 -0.334941 0.711875 0.488273 0.371557
-2.74511 0.102381 0.226856 -0.780541 -0.589038 0.209082 0.003049 0.653624
-2.64858 0.134196 1.29382 -0.890347 -0.443251 0.103702 0.019627 0.570215
-0.871801 0.350226 2.49698 -0.332469 0.478683 0.812586 0.960387 0.198679
-1.95536 0.320303 2.39213 -0.151708 0.299326 0.941984 0.959216 0.277852
-0.869604 0.215345 2.48758 -0.298044 -0.622089 0.72396 0.949169 0.199215
-2.45588 0.205149 2.27557 -0.617267 -0.334941 0.711875 0.950393 0.317601
-2.09701 0.472895 -2.91515 -0.364269 -0.26368 -0.893155 0.066837 0.473989
-2.31026 0.503256 -2.77992 -0.772057 -0.0341199 -0.634602 0.082928 0.487158
2.97994 0.188084 -1.47722 0.586566 -0.776391 -0.230537 0.05149 0.044231
1.18548 0.169098 -2.08996 0.115207 -0.962889 -0.244026 0.049012 0.198637
1.26618 0.329815 -2.36915 0.280587 -0.395337 -0.874599 0.024305 0.199523
2.35298 0.224394 -1.98035 0.149449 -0.874599 -0.461165 0.02758 0.105458
2.88578 0.367589 -1.96583 0.563463 -0.388165 -0.72924 0.014611 0.063933
3.09657 0.221225 -1.10451 0.833766 -0.543565 -0.0964691 0.077932 0.025889
3.09657 0.221225 -1.10451 0.833766 -0.543565 -0.0964691 0.526926 0.445366
2.97994 0.188084 -1.47722 0.586566 -0.776391 -0.230537 0.533955 0.414768
2.88578 0.367589 -1.96583 0.563463 -0.388165 -0.72924 0.559757 0.379825
-2.45588 0.205149 2.27557 -0.617267 -0.334941 0.711875 0.041398 0.495308
-2.43795 0.539669 -2.53517 -0.909635 0.078829 -0.407819 0.105484 0.490959
-3.00599 0.536018 -0.459576 -0.744194 0.667928 -0.00582891 0.020601 0.705932
-2.43795 0.539669 -2.53517 -0.909635 0.078829 -0.407819 0.017641 0.880606
-3.15159 0.333692 -0.507969 -0.984802 -0.167577 -0.045595 0 0.706629
3.06091 0.48897 -1.75304 0.918119 0.0321051 -0.39494 0.561958 0.40016
3.11143 0.181865 -0.394867 0.523331 -0.846553 0.0972009 0.50903 0.500172
3.15159 0.242502 -0.36586 0.939146 -0.219794 0.263894 0.512529 0.503995
3.15049 0.628775 -0.730167 0.949339 0.313456 0.021119 0.550501 0.483813
2.70083 0.59384 0.362431 0.888028 0.415418 0.196905 0.533132 0.565923
2.73351 0.231931 0.359776 0.68041 -0.691336 0.242988 0.504053 0.558086
3.01513 0.756729 -0.426121 0.760796 0.576037 0.298868 0.556713 0.509578
0.476221 0.834421 -2.42026 0.170049 0.342479 -0.923978 0.607246 0.21664
1.26618 0.329815 -2.36915 0.280587 -0.395337 -0.874599 0.541421 0.255672
0.665613 0.341867 -2.65012 0.418714 0.333811 -0.844508 0.560404 0.209396
0.126932 0.16251 -2.93499 0.252693 -0.86288 -0.437635 0.563317 0.160563
0.665613 0.341867 -2.65012 0.418714 0.333811 -0.844508 0.017402 0.253117
-0.575003 0.583276 2.29927 -0.257302 0.880367 0.398328 0.334944 0.788649
-0.590155 0.892223 1.72045 -0.20246 0.101077 0.974029 0.382097 0.775051
-0.871801 0.350226 2.49698 -0.332469 0.478683 0.812586 0.325574 0.817685
-1.95536 0.320303 2.39213 -0.151708 0.299326 0.941984 0.358719 0.900197
-2.47112 0.441992 2.1321 -0.651997 0.574023 0.495315 0.970484 0.324411
0.0068 0.303602 3.07647 -0.138981 -0.0445571 0.989288 0.954255 0.113086
-0.232809 0.407063 2.95479 -0.428632 0.501114 0.751762 0.963402 0.134658
-0.210852 0.175609 2.95816 -0.320566 -0.674062 0.665456 0.944087 0.133478
-0.232809 0.407063 2.95479 -0.428632 0.501114 0.751762 0.274342 0.777565
1.89825 0.342544 2.8233 0.815607 -0.251411 0.521073 0.419574 0.020507
1.6985 0.307123 3.00065 0.46382 -0.383709 0.798486 0.452222 0.699889
1.89825 0.342544 2.8233 0.815607 -0.251411 0.521073 0.454942 0.687903
1.57173 0.661687 2.89806 0.415754 0.641438 0.644734 0.484469 0.698094
1.15121 0.638538 2.98916 -0.02768 0.565386 0.824335 0.981237 0.037469
1.6985 0.307123 3.00065 0.46382 -0.383709 0.798486 0.953055 0
1.57173 0.661687 2.89806 0.415754 0.641438 0.644734 0.982967 0.01246
1.34937 0.178576 2.95107 0.14597 -0.843776 0.516404 0.942807 0.026443
3.15159 0.242502 -0.36586 0.939146 -0.219794 0.263894 0.134994 0.003146
0.038568 0.245784 -3.07647 0.289956 -0.206641 -0.934446 0.569925 0.155428
-0.372671 0.647225 -2.9861 0.11243 0.529221 -0.840968 0.61631 0.141649
-0.20368 0.967507 -2.50784 0.125889 0.716636 -0.685934 0.485428 0.5985
-0.372671 0.647225 -2.9861 0.11243 0.529221 -0.840968 0.452222 0.573319
-1.41881 0.849367 -2.84921 -0.015534 0.677389 -0.735435 0.485428 0.495308
-0.20368 0.967507 -2.50784 0.125889 0.716636 -0.685934 0.641708 0.171549
-1.81922 0.769753 -2.88629 -0.198035 0.523057 -0.828944 0.683849 0.043555
-1.41881 0.849367 -2.84921 -0.015534 0.677389 -0.735435 0.674463 0.075661
-0.425375 0.21504 -3.04428 -0.123722 -0.593707 -0.795068 0.586628 0.121426
-2.09701 0.472895 -2.91515 -0.364269 -0.26368 -0.893155 0.673183 0.012467
-2.30875 1.05327 0.508785 -0.894589 0.407605 0.183111 0.092466 0.642014
-2.53184 0.873065 -0.911446 -0.956542 0.286782 -0.05237 0.05685 0.750958
-2.62731 0.738585 0.600727 -0.920682 0.3343 0.2013 0.059195 0.628283
-0.03768 0.813577 1.74992 -0.313273 0.210395 0.926023 0.366995 0.733037
0.589167 0.650065 2.89963 -0.117069 0.839412 0.530686 0.260289 0.710601
0.589167 0.650065 2.89963 -0.117069 0.839412 0.530686 0.982967 0.080011
2.49177 0.900897 -0.0337139 0.653066 0.691916 0.307688 0.59139 0.775494
2.70083 0.59384 0.362431 0.888028 0.415418 0.196905 0.59996 0.739934
3.01513 0.756729 -0.426121 0.760796 0.576037 0.298868 0.639587 0.798029
2.88578 0.367589 -1.96583 0.563463 -0.388165 -0.72924 0.488273 0.378467
2.62069 0.805843 -2.03727 0.508744 0.34724 -0.787774 0.528351 0.374436
2.62069 0.805843 -2.03727 0.508744 0.34724 -0.787774 0.600392 0.38212
-2.74511 0.102381 0.226856 -0.780541 -0.589038 0.209082 0.900005 0.260304
-2.6232 0.328474 0.254974 -0.92703 0.048708 0.371715 0.914192 0.244764
-3.15159 0.333692 -0.507969 -0.984802 -0.167577 -0.045595 0.940373 0.309522
-2.32226 0.7738 -2.165 -0.818812 0.484054 -0.308512 0.043038 0.853895
-1.96723 0.849643 -2.73835 -0.447035 0.629627 -0.635365 0.054292 0.905634
-1.41881 0.849367 -2.84921 -0.015534 0.677389 -0.735435 0.880588 0.354698
-1.81922 0.769753 -2.88629 -0.198035 0.523057 -0.828944 0.871094 0.322912
-1.96723 0.849643 -2.73835 -0.447035 0.629627 -0.635365 0.880588 0.309256
-1.42687 1.51919 -2.00205 -0.156957 0.739067 -0.65508 0.738805 0.110282
-1.96723 0.849643 -2.73835 -0.447035 0.629627 -0.635365 0.698226 0.037732
-2.31026 0.503256 -2.77992 -0.772057 -0.0341199 -0.634602 0.76784 0.755502
-2.43795 0.539669 -2.53517 -0.909635 0.078829 -0.407819 0.78295 0.739934
-1.81922 0.769753 -2.88629 -0.198035 0.523057 -0.828944 0.78295 0.790942
-2.31026 0.503256 -2.77992 -0.772057 -0.0341199 -0.634602 0.686369 0
-1.96723 0.849643 -2.73835 -0.447035 0.629627 -0.635365 0.859053 0.31889
-1.81922 0.769753 -2.88629 -0.198035 0.523057 -0.828944 0.871094 0.309256
-2.43795 0.539669 -2.53517 -0.909635 0.078829 -0.407819 0.871094 0.359662
-2.62731 0.738585 0.600727 -0.920682 0.3343 0.2013 0.940373 0.219234
-1.83877 1.05252 1.47344 -0.374462 0.406201 0.833522 0.430666 0.86611
-2.48528 0.735079 1.38368 -0.829646 0.51146 0.223792 0.452221 0.916618
-2.30413 0.793401 1.515 -0.356426 0.842372 0.404126 0.437631 0.905014
-2.47112 0.441992 2.1321 -0.651997 0.574023 0.495315 0.391519 0.933957
-1.83877 1.05252 1.47344 -0.374462 0.406201 0.833522 0.974757 0.452801
-2.30413 0.793401 1.515 -0.356426 0.842372 0.404126 0.995764 0.421917
-0.590155 0.892223 1.72045 -0.20246 0.101077 0.974029 0.990628 0.549023
1.15121 0.638538 2.98916 -0.02768 0.565386 0.824335 0.240244 0.668751
1.28904 0.951623 2.59375 0.119755 0.824519 0.552965 0.269203 0.647246
0.665689 0.817257 2.18945 -0.397565 0.39903 0.826258 0.315684 0.687817
2.31634 0.517624 1.60935 0.56859 0.738853 0.361583 0.484469 0.5985
2.33805 0.328406 1.83559 0.834712 -0.202246 0.512162 0.464827 0.612666
2.70529 0.548213 1.11279 0.848476 0.462447 0.257241 0.354973 0.506278
2.31634 0.517624 1.60935 0.56859 0.738853 0.361583 0.324028 0.547873
2.33805 0.328406 1.83559 0.834712 -0.202246 0.512162 0.305145 0.552384
2.70529 0.548213 1.11279 0.848476 0.462447 0.257241 0.514087 0.62372
2.62734 0.284837 1.38368 0.765923 -0.536821 0.35374 0.489094 0.63877
2.33805 0.328406 1.83559 0.834712 -0.202246 0.512162 0.488273 0.673368
-2.05672 1.2103 1.19155 -0.804041 0.279458 0.524766 0.960531 0.425948
-2.48528 0.735079 1.38368 -0.829646 0.51146 0.223792 1 0.403584
-2.05672 1.2103 1.19155 -0.804041 0.279458 0.524766 0.119607 0.592253
-2.59517 1.22981 -0.64991 -0.992645 0.109409 0.051424 0.084712 0.73053
2.08592 0.821777 1.07535 0.647603 0.701804 0.29667 0.547141 0.622997
1.49175 1.55079 1.59348 0.855678 0.359325 0.372356 0.604336 0.675776
1.62863 1.24932 1.77842 0.777978 0.461959 0.425794 0.574388 0.684558
1.86869 1.31838 0.872917 0.800043 0.517411 0.303598 0.594238 0.616583
1.57173 0.661687 2.89806 0.415754 0.641438 0.644734 0.23796 0.633733
2.08592 0.821777 1.07535 0.647603 0.701804 0.29667 0.372506 0.552117
2.49177 0.900897 -0.0337139 0.653066 0.691916 0.307688 0.452222 0.495308
2.49177 0.900897 -0.0337139 0.653066 0.691916 0.307688 0.569092 0.540291
2.34788 1.19584 -0.353489 0.662282 0.726005 0.185003 0.586794 0.803878
2.85862 1.00503 -0.99416 0.670095 0.741325 -0.0364999 0.63776 0.846345
2.85862 1.00503 -0.99416 0.670095 0.741325 -0.0364999 0.590648 0.46953
2.74801 0.96364 -1.66774 0.672445 0.684286 -0.281991 0.603084 0.415229
2.1256 1.14438 -2.13957 0.607868 0.537278 -0.584643 0.569809 0.349881
1.69282 1.28908 -2.36433 0.314005 0.198798 -0.928343 0.592688 0.321187
2.1256 1.14438 -2.13957 0.607868 0.537278 -0.584643 0.637758 0.378467
1.53454 0.985976 -2.41624 0.154149 -0.339579 -0.927824 0.576427 0.298154
1.08416 1.39247 -2.42413 0.028047 0.166417 -0.985626 0.622787 0.280488
0.476221 0.834421 -2.42026 0.170049 0.342479 -0.923978 0.76784 0.917385
1.53454 0.985976 -2.41624 0.154149 -0.339579 -0.927824 0.75213 0.832547
2.62069 0.805843 -2.03727 0.508744 0.34724 -0.787774 0.76784 0.739934
-2.60161 1.09745 -1.1338 -0.987304 0.069155 -0.142918 0.069405 0.768479
-2.28931 1.1652 -1.99878 -0.73983 0.514145 -0.433851 0.075648 0.842757
-2.15584 1.62984 1.06792 -0.742119 0.554704 0.376171 0.147114 0.602221
-2.31965 1.67905 0.513363 -0.866024 0.409864 0.286325 0.139855 0.644013
-2.15584 1.62984 1.06792 -0.742119 0.554704 0.376171 0.925102 0.414851
-2.30875 1.05327 0.508785 -0.894589 0.407605 0.183111 0.9714 0.378467
-1.63387 1.1651 1.57887 -0.42848 -0.418531 0.800714 0.965966 0.471782
-1.67286 1.48284 1.76939 -0.666829 -0.0338451 0.744407 0.939953 0.478233
-0.561758 1.34441 2.24264 -0.178076 -0.49144 0.852473 0.954408 0.574906
-0.590155 0.892223 1.72045 -0.20246 0.101077 0.974029 0.856451 0.305093
-0.03768 0.813577 1.74992 -0.313273 0.210395 0.926023 0.859053 0.350096
-0.561758 1.34441 2.24264 -0.178076 -0.49144 0.852473 0.815008 0.312147
-1.63387 1.1651 1.57887 -0.42848 -0.418531 0.800714 0.859053 0.219234
0.665689 0.817257 2.18945 -0.397565 0.39903 0.826258 1 0.655635
0.093058 1.1142 2.18043 -0.180731 -0.461409 0.868557 0.974389 0.616634
-0.03768 0.813577 1.74992 -0.313273 0.210395 0.926023 0.998079 0.588103
0.093058 1.1142 2.18043 -0.180731 -0.461409 0.868557 0.825678 0.364617
1.28904 0.951623 2.59375 0.119755 0.824519 0.552965 0.540054 0.739934
2.15479 1.34508 0.291969 0.791101 0.548906 0.269845 0.603304 0.573381
-0.018744 1.21934 -2.29852 -0.051515 0.49031 -0.869991 0.656368 0.196654
-2.2884 1.56666 -1.27657 -0.650166 0.722739 -0.23426 0.113754 0.786804
-2.3955 1.66891 -0.297401 -0.812799 0.580187 -0.0517289 0.128246 0.70741
-1.17661 1.5676 2.126 -0.388501 0.217902 0.895291 0.934589 0.528121
-0.577398 1.48502 2.27686 -0.105411 0.265023 0.958434 0.942764 0.575691
-1.44793 1.65168 1.88446 -0.418317 0.718589 0.555498 0.926531 0.499161
2.34788 1.19584 -0.353489 0.662282 0.726005 0.185003 0.601408 0.520768
1.71818 1.78823 0.318966 0.804041 0.589557 0.0768151 0.645271 0.582464
1.62863 1.24932 1.77842 0.777978 0.461959 0.425794 0.733156 0.740154
1.31309 1.41315 1.9099 0.465285 0.541215 0.7004 0.737357 0.766549
1.28904 0.951623 2.59375 0.119755 0.824519 0.552965 0.689845 0.799986
0.803827 1.06043 2.359 -0.211982 0.206153 0.95526 0.727506 0.82308
0.493952 1.36648 2.1997 0.063021 0.342998 0.937193 0.75213 0.835919
0.493952 1.36648 2.1997 0.063021 0.342998 0.937193 0.95402 0.645714
1.28904 0.951623 2.59375 0.119755 0.824519 0.552965 0.99082 0.716473
0.803827 1.06043 2.359 -0.211982 0.206153 0.95526 0.980404 0.673161
-0.751959 1.65902 -2.02415 -0.108829 0.469375 -0.876247 0.721728 0.163517
-0.944433 1.85929 -1.81708 -0.382488 0.547594 -0.744194 0.747538 0.159633
-1.96723 0.849643 -2.73835 -0.447035 0.629627 -0.635365 0.900005 0.219234
-1.8855 1.67735 -1.61127 -0.391552 0.827204 -0.402936 0.900005 0.309256
-1.42687 1.51919 -2.00205 -0.156957 0.739067 -0.65508 0.859053 0.282843
-1.8855 1.67735 -1.61127 -0.391552 0.827204 -0.402936 0.775697 0.088125
-1.8855 1.67735 -1.61127 -0.391552 0.827204 -0.402936 0.131674 0.820423
-2.00141 2.07997 -0.167664 -0.837703 0.543321 -0.0550249 0.173586 0.705067
1.49175 1.55079 1.59348 0.855678 0.359325 0.372356 0.75213 0.739934
1.31309 1.41315 1.9099 0.465285 0.541215 0.7004 0.590076 0.696508
1.39393 2.12619 1.61918 0.752434 0.277291 0.5974 0.650922 0.689644
1.64622 1.9922 -2.13454 0.220069 0.748344 -0.62569 0.648828 0.346324
1.97263 2.04947 -1.82643 0.540757 0.804163 -0.246651 0.646071 0.375788
0.780451 1.80959 -2.32277 -0.130985 0.596545 -0.791803 0.666268 0.275137
0.051706 1.99861 -1.79869 0.137577 0.524583 -0.840144 0.71858 0.236425
0.253092 1.90607 -1.94236 -0.124271 0.871395 -0.474502 0.701291 0.245674
1.64622 1.9922 -2.13454 0.220069 0.748344 -0.62569 0.821085 0.057958
0.780451 1.80959 -2.32277 -0.130985 0.596545 -0.791803 0.869478 0.002426
0.253092 1.90607 -1.94236 -0.124271 0.871395 -0.474502 0.922862 0.000699
0.515329 1.81828 1.99477 0.099033 0.383496 0.91818 0.915864 0.63945
0.071238 2.25401 1.91363 -0.163579 0.394787 0.90408 0.878688 0.606516
1.06768 2.21601 1.73752 0.303812 0.357524 0.883084 0.882858 0.667291
2.09765 1.46157 -0.649063 0.701346 0.703085 0.117222 0.632757 0.501871
1.92208 1.62438 -0.59407 0.593738 0.78753 0.165105 0.647514 0.508647
1.71818 1.78823 0.318966 0.804041 0.589557 0.0768151 0.942807 0.219234
1.92208 1.62438 -0.59407 0.593738 0.78753 0.165105 0.88392 0.170459
1.36465 1.9387 -0.830597 0.297617 0.95349 -0.0470289 0.906408 0.12777
2.01408 2.04888 -1.50832 0.535813 0.842494 0.0550861 0.828516 0.116687
2.01408 2.04888 -1.50832 0.535813 0.842494 0.0550861 0.698159 0.446786
1.36465 1.9387 -0.830597 0.297617 0.95349 -0.0470289 0.686793 0.493587
1.40765 2.01476 -0.177124 0.801813 0.549303 -0.235145 0.678673 0.546658
2.74801 0.96364 -1.66774 0.672445 0.684286 -0.281991 0.639587 0.901817
2.09765 1.46157 -0.649063 0.701346 0.703085 0.117222 0.572952 0.83201
2.12151 1.43664 -1.67228 0.867885 0.477462 -0.136998 0.65133 0.421353
2.12151 1.43664 -1.67228 0.867885 0.477462 -0.136998 0.5916 0.913221
1.97263 2.04947 -1.82643 0.540757 0.804163 -0.246651 0.705435 0.421641
-1.44793 1.65168 1.88446 -0.418317 0.718589 0.555498 0.493974 0.880913
-2.31965 1.67905 0.513363 -0.866024 0.409864 0.286325 0.553016 1
-2.15584 1.62984 1.06792 -0.742119 0.554704 0.376171 0.520667 0.965006
-1.38904 1.80548 1.29265 -0.449446 0.757683 0.473128 0.539287 0.901776
-0.866079 1.76808 1.70706 -0.29545 0.786431 0.542405 0.532623 0.847942
-1.90043 1.77759 -1.06486 -0.496719 0.826075 -0.266152 0.675573 0.813446
-2.2884 1.56666 -1.27657 -0.650166 0.722739 -0.23426 0.639587 0.802824
-2.3955 1.66891 -0.297401 -0.812799 0.580187 -0.0517289 0.689845 0.739934
-1.91677 1.97736 -0.682644 -0.763207 0.530595 -0.368694 0.163153 0.74708
-1.17661 1.5676 2.126 -0.388501 0.217902 0.895291 0.488273 0.852054
-0.258139 1.80326 1.92354 -0.186529 0.558184 0.808466 0.544087 0.796504
0.515329 1.81828 1.99477 0.099033 0.383496 0.91818 0.572952 0.739934
-0.577398 1.48502 2.27686 -0.105411 0.265023 0.958434 0.503333 0.804423
-0.866079 1.76808 1.70706 -0.29545 0.786431 0.542405 0.917221 0.531766
-0.258139 1.80326 1.92354 -0.186529 0.558184 0.808466 0.915775 0.583104
1.31309 1.41315 1.9099 0.465285 0.541215 0.7004 0.950567 0.689564
1.39393 2.12619 1.61918 0.752434 0.277291 0.5974 0.890506 0.684343
1.39311 3.31007 0.731565 0.802484 0.555864 0.216803 0.762568 0.645732
1.49035 2.31527 0.36618 0.962371 0.233985 -0.137913 0.689842 0.596194
-1.45849 1.93546 -1.36814 -0.535539 0.651967 -0.53676 0.684987 0.857016
-1.8855 1.67735 -1.61127 -0.391552 0.827204 -0.402936 0.64474 0.845763
-0.944433 1.85929 -1.81708 -0.382488 0.547594 -0.744194 0.689845 0.911765
0.801203 3.30712 1.34564 0.102176 0.688284 0.718192 0.790514 0.634768
1.19271 3.29318 1.11781 0.607898 0.590838 0.530381 0.756786 0.674412
0.801203 3.30712 1.34564 0.102176 0.688284 0.718192 0.759979 0.690212
1.40583 3.31929 0.476213 0.906949 0.392315 -0.153325 0.768306 0.626012
1.23049 2.33037 -0.242668 0.946837 0.230567 -0.224281 0.707988 0.54729
1.23219 1.96119 -0.975101 0.708853 0.619251 -0.337657 0.693814 0.481965
1.23219 1.96119 -0.975101 0.708853 0.619251 -0.337657 0.907586 0.111884
1.40765 2.01476 -0.177124 0.801813 0.549303 -0.235145 0.936422 0.172062
-0.71665 2.76436 -1.49277 -0.242042 0.650929 -0.719504 0.730974 0.923405
-0.944433 1.85929 -1.81708 -0.382488 0.547594 -0.744194 0.689845 0.854216
-1.45849 1.93546 -1.36814 -0.535539 0.651967 -0.53676 0.730974 0.835919
-1.90043 1.77759 -1.06486 -0.496719 0.826075 -0.266152 0.144494 0.777014
-1.95997 1.97837 0.477772 -0.70275 0.599109 0.383618 0.572952 0.975694
-1.39113 2.53673 0.801071 -0.582141 0.524491 0.621265 0.84997 0.458221
-1.38904 1.80548 1.29265 -0.449446 0.757683 0.473128 0.912213 0.477846
-1.69976 2.74058 0.250393 -0.702445 0.653035 0.282968 0.831049 0.413549
-1.95997 1.97837 0.477772 -0.70275 0.599109 0.383618 0.89477 0.403544
-1.69976 2.74058 0.250393 -0.702445 0.653035 0.282968 0.23796 0.679257
-1.95997 1.97837 0.477772 -0.70275 0.599109 0.383618 0.17386 0.653848
-1.66933 2.65689 -0.657097 -0.738853 0.571947 -0.356243 0.22316 0.751778
-1.45849 1.93546 -1.36814 -0.535539 0.651967 -0.53676 0.167591 0.808946
-1.72158 2.77842 -0.177574 -0.679525 0.729209 -0.0803249 0.235709 0.71319
-1.3947 2.90264 0.0820434 -0.268441 0.962981 0.0242011 0.958366 0.765053
-1.72158 2.77842 -0.177574 -0.679525 0.729209 -0.0803249 0.952404 0.731238
-1.69976 2.74058 0.250393 -0.702445 0.653035 0.282968 0.983364 0.748815
-1.35376 2.81409 0.526066 -0.450728 0.784173 0.426466 0.990052 0.784429
0.174356 3.02316 1.33506 -0.374126 0.58562 0.719016 0.81321 0.590441
1.97263 2.04947 -1.82643 0.540757 0.804163 -0.246651 0.815008 0.094144
0.710459 1.77571 -1.54702 0.255898 0.912107 -0.320231 0.913853 0.048824
0.051706 1.99861 -1.79869 0.137577 0.524583 -0.840144 0.942807 0
1.02229 1.89907 -1.31187 0.513718 0.41496 -0.750908 0.68287 0.308723
1.40309 1.83655 -1.1603 -0.122837 0.973601 -0.192267 0.666426 0.335731
0.710459 1.77571 -1.54702 0.255898 0.912107 -0.320231 0.681798 0.278843
1.39311 3.31007 0.731565 0.802484 0.555864 0.216803 0.897223 0.992052
1.26101 3.47174 0.319539 0.584704 0.79693 -0.151616 0.871001 0.967578
1.19271 3.29318 1.11781 0.607898 0.590838 0.530381 0.933511 0.992109
1.26101 3.47174 0.319539 0.584704 0.79693 -0.151616 0.786049 0.616174
0.994867 3.47752 0.990126 0.228706 0.931089 0.284097 0.930679 0.973703
0.801203 3.30712 1.34564 0.102176 0.688284 0.718192 0.965267 0.972525
0.084787 3.47577 0.71958 -0.239631 0.950407 0.198096 0.945613 0.897873
0.124537 2.76634 -1.47301 0.167913 0.649678 -0.741417 0.776475 0.273711
0.973001 2.67895 -1.12675 0.474105 0.417859 -0.774957 0.743679 0.335881
1.09893 2.53801 -1.09177 0.754448 0.254494 -0.604999 0.729425 0.340252
1.1594 3.24739 -0.459632 0.726646 0.549638 -0.412122 0.786049 0.549703
1.09893 2.53801 -1.09177 0.754448 0.254494 -0.604999 0.744039 0.484504
0.973001 2.67895 -1.12675 0.474105 0.417859 -0.774957 0.758055 0.484059
0.69842 3.33582 -0.546451 0.00589 0.835109 -0.550035 0.812368 0.347476
0.740702 3.03888 -0.871429 0.181738 0.761071 -0.622669 0.783311 0.335556
0.442682 3.13438 -0.684291 -0.240486 0.842463 -0.48204 0.805461 0.320037
1.1594 3.24739 -0.459632 0.726646 0.549638 -0.412122 0.789667 0.378467
1.02732 3.47693 -0.0856955 0.235359 0.946165 -0.222114 0.850018 0.935462
1.1594 3.24739 -0.459632 0.726646 0.549638 -0.412122 0.818585 0.930041
0.69842 3.33582 -0.546451 0.00589 0.835109 -0.550035 0.829376 0.893852
0.402582 2.49221 -1.49331 0.39668 0.359355 -0.844661 0.745719 0.283453
0.124537 2.76634 -1.47301 0.167913 0.649678 -0.741417 0.786049 0.815441
0.026041 2.92112 -1.17081 -0.037416 0.954344 -0.296304 0.811301 0.820304
0.740702 3.03888 -0.871429 0.181738 0.761071 -0.622669 0.805364 0.883556
-0.533224 2.89972 -1.30902 -0.076449 0.943785 -0.321574 0.822658 0.774688
-0.71665 2.76436 -1.49277 -0.242042 0.650929 -0.719504 0.80904 0.21301
-0.533224 2.89972 -1.30902 -0.076449 0.943785 -0.321574 0.815008 0.23345
-1.45849 1.93546 -1.36814 -0.535539 0.651967 -0.53676 0.486718 0.785814
-1.23763 2.73984 -1.17842 -0.507065 0.691855 -0.513993 0.452222 0.724969
-0.71665 2.76436 -1.49277 -0.242042 0.650929 -0.719504 0.486718 0.699889
-1.23763 2.73984 -1.17842 -0.507065 0.691855 -0.513993 0.23796 0.800631
-1.23763 2.73984 -1.17842 -0.507065 0.691855 -0.513993 0.86017 0.72824
-1.66933 2.65689 -0.657097 -0.738853 0.571947 -0.356243 0.915656 0.716473
-1.05459 2.97383 0.303932 -0.315317 0.948485 -0.0296949 0.961321 0.798207
-0.459723 3.18802 0.678605 -0.451338 0.792901 0.409314 0.965017 0.856014
0.174356 3.02316 1.33506 -0.374126 0.58562 0.719016 0.990052 0.92589
-1.35376 2.81409 0.526066 -0.450728 0.784173 0.426466 0.82618 0.449546
0.216867 3.34328 1.12817 -0.311624 0.759606 0.570818 0.786049 0.585199
1.40309 1.83655 -1.1603 -0.122837 0.973601 -0.192267 0.88773 0.108352
1.02229 1.89907 -1.31187 0.513718 0.41496 -0.750908 0.904586 0.079662
1.02229 1.89907 -1.31187 0.513718 0.41496 -0.750908 0.69943 0.452995
0.216867 3.34328 1.12817 -0.311624 0.759606 0.570818 0.971425 0.922323
-0.459723 3.18802 0.678605 -0.451338 0.792901 0.409314 0.796768 0.518672
0.370691 3.45886 -0.216445 -0.231941 0.912229 -0.337657 0.865642 0.88312
-0.230246 3.40591 0.290273 -0.399121 0.902921 -0.159368 0.926377 0.85871
-0.71665 2.76436 -1.49277 -0.242042 0.650929 -0.719504 0.816855 0.754037
-0.230246 3.40591 0.290273 -0.399121 0.902921 -0.159368 0.777706 0.86565
-0.47875 3.16908 0.18337 -0.396832 0.736106 -0.548296 0.76784 0.838094
-1.05459 2.97383 0.303932 -0.315317 0.948485 -0.0296949 0.777706 0.790942
0.370691 3.45886 -0.216445 -0.231941 0.912229 -0.337657 0.452222 0.816711
-0.47875 3.16908 0.18337 -0.396832 0.736106 -0.548296 0.486702 0.871504
-0.230246 3.40591 0.290273 -0.399121 0.902921 -0.159368 0.459385 0.869557
-0.342306 2.90821 -0.381443 -0.230689 0.943907 -0.236122 0.883767 0.823472
-0.47875 3.16908 0.18337 -0.396832 0.736106 -0.548296 0.929289 0.835893
0.442682 3.13438 -0.684291 -0.240486 0.842463 -0.48204 0.830092 0.869477
0.442682 3.13438 -0.684291 -0.240486 0.842463 -0.48204 0.486702 0.785814
3 0 1 2 
3 1 3 2 
3 4 2 3 
3 5 6 7 
3 7 6 8 
3 0 7 1 
3 1 7 8 
3 0 9 7 
3 7 9 5 
3 10 11 12 
3 10 12 13 
3 11 14 12 
3 15 16 17 
3 16 18 17 
3 19 16 20 
3 21 22 20 
3 19 20 22 
3 6 23 24 
3 25 24 26 
3 23 26 24 
3 3 16 15 
3 27 3 15 
3 1 16 3 
3 20 16 1 
3 9 14 5 
3 6 5 23 
3 28 23 11 
3 10 28 11 
3 14 11 5 
3 11 23 5 
3 29 30 31 
3 32 0 33 
3 4 0 2 
3 9 32 14 
3 0 32 9 
3 34 35 31 
3 31 35 29 
3 36 37 38 
3 38 37 39 
3 23 40 26 
3 23 28 40 
3 28 41 40 
3 20 1 8 
3 42 21 20 
3 8 6 20 
3 43 42 6 
3 42 20 6 
3 44 45 43 
3 45 46 42 
3 21 42 47 
3 48 49 50 
3 43 45 42 
3 24 43 6 
3 13 12 14 
3 4 33 0 
3 35 51 29 
3 28 10 41 
3 13 52 10 
3 10 52 41 
3 53 54 55 
3 44 46 45 
3 56 48 50 
3 57 48 58 
3 56 58 48 
3 56 59 58 
3 60 61 58 
3 59 62 58 
3 63 64 65 
3 44 43 24 
3 64 66 65 
3 67 24 25 
3 68 69 70 
3 69 71 70 
3 39 37 72 
3 73 74 75 
3 36 38 75 
3 36 75 74 
3 70 76 68 
3 19 18 16 
3 18 77 17 
3 78 79 80 
3 81 82 83 
3 81 73 82 
3 84 82 73 
3 21 85 22 
3 86 87 65 
3 65 87 63 
3 88 89 90 
3 63 87 91 
3 86 92 87 
3 92 93 87 
3 86 94 92 
3 94 95 92 
3 53 96 97 
3 55 98 53 
3 98 31 30 
3 99 68 100 
3 68 76 100 
3 81 101 74 
3 81 74 73 
3 102 103 104 
3 58 62 60 
3 105 64 106 
3 63 106 64 
3 56 50 107 
3 108 109 110 
3 111 112 54 
3 97 111 54 
3 113 114 115 
3 116 93 117 
3 97 54 53 
3 118 119 120 
3 95 121 92 
3 122 123 124 
3 109 125 110 
3 126 127 128 
3 128 127 129 
3 71 128 129 
3 130 131 132 
3 71 69 128 
3 133 134 135 
3 133 135 100 
3 135 99 100 
3 68 99 69 
3 80 79 136 
3 79 137 136 
3 138 139 140 
3 61 141 142 
3 143 142 141 
3 61 60 141 
3 91 93 116 
3 130 144 145 
3 53 98 96 
3 96 98 146 
3 98 30 146 
3 97 96 147 
3 148 149 150 
3 151 149 148 
3 133 152 134 
3 153 134 152 
3 138 154 153 
3 152 139 153 
3 153 139 138 
3 141 60 155 
3 102 104 156 
3 156 104 157 
3 59 158 62 
3 56 159 59 
3 160 106 161 
3 162 159 107 
3 161 106 163 
3 164 163 63 
3 159 56 107 
3 165 166 167 
3 97 168 111 
3 111 169 112 
3 169 111 168 
3 97 147 168 
3 170 171 147 
3 96 170 147 
3 144 172 173 
3 132 174 130 
3 175 174 176 
3 177 178 179 
3 180 177 179 
3 130 174 144 
3 175 144 174 
3 181 182 183 
3 179 178 184 
3 148 150 185 
3 186 151 155 
3 148 155 151 
3 116 187 91 
3 91 187 63 
3 188 168 189 
3 189 168 147 
3 190 176 191 
3 175 176 190 
3 192 175 190 
3 193 186 155 
3 194 186 193 
3 149 151 194 
3 151 186 194 
3 195 196 197 
3 197 196 198 
3 199 198 196 
3 200 191 182 
3 201 202 181 
3 181 202 182 
3 200 182 202 
3 191 176 182 
3 159 158 59 
3 116 203 187 
3 116 204 203 
3 205 206 207 
3 208 204 116 
3 169 209 112 
3 147 171 189 
3 210 189 171 
3 192 172 175 
3 144 175 172 
3 195 211 196 
3 212 149 213 
3 161 214 160 
3 160 214 215 
3 164 161 163 
3 216 214 164 
3 214 161 164 
3 217 187 203 
3 164 63 216 
3 63 187 216 
3 217 218 187 
3 218 216 187 
3 219 220 221 
3 169 168 188 
3 169 188 209 
3 200 222 191 
3 223 222 224 
3 194 225 226 
3 227 228 229 
3 230 229 228 
3 231 226 225 
3 193 225 194 
3 194 232 233 
3 234 235 157 
3 162 236 159 
3 156 157 235 
3 235 234 237 
3 231 236 238 
3 225 236 231 
3 162 238 236 
3 239 240 241 
3 240 239 242 
3 243 242 239 
3 244 245 246 
3 210 247 189 
3 239 248 243 
3 249 243 248 
3 250 249 251 
3 249 248 251 
3 252 253 223 
3 253 222 223 
3 254 224 200 
3 254 255 224 
3 222 200 224 
3 213 149 256 
3 256 149 257 
3 194 257 149 
3 244 258 259 
3 260 259 258 
3 261 224 255 
3 261 223 224 
3 256 262 213 
3 263 213 262 
3 256 257 264 
3 194 233 257 
3 257 233 265 
3 266 265 233 
3 229 267 268 
3 269 270 271 
3 245 244 259 
3 272 189 247 
3 273 240 242 
3 274 275 252 
3 276 275 274 
3 276 277 275 
3 278 210 279 
3 247 210 280 
3 171 279 210 
3 272 247 281 
3 280 210 282 
3 278 282 210 
3 283 284 285 
3 286 283 285 
3 223 287 274 
3 252 223 274 
3 287 223 261 
3 265 264 257 
3 288 221 289 
3 288 219 221 
3 290 289 221 
3 291 292 293 
3 294 295 296 
3 264 297 256 
3 298 296 295 
3 299 296 298 
3 300 299 298 
3 264 265 297 
3 301 302 303 
3 304 305 306 
3 307 308 309 
3 310 302 308 
3 310 308 307 
3 311 312 313 
3 301 308 302 
3 217 301 314 
3 217 314 293 
3 301 303 314 
3 291 293 314 
3 291 314 303 
3 315 316 317 
3 316 315 318 
3 319 320 301 
3 217 203 301 
3 319 301 203 
3 204 319 203 
3 321 322 323 
3 281 247 280 
3 281 280 324 
3 284 325 326 
3 327 286 328 
3 329 328 286 
3 330 274 287 
3 330 276 274 
3 287 261 331 
3 311 295 312 
3 267 229 332 
3 288 332 230 
3 288 289 332 
3 230 332 229 
3 267 332 333 
3 297 265 304 
3 265 266 304 
3 334 305 266 
3 305 304 266 
3 300 328 335 
3 331 336 287 
3 295 311 298 
3 298 311 337 
3 286 327 283 
3 313 337 311 
3 300 298 337 
3 335 299 300 
3 338 300 337 
3 325 284 318 
3 325 318 339 
3 327 328 300 
3 327 300 338 
3 340 341 342 
3 343 344 345 
3 283 327 346 
3 284 283 318 
3 283 346 318 
3 347 346 327 
3 317 316 348 
3 316 346 348 
3 347 348 346 
3 318 346 316 
3 349 344 343 
3 313 348 337 
