ply
format ascii 1.0
comment TextureFile rock_texture.jpg
element vertex 126
property float x
property float y
property float z
property float nx
property float ny
property float nz
property float s
property float t
element face 142
property list uchar uint vertex_indices
end_header
0.161145 -0.045231 -0.000000 -0.000153 -0.000153 -0.999969 0.247007 0.265693
0.314583 0.220533 0.001022 0.104831 0.171331 -0.979614 0.309078 0.314691
0.426908 0.108208 0.000000 0.190802 0.148930 -0.970244 0.270764 0.333360
0.161145 0.261646 0.000000 0.043001 0.199286 -0.978973 0.330718 0.282906
-0.104618 -0.198669 0.000344 -0.204596 -0.484848 -0.850307 0.223259 0.198023
-0.145733 -0.045231 0.000116 -0.276589 0.012391 -0.960875 0.267909 0.197495
-0.039332 0.302006 0.000000 -0.119053 0.198218 -0.972869 0.355381 0.240618
0.107427 -0.245708 0.000463 -0.088900 -0.159032 -0.983245 0.195989 0.242507
0.314583 -0.310995 -0.000000 0.083102 -0.193732 -0.977508 0.164061 0.284884
0.457564 0.034195 0.000000 0.225318 0.026368 -0.973907 0.248486 0.336021
-0.350209 -0.197121 0.109296 -0.324931 -0.163488 -0.931486 0.242976 0.142763
0.508380 -0.245708 0.029946 0.357280 -0.194311 -0.913541 0.169378 0.331402
0.868768 0.178022 0.183100 0.678762 0.003601 -0.734336 0.264034 0.434176
0.820427 0.594433 0.193425 0.711142 0.443159 -0.545762 0.381160 0.446718
-0.184540 0.879948 0.238654 0.061922 0.901059 -0.429212 0.528552 0.239081
-0.301861 0.651642 0.157754 -0.281777 0.351695 -0.892666 0.472356 0.200774
-0.350209 -0.197121 0.109296 -0.324931 -0.163488 -0.931486 0.543069 0.537313
-0.104618 -0.198669 0.000344 -0.204596 -0.484848 -0.850307 0.528356 0.489322
0.107427 -0.245708 0.000463 -0.088900 -0.159032 -0.983245 0.543069 0.446718
0.739884 -0.327726 0.190542 0.379315 -0.160985 -0.911130 0.135027 0.377114
0.828743 0.380207 0.147368 0.594897 0.102115 -0.797266 0.321070 0.436875
-0.175709 -0.754059 0.209659 -0.509445 -0.639515 -0.575701 0.081535 0.149594
0.033145 -0.888466 0.190035 -0.258217 -0.841395 -0.474715 0.030184 0.188607
0.224895 -0.913710 0.190035 0.060610 -0.890927 -0.450056 0.010239 0.229803
0.935728 -0.045231 0.279096 0.868374 0.063021 -0.491836 0.200838 0.435856
0.705050 0.712244 0.220084 0.329722 0.681478 -0.653310 0.421784 0.427498
-0.999198 0.164299 0.238654 -0.626606 -0.154454 -0.763848 0.388814 0.017898
1.047176 -0.434530 0.276558 0.639760 -0.056459 -0.766472 0.086993 0.438805
-0.184540 0.879948 0.238654 0.061922 0.901059 -0.429212 0.685095 0.654003
0.553308 0.792885 0.323360 0.202216 0.970244 0.133061 0.658092 0.504662
0.705050 0.712244 0.220084 0.329722 0.681478 -0.653310 0.685095 0.480092
0.618995 -0.793991 0.253483 0.263497 -0.690909 -0.673177 0.017554 0.323651
0.828743 0.380207 0.147368 0.594897 0.102115 -0.797266 0.433424 0.719691
0.946971 0.175608 0.335828 0.985626 0.142247 -0.091006 0.388776 0.661049
0.868768 0.178022 0.183100 0.678762 0.003601 -0.734336 0.432740 0.672029
0.820427 0.594433 0.193425 0.711142 0.443159 -0.545762 0.410134 0.765054
-0.425624 0.868629 0.301811 -0.322855 0.690451 -0.647298 0.543372 0.184424
0.981701 -0.785492 0.458239 0.693014 -0.720237 -0.030732 0.000000 0.403285
0.935728 -0.045231 0.279096 0.868374 0.063021 -0.491836 0.415809 0.615952
-1.080425 0.512241 0.464669 -0.885647 0.456862 -0.082949 0.494589 0.017767
-0.999198 0.164299 0.238654 -0.626606 -0.154454 -0.763848 0.243600 0.514078
-0.175709 -0.754059 0.209659 -0.509445 -0.639515 -0.575701 0.240965 0.794101
-0.798673 -0.193213 0.417708 -0.801935 -0.594867 -0.054933 0.190728 0.600385
1.047176 -0.434530 0.276558 0.639760 -0.056459 -0.766472 0.433424 0.524207
1.100253 -0.493168 0.360495 0.968169 -0.182165 -0.171453 0.411900 0.505086
-1.100253 0.258289 0.339541 -0.967284 -0.061525 -0.246040 0.423715 0.000000
-1.100253 0.258289 0.339541 -0.967284 -0.061525 -0.246040 0.216531 0.481644
-0.405890 -0.612265 0.472711 -0.664388 -0.741722 0.091464 0.170048 0.730575
0.033145 -0.888466 0.190035 -0.258217 -0.841395 -0.474715 0.243601 0.850735
0.224895 -0.913710 0.190035 0.060610 -0.890927 -0.450056 0.240792 0.888142
0.383094 -0.848640 0.405910 0.063265 -0.966033 0.250465 0.177520 0.904545
0.618995 -0.793991 0.253483 0.263497 -0.690909 -0.673177 0.216878 0.939247
0.981701 -0.785492 0.458239 0.693014 -0.720237 -0.030732 0.153789 1.000000
-0.030400 0.670469 0.519390 0.181707 0.759239 0.624897 0.601225 0.637998
-0.425624 0.868629 0.301811 -0.322855 0.690451 -0.647298 0.667487 0.705754
-0.438480 0.913712 0.435572 -0.103488 0.978332 0.179144 0.630887 0.703803
-1.080425 0.512241 0.464669 -0.885647 0.456862 -0.082949 0.614879 0.874734
1.100253 -0.493168 0.360495 0.968169 -0.182165 -0.171453 0.069363 0.446718
0.876766 0.146519 0.871778 0.756676 0.339702 0.558550 0.243601 0.641662
0.705050 0.712244 0.220084 0.329722 0.681478 -0.653310 0.399552 0.797545
0.751525 0.710466 0.336285 0.640919 0.729728 0.238044 0.366404 0.790096
0.751525 0.710466 0.336285 0.640919 0.729728 0.238044 0.652294 0.469741
-0.701361 0.735077 0.654266 -0.336070 0.655904 0.675863 0.565856 0.773882
-1.020562 0.465425 0.572283 -0.702109 0.088809 0.706473 0.583471 0.865517
-1.080425 0.512241 0.464669 -0.885647 0.456862 -0.082949 0.180588 0.446718
-1.020562 0.465425 0.572283 -0.702109 0.088809 0.706473 0.149451 0.463213
-0.209289 -0.686840 0.679080 -0.442305 -0.821345 0.360149 0.109100 0.774346
-0.239810 -0.446184 1.052504 -0.468184 -0.340190 0.815485 0.003968 0.730430
0.671373 -0.841282 0.496125 0.076662 -0.972533 0.219703 0.147810 0.953356
0.759019 0.495346 0.530648 0.700278 0.540513 0.466231 0.323243 0.736565
-0.438480 0.913712 0.435572 -0.103488 0.978332 0.179144 1.000000 0.349528
-0.701361 0.735077 0.654266 -0.336070 0.655904 0.675863 0.937386 0.403317
-0.321225 0.714256 0.626494 0.188116 0.607196 0.771935 0.944216 0.316395
-0.778188 -0.150784 0.590886 -0.744835 -0.394147 0.538347 0.141566 0.596280
-0.389817 -0.363329 0.847816 -0.774804 -0.297189 0.557939 0.063738 0.693614
-0.025754 -0.770565 0.625706 -0.140324 -0.914365 0.379711 0.121542 0.819362
0.342689 -0.718676 0.632444 0.081118 -0.800409 0.593921 0.114092 0.876415
0.906335 -0.740925 0.590412 0.469436 -0.558611 0.683767 0.117600 0.979085
0.981701 -0.785492 0.458239 0.693014 -0.720237 -0.030732 0.402292 0.446718
0.906335 -0.740925 0.590412 0.469436 -0.558611 0.683767 0.365254 0.457103
0.759019 0.495346 0.530648 0.700278 0.540513 0.466231 0.919283 0.065441
0.775663 0.119429 0.956163 0.413862 0.191321 0.889981 0.806350 0.049080
0.876766 0.146519 0.871778 0.756676 0.339702 0.558550 0.818799 0.027335
0.751525 0.710466 0.336285 0.640919 0.729728 0.238044 0.983012 0.073994
0.553308 0.792885 0.323360 0.202216 0.970244 0.133061 1.000000 0.121333
0.536685 0.480412 0.706681 0.156346 0.705100 0.691610 0.904576 0.114462
0.536685 0.480412 0.706681 0.156346 0.705100 0.691610 0.543372 0.533264
-0.030400 0.670469 0.519390 0.181707 0.759239 0.624897 0.943332 0.249792
0.933571 -0.337236 0.720127 0.652120 -0.239387 0.719291 0.308486 0.538213
0.933571 -0.337236 0.720127 0.652120 -0.239387 0.719291 0.688295 0.003155
0.775663 0.119429 0.956163 0.413862 0.191321 0.889981 0.514254 0.446718
0.759019 0.495346 0.530648 0.700278 0.540513 0.466231 0.514254 0.572618
0.652211 0.238287 0.934741 0.205939 0.568621 0.796381 0.488949 0.474981
-1.020562 0.465425 0.572283 -0.702109 0.088809 0.706473 0.853415 0.469741
-0.797989 0.430428 0.678742 -0.336039 0.054537 0.940245 0.848631 0.417401
-0.778188 -0.150784 0.590886 -0.744835 -0.394147 0.538347 0.688444 0.398719
-0.437055 -0.157845 0.786090 -0.472396 0.143925 0.869533 0.693511 0.319458
-0.389817 -0.363329 0.847816 -0.774804 -0.297189 0.557939 0.636342 0.303033
0.034796 -0.516768 1.052504 0.168920 -0.436384 0.883724 0.000000 0.789065
0.655370 -0.095387 0.956163 0.235694 -0.258461 0.936796 0.742443 0.071013
0.652211 0.238287 0.934741 0.205939 0.568621 0.796381 0.836076 0.080376
0.034797 0.426306 0.735833 0.020569 0.549791 0.835017 0.872887 0.227200
-0.229588 0.292923 0.792566 -0.135044 0.268990 0.953612 0.826053 0.283627
-0.239810 -0.446184 1.052504 -0.468184 -0.340190 0.815485 0.613939 0.265311
0.906335 -0.740925 0.590412 0.469436 -0.558611 0.683767 0.577075 0.000000
0.628987 -0.339113 0.785743 0.324747 -0.406476 0.853969 0.676782 0.072022
0.057370 0.134512 0.910304 -0.133396 0.307413 0.942167 0.788586 0.213401
0.652211 0.238287 0.934741 0.205939 0.568621 0.796381 0.528356 0.446718
0.057370 0.134512 0.910304 -0.133396 0.307413 0.942167 0.528356 0.582100
0.378139 0.171764 0.971973 -0.130100 0.516068 0.846583 0.514254 0.510071
-0.186092 -0.245708 1.045072 -0.253792 0.351604 0.901059 0.671860 0.258229
0.034796 -0.516768 1.052504 0.168920 -0.436384 0.883724 0.602947 0.200964
0.342689 -0.718676 0.632444 0.081118 -0.800409 0.593921 0.564519 0.128658
0.264919 -0.432522 0.927796 0.365520 -0.308817 0.878048 0.636280 0.151571
0.671373 -0.841282 0.496125 0.076662 -0.972533 0.219703 0.543372 0.051631
0.378139 0.171764 0.971973 -0.130100 0.516068 0.846583 0.808013 0.140849
-0.018598 0.058544 0.910304 -0.210242 0.136509 0.968047 0.764921 0.228772
-0.437055 -0.157845 0.786090 -0.472396 0.143925 0.869533 0.488949 0.544154
-0.186092 -0.245708 1.045072 -0.253792 0.351604 0.901059 0.433424 0.481621
-0.135276 -0.124657 0.952148 -0.282723 0.667135 0.689169 0.468282 0.468371
0.361621 0.008488 0.964893 -0.069704 -0.046175 0.996490 0.761965 0.140506
-0.046404 -0.045231 0.914569 -0.203681 0.326853 0.922849 0.734931 0.232434
-0.046404 -0.045231 0.914569 -0.203681 0.326853 0.922849 0.488949 0.446718
0.161145 -0.252779 0.962154 0.384594 0.144871 0.911618 0.682568 0.179540
0.161145 -0.045231 0.929986 -0.051943 0.084750 0.995025 0.741240 0.185050
-0.135276 -0.124657 0.952148 -0.282723 0.667135 0.689169 0.709152 0.250391
3 0 1 2
3 0 3 1
3 0 4 5
3 3 0 6
3 6 0 5
3 4 0 7
3 0 8 7
3 0 9 8
3 5 4 10
3 8 9 11
3 2 12 9
3 2 1 12
3 1 3 13
3 3 6 14
3 6 5 15
3 15 5 10
3 16 17 18
3 19 11 12
3 9 12 11
3 12 1 20
3 3 14 13
3 6 15 14
3 7 21 10
3 21 7 22
3 7 8 22
3 22 8 23
3 8 11 23
3 23 11 19
3 12 24 19
3 20 1 13
3 13 14 25
3 15 10 26
3 23 19 27
3 19 24 27
3 28 29 30
3 14 15 26
3 10 21 26
3 23 27 31
3 32 33 34
3 32 35 33
3 14 26 36
3 31 27 37
3 34 33 38
3 36 26 39
3 40 41 42
3 43 38 44
3 26 45 39
3 40 42 46
3 41 47 42
3 41 48 47
3 49 50 48
3 49 51 50
3 50 51 52
3 28 53 29
3 28 54 55
3 55 54 56
3 27 57 37
3 44 38 58
3 35 59 60
3 30 29 61
3 53 28 55
3 56 62 55
3 56 63 62
3 64 46 65
3 47 66 67
3 47 48 66
3 50 52 68
3 38 33 58
3 33 69 58
3 35 60 33
3 33 60 69
3 70 71 72
3 46 42 65
3 65 42 73
3 42 47 73
3 73 47 74
3 47 67 74
3 48 75 66
3 48 50 75
3 50 68 76
3 52 77 68
3 78 44 79
3 80 81 82
3 83 84 85
3 29 53 86
3 70 72 87
3 50 76 75
3 44 58 88
3 89 82 81
3 90 91 92
3 93 94 71
3 93 95 96
3 95 97 96
3 67 66 98
3 66 75 98
3 44 88 79
3 89 81 99
3 83 85 80
3 80 85 100
3 85 87 101
3 71 102 72
3 71 94 102
3 93 96 94
3 96 97 103
3 75 76 98
3 104 89 105
3 89 99 105
3 85 106 100
3 107 108 109
3 87 72 101
3 101 72 102
3 102 94 96
3 96 103 110
3 103 111 110
3 112 113 111
3 114 113 112
3 104 113 114
3 104 105 113
3 105 99 113
3 100 115 81
3 85 101 106
3 101 102 106
3 102 116 106
3 102 96 116
3 117 118 119
3 113 99 120
3 99 81 120
3 81 115 120
3 96 121 116
3 117 119 122
3 110 111 123
3 111 113 123
3 106 124 115
3 110 124 125
3 110 123 124
3 113 124 123
3 124 113 120
3 115 124 120
3 106 116 124
3 116 121 124
3 2 9 0
3 121 125 124
