ply
format ascii 1.0
comment TextureFile rock_texture.jpg
element vertex 231
property float x
property float y
property float z
property float nx
property float ny
property float nz
property float s
property float t
element face 234
property list uchar uint vertex_indices
end_header
0.413570 -0.639204 0.073406 -0.153874 -0.517594 -0.841639 0.029802 0.369807
0.045525 -0.604807 0.075034 -0.181951 -0.678793 -0.711417 0.036804 0.287980
0.187511 -0.433966 0.049485 -0.029328 -0.044862 -0.998535 0.076260 0.319735
0.413570 -0.639204 0.073406 -0.153874 -0.517594 -0.841639 0.637639 0.363100
0.562389 -0.727196 0.200937 -0.267830 -0.963042 0.027924 0.607125 0.396389
0.045525 -0.604807 0.075034 -0.181951 -0.678793 -0.711417 0.643779 0.280909
-0.781998 -0.598913 0.213480 -0.064058 -0.844356 -0.531907 0.037023 0.101324
-0.332258 -0.505281 0.165810 -0.159215 -0.303018 -0.939573 0.059348 0.202020
-0.315508 -0.568157 0.207392 -0.112247 -0.895505 -0.430616 0.045212 0.204988
0.680527 -0.771551 0.067099 -0.186071 -0.884640 -0.427473 0.636190 0.425935
0.898926 -0.755512 0.189786 0.056764 -0.997833 0.032899 0.603665 0.471612
0.675972 -0.626724 0.006180 -0.157811 -0.159520 -0.974487 0.032876 0.429454
1.046276 -0.741549 0.000780 0.230995 -0.731376 -0.641621 0.007365 0.512006
0.680527 -0.771551 0.067099 -0.186071 -0.884640 -0.427473 0.000000 0.429459
1.046276 -0.741549 0.000780 0.230995 -0.731376 -0.641621 0.643779 0.506804
1.207859 -0.666525 0.126558 0.849147 -0.526414 0.042421 0.610636 0.538180
0.399286 -0.654099 0.231990 -0.262062 -0.950407 0.167302 0.601926 0.357779
-0.315508 -0.568157 0.207392 -0.112247 -0.895505 -0.430616 0.619869 0.198050
1.114326 -0.741873 0.279806 0.393536 -0.910672 -0.125462 0.578704 0.517234
0.411385 -0.649170 0.541582 -0.082278 -0.891293 0.445875 0.530855 0.355216
-0.643812 -0.600941 0.560699 -0.036287 -0.879360 0.474715 0.546018 0.120803
-0.781998 -0.598913 0.213480 -0.064058 -0.844356 -0.531907 0.628002 0.095977
0.038189 -0.644743 0.438242 -0.160100 -0.978149 0.132542 0.561596 0.274488
0.676384 -0.718447 0.533162 -0.164068 -0.878231 0.449171 0.528851 0.415813
-1.233641 -0.421795 0.525272 -0.864803 -0.282571 0.415021 0.146493 0.566732
-1.187918 -0.452848 0.309557 -0.993683 -0.066439 0.090304 0.097564 0.560562
-1.148293 -0.532677 0.527421 -0.480789 -0.743919 0.464095 0.148273 0.544039
-1.204401 -0.513226 0.233517 -0.725272 -0.516953 -0.454604 0.080066 0.546688
1.207939 -0.666626 0.278259 0.806909 -0.459609 -0.370983 0.575966 0.535707
1.122498 -0.733917 0.535203 0.361278 -0.856349 0.368938 0.520042 0.514607
1.215981 -0.655178 0.523164 0.851588 -0.387188 0.353343 0.519646 0.533122
-1.204401 -0.513226 0.233517 -0.725272 -0.516953 -0.454604 0.630107 0.000000
-1.148293 -0.532677 0.527421 -0.480789 -0.743919 0.464095 0.562189 0.008111
-0.113281 -0.567181 0.545708 -0.171300 -0.850459 0.497330 0.538633 0.237057
0.148731 -0.560663 0.675995 -0.106449 -0.830805 0.546251 0.503692 0.292504
-0.643812 -0.600941 0.560699 -0.036287 -0.879360 0.474715 0.723157 0.609683
-0.569147 -0.441410 0.668846 -0.074129 -0.691916 0.718131 0.761996 0.625259
-1.148293 -0.532677 0.527421 -0.480789 -0.743919 0.464095 0.643779 0.693387
-0.954700 -0.313255 0.673489 -0.527451 -0.581896 0.618976 0.713121 0.701937
-0.130896 -0.403315 0.661406 -0.170660 -0.780725 0.601062 0.844473 0.569673
-0.113281 -0.567181 0.545708 -0.171300 -0.850459 0.497330 0.821059 0.540338
0.148731 -0.560663 0.675995 -0.106449 -0.830805 0.546251 0.870851 0.502802
-1.233641 -0.421795 0.525272 -0.864803 -0.282571 0.415021 0.645001 0.724562
0.676384 -0.718447 0.533162 -0.164068 -0.878231 0.449171 0.291179 0.604679
0.992178 -0.644392 0.685490 0.197302 -0.791742 0.578082 0.254655 0.671380
0.583097 -0.461861 0.686787 -0.223640 -0.854213 0.469314 0.237985 0.573182
0.992178 -0.644392 0.685490 0.197302 -0.791742 0.578082 0.486681 0.480787
-0.130896 -0.403315 0.661406 -0.170660 -0.780725 0.601062 0.509733 0.226489
-0.490831 -0.378635 0.785141 -0.015168 -0.973327 0.228889 0.487977 0.144363
-0.569147 -0.441410 0.668846 -0.074129 -0.691916 0.718131 0.517137 0.130836
0.411385 -0.649170 0.541582 -0.082278 -0.891293 0.445875 0.291179 0.544039
0.583097 -0.461861 0.686787 -0.223640 -0.854213 0.469314 0.491159 0.385229
-0.120081 -0.343161 0.806610 -0.195135 -0.958037 0.209815 0.475312 0.224733
0.676243 -0.543879 0.842574 -0.409772 -0.911252 0.041200 0.455160 0.405603
-0.954700 -0.313255 0.673489 -0.527451 -0.581896 0.618976 0.521325 0.041999
0.074339 -0.422714 0.870225 -0.255440 -0.941954 0.217841 0.458382 0.268882
1.122520 -0.508778 0.837658 0.456557 -0.869655 0.187597 0.447075 0.503072
1.215981 -0.429968 0.851836 0.908048 -0.401379 -0.119541 0.440686 0.521149
-0.966476 -0.305069 0.777332 -0.505051 -0.862972 -0.011200 0.497681 0.037456
-0.461069 -0.391054 0.985400 0.035096 -0.938780 0.342692 0.441848 0.147998
0.035929 -0.399979 1.153048 -0.135655 -0.711631 0.689291 0.394099 0.255101
0.467979 -0.313761 1.089083 -0.130650 -0.893399 0.429792 0.398911 0.348911
0.595831 -0.392481 1.203532 -0.521195 -0.494186 0.695761 0.371633 0.377521
0.771019 -0.552694 1.062494 -0.168035 -0.968596 0.183142 0.403222 0.423146
1.046276 -0.516340 1.250865 0.213843 -0.702994 0.678243 0.354241 0.479689
-0.993330 -0.298298 1.049794 -0.503800 -0.619861 0.601581 0.435815 0.026860
-0.277050 -0.337658 1.006077 -0.052980 -0.915647 0.398419 0.432661 0.186680
0.161945 -0.432064 1.050097 0.030183 -0.948485 0.315287 0.415744 0.285518
0.085274 -0.295334 1.190296 -0.115818 -0.295785 0.948180 0.319853 0.624681
-0.277050 -0.337658 1.006077 -0.052980 -0.915647 0.398419 0.348302 0.544039
0.035929 -0.399979 1.153048 -0.135655 -0.711631 0.689291 0.346077 0.618050
-0.496466 -0.314253 1.065120 -0.272164 -0.566729 0.777612 0.423000 0.136641
-0.496466 -0.314253 1.065120 -0.272164 -0.566729 0.777612 0.683997 0.378986
-0.277050 -0.337658 1.006077 -0.052980 -0.915647 0.398419 0.679070 0.331580
-0.451237 -0.206589 1.089647 -0.099948 -0.220283 0.970275 0.709030 0.368801
0.161945 -0.432064 1.050097 0.030183 -0.948485 0.315287 0.348302 0.644674
0.255655 -0.310467 1.213355 0.029664 -0.495315 0.868191 0.374549 0.299951
0.085274 -0.295334 1.190296 -0.115818 -0.295785 0.948180 0.382848 0.262317
0.358425 0.408916 1.207906 0.093722 0.369335 0.924528 0.853918 0.188830
0.255655 -0.310467 1.213355 0.029664 -0.495315 0.868191 0.688204 0.208753
0.468588 -0.116037 1.194309 -0.055239 0.073946 0.995727 0.733539 0.162699
-0.461069 -0.391054 0.985400 0.035096 -0.938780 0.342692 0.666057 0.372672
-0.612915 -0.191288 1.068283 -0.089816 -0.188421 0.977966 0.711884 0.405215
-0.993330 -0.298298 1.049794 -0.503800 -0.619861 0.601581 0.685881 0.489617
-0.612915 -0.191288 1.068283 -0.089816 -0.188421 0.977966 0.422424 0.107322
-0.941690 0.296368 1.057446 -0.181310 0.749931 0.636158 0.822813 0.480259
0.619913 -0.233076 1.233963 -0.182318 -0.099887 0.978118 0.361491 0.377680
0.619913 -0.233076 1.233963 -0.182318 -0.099887 0.978118 0.707352 0.127773
0.595831 -0.392481 1.203532 -0.521195 -0.494186 0.695761 0.670467 0.133205
0.467979 -0.313761 1.089083 -0.130650 -0.893399 0.429792 0.687544 0.164496
1.046276 -0.516340 1.250865 0.213843 -0.702994 0.678243 0.643779 0.031723
1.191563 -0.379271 1.251646 0.659780 -0.296518 0.690451 0.675794 0.000000
1.093554 0.458519 1.250865 0.094302 0.725425 0.681783 0.868065 0.024961
0.085274 -0.295334 1.190296 -0.115818 -0.295785 0.948180 0.319853 0.544039
-0.451237 -0.206589 1.089647 -0.099948 -0.220283 0.970275 0.319853 0.667218
-0.277050 -0.337658 1.006077 -0.052980 -0.915647 0.398419 0.291179 0.629371
0.085274 -0.295334 1.190296 -0.115818 -0.295785 0.948180 0.690981 0.247136
-0.982212 -0.110327 1.061623 -0.203436 -0.027406 0.978698 0.729195 0.487597
-1.047932 -0.121733 1.032471 -0.835871 -0.083468 0.542497 0.726199 0.502802
-1.025944 0.222801 1.056142 -0.695090 0.336558 0.635243 0.805604 0.498697
0.591415 0.324995 1.191321 -0.080935 0.296457 0.951598 0.835340 0.137207
-0.427387 0.206991 1.126300 -0.154515 0.009339 0.987915 0.804381 0.364248
-0.683376 0.138515 1.087825 -0.186254 0.090304 0.978332 0.787564 0.421656
1.191563 -0.379271 1.251646 0.659780 -0.296518 0.690451 0.642063 0.792620
1.200138 -0.067802 1.194304 0.880306 0.038545 0.472793 0.628921 0.723188
1.093554 0.458519 1.250865 0.094302 0.725425 0.681783 0.642751 0.605280
1.191788 0.408350 1.246343 0.643239 0.378399 0.665578 0.291179 0.682320
1.093554 0.458519 1.250865 0.094302 0.725425 0.681783 0.310986 0.667217
1.200138 -0.067802 1.194304 0.880306 0.038545 0.472793 0.310986 0.786996
-0.482491 0.347971 1.104154 -0.327311 0.548326 0.769524 0.836491 0.377520
-0.177145 0.420132 1.158285 -0.120273 0.587298 0.800378 0.854405 0.308817
0.836630 0.369970 1.245466 -0.164251 0.543779 0.822962 0.846797 0.081739
0.358425 0.408916 1.207906 0.093722 0.369335 0.924528 0.874518 0.185726
0.591415 0.324995 1.191321 -0.080935 0.296457 0.951598 0.877247 0.135166
0.558565 0.458160 1.086466 0.130863 0.955016 0.266030 0.905131 0.141594
0.558565 0.458160 1.086466 0.130863 0.955016 0.266030 0.865309 0.147412
0.287163 0.472403 1.167684 0.004517 0.867977 0.496536 0.868065 0.205805
-1.025944 0.222801 1.056142 -0.695090 0.336558 0.635243 0.893478 0.497533
-0.941690 0.296368 1.057446 -0.181310 0.749931 0.636158 0.896113 0.477787
-0.971298 0.300301 0.808760 -0.679006 0.706442 0.199591 0.952647 0.486486
0.287163 0.472403 1.167684 0.004517 0.867977 0.496536 0.885200 0.201075
0.670473 0.419224 0.823017 0.027253 0.965178 0.260109 0.964649 0.119516
0.836630 0.369970 1.245466 -0.164251 0.543779 0.822962 0.868065 0.079536
-0.482491 0.347971 1.104154 -0.327311 0.548326 0.769524 0.890328 0.374528
-0.177145 0.420132 1.158285 -0.120273 0.587298 0.800378 0.882434 0.305155
-0.323853 0.548388 0.806335 -0.109836 0.842555 0.527238 0.965621 0.339130
0.304811 0.480366 0.826699 0.091494 0.955596 0.280099 0.963206 0.200009
-0.754879 0.268307 0.993216 -0.106479 0.804224 0.584643 0.911145 0.437164
-0.736151 0.501995 0.658152 -0.277902 0.842860 0.460768 0.995001 0.432769
-0.683376 0.138515 1.087825 -0.186254 0.090304 0.978332 0.885971 0.422181
-0.754879 0.268307 0.993216 -0.106479 0.804224 0.584643 0.816677 0.440187
1.093554 0.458519 1.250865 0.094302 0.725425 0.681783 0.871450 0.021139
1.146717 0.467911 0.837658 0.412763 0.906857 -0.084872 0.966191 0.012782
0.378557 0.550560 0.677166 0.114109 0.727836 0.676168 1.000000 0.183960
-1.006336 0.271318 0.663255 -0.806696 0.268593 0.526353 0.237985 0.568750
-0.971298 0.300301 0.808760 -0.679006 0.706442 0.199591 0.203994 0.562441
-0.938259 0.376301 0.676213 -0.546373 0.595050 0.589373 0.233626 0.544039
-0.938259 0.376301 0.676213 -0.546373 0.595050 0.589373 0.985475 0.479266
-0.323853 0.548388 0.806335 -0.109836 0.842555 0.527238 0.345050 0.740175
-0.399353 0.651005 0.683105 -0.189337 0.851436 0.489029 0.319853 0.723245
-0.736151 0.501995 0.658152 -0.277902 0.842860 0.460768 0.345050 0.644674
0.609413 0.496599 0.681602 0.083560 0.758019 0.646809 0.998883 0.133289
1.090227 0.451790 0.685166 0.693716 0.645039 0.320353 1.000000 0.026894
-0.399353 0.651005 0.683105 -0.189337 0.851436 0.489029 0.996418 0.355618
-0.938259 0.376301 0.676213 -0.546373 0.595050 0.589373 0.817260 0.817957
-0.986025 0.591196 0.532029 -0.231056 0.869289 0.436933 0.837328 0.863249
-1.148293 0.415113 0.527421 -0.734275 0.409009 0.541734 0.782864 0.856104
-0.399353 0.651005 0.683105 -0.189337 0.851436 0.489029 0.042036 0.875118
0.378557 0.550560 0.677166 0.114109 0.727836 0.676168 0.020874 0.702389
0.305305 0.767017 0.540163 0.049104 0.893826 0.445662 0.069773 0.722424
0.670513 0.705297 0.541582 0.026551 0.865322 0.500473 0.056511 0.641193
0.609413 0.496599 0.681602 0.083560 0.758019 0.646809 0.009072 0.650916
1.107552 0.758362 0.533512 0.450972 0.779046 0.435499 0.069773 0.544582
1.090227 0.451790 0.685166 0.693716 0.645039 0.320353 0.000000 0.544039
-0.736151 0.501995 0.658152 -0.277902 0.842860 0.460768 0.870851 0.811050
-0.399353 0.651005 0.683105 -0.189337 0.851436 0.489029 0.870851 0.849376
-0.497597 0.668995 0.512156 -0.314890 0.936277 0.155553 0.912359 0.867530
-0.736151 0.501995 0.658152 -0.277902 0.842860 0.460768 0.879512 0.926080
-0.777020 0.551582 0.199177 -0.137486 0.679037 -0.721091 0.986067 0.925419
0.305305 0.767017 0.540163 0.049104 0.893826 0.445662 0.891182 0.688505
0.670513 0.705297 0.541582 0.026551 0.865322 0.500473 0.880947 0.608690
0.400885 0.771549 0.099496 0.057009 0.840846 -0.538224 0.989222 0.658746
-1.148293 0.415113 0.527421 -0.734275 0.409009 0.541734 0.145785 0.754369
-0.986025 0.591196 0.532029 -0.231056 0.869289 0.436933 0.148273 0.797084
-1.114952 0.595760 0.223990 -0.449355 0.739830 -0.500656 0.076009 0.794779
-0.320955 0.713930 0.324415 -0.151097 0.988433 -0.011628 0.952407 0.823997
1.107552 0.758362 0.533512 0.450972 0.779046 0.435499 0.874703 0.510797
0.681635 0.709539 0.121284 0.111118 0.829859 -0.546770 0.976222 0.598040
1.117153 0.729052 0.203332 0.460372 0.813593 -0.355052 0.948556 0.502802
-0.506428 0.665232 0.178121 -0.302622 0.732780 -0.609424 0.988257 0.863104
-0.986025 0.591196 0.532029 -0.231056 0.869289 0.436933 0.916322 0.977463
-1.114952 0.595760 0.223990 -0.449355 0.739830 -0.500656 0.989222 1.000000
-1.114952 0.595760 0.223990 -0.449355 0.739830 -0.500656 0.310891 0.025016
-0.777020 0.551582 0.199177 -0.137486 0.679037 -0.721091 0.301411 0.100656
-0.605551 0.318386 0.165794 -0.134739 0.021516 -0.990631 0.248009 0.139848
-0.506428 0.665232 0.178121 -0.302622 0.732780 -0.609424 0.328069 0.160979
-0.377207 0.506357 0.112866 -0.182653 0.127018 -0.974914 0.291435 0.191318
0.400885 0.771549 0.099496 0.057009 0.840846 -0.538224 0.354241 0.363908
1.093554 0.514006 0.000780 0.206183 0.386059 -0.899106 0.296104 0.520245
0.681635 0.709539 0.121284 0.111118 0.829859 -0.546770 0.340830 0.425913
1.117153 0.729052 0.203332 0.460372 0.813593 -0.355052 0.346944 0.520886
0.360664 0.651514 0.043739 -0.018708 0.238594 -0.970916 0.326177 0.356352
0.662640 0.633030 0.073406 0.172338 0.315683 -0.933073 0.322876 0.422828
0.824902 0.351543 0.006180 -0.155858 0.084841 -0.984100 0.258126 0.460766
-1.233824 0.133272 0.197587 -0.822779 0.011444 -0.568194 0.069773 0.689448
-1.213442 0.419075 0.279780 -0.934263 0.316263 -0.164556 0.088138 0.753443
1.199780 0.399286 0.000865 0.694052 0.127354 -0.708548 0.269997 0.544039
-1.233824 0.133272 0.197587 -0.822779 0.011444 -0.568194 0.204105 0.000000
1.191563 -0.604479 -0.000000 0.630116 -0.234382 -0.740257 0.039230 0.544039
-0.973526 -0.522608 0.189222 -0.130253 -0.343455 -0.930052 0.053926 0.059158
-1.204401 -0.513226 0.233517 -0.725272 -0.516953 -0.454604 0.055803 0.006950
1.191563 -0.604479 -0.000000 0.630116 -0.234382 -0.740257 0.354241 0.842285
1.207859 -0.666525 0.126558 0.849147 -0.526414 0.042421 0.383216 0.856264
1.046276 -0.741549 0.000780 0.230995 -0.731376 -0.641621 0.355289 0.872069
1.199780 0.399286 0.000865 0.694052 0.127354 -0.708548 0.354694 0.618508
1.240772 -0.121826 0.061157 0.993469 0.075381 0.085330 0.368140 0.734953
1.186481 -0.536493 0.190609 0.996002 -0.057131 0.068300 0.398115 0.827182
1.114326 -0.741873 0.279806 0.393536 -0.910672 -0.125462 0.419010 0.872630
1.117153 0.729052 0.203332 0.460372 0.813593 -0.355052 0.401858 0.544621
1.209911 0.593163 0.286576 0.953093 0.298868 -0.047487 0.420374 0.575457
1.207939 -0.666626 0.278259 0.806909 -0.459609 -0.370983 0.418092 0.856353
1.186481 -0.536493 0.190609 0.996002 -0.057131 0.068300 0.161867 0.746026
1.207939 -0.666626 0.278259 0.806909 -0.459609 -0.370983 0.148273 0.720677
1.114326 -0.741873 0.279806 0.393536 -0.910672 -0.125462 0.161867 0.697379
1.107552 0.758362 0.533512 0.450972 0.779046 0.435499 0.477835 0.538180
1.235104 0.262665 0.542719 0.941435 0.044404 0.334208 0.479003 0.649401
1.215981 -0.655178 0.523164 0.851588 -0.387188 0.353343 0.474348 0.853952
1.090227 0.451790 0.685166 0.693716 0.645039 0.320353 0.512716 0.606514
1.122480 -0.451195 0.646130 0.936827 -0.237465 0.256783 0.503266 0.808019
1.215981 -0.655178 0.523164 0.851588 -0.387188 0.353343 0.237985 0.695826
0.992178 -0.644392 0.685490 0.197302 -0.791742 0.578082 0.276814 0.722284
1.122498 -0.733917 0.535203 0.361278 -0.856349 0.368938 0.242986 0.722284
1.122480 -0.451195 0.646130 0.936827 -0.237465 0.256783 0.282303 0.671380
1.219843 0.387587 0.831211 0.905789 0.327067 -0.269356 0.545461 0.621591
1.146717 0.467911 0.837658 0.412763 0.906857 -0.084872 0.547425 0.603290
0.992178 -0.644392 0.685490 0.197302 -0.791742 0.578082 0.513071 0.850416
1.215981 -0.429968 0.851836 0.908048 -0.401379 -0.119541 0.549978 0.803879
1.191788 0.408350 1.246343 0.643239 0.378399 0.665578 0.641081 0.616993
1.240864 -0.121719 1.065044 0.995636 -0.016938 0.091464 0.598933 0.735373
1.046276 -0.516340 1.250865 0.213843 -0.702994 0.678243 0.642751 0.822402
1.191788 0.408350 1.246343 0.643239 0.378399 0.665578 0.871567 0.000000
-1.240862 0.139164 0.524728 -0.893124 0.066927 0.444716 0.144812 0.691055
-1.240862 0.139164 0.524728 -0.893124 0.066927 0.444716 0.726038 0.821899
-1.006336 0.271318 0.663255 -0.806696 0.268593 0.526353 0.789610 0.809742
-0.954700 -0.313255 0.673489 -0.527451 -0.581896 0.618976 0.237985 0.697379
-1.058790 0.095263 0.798884 -0.980377 0.093936 -0.173254 0.208399 0.609798
-1.056684 -0.196583 0.812855 -0.941404 -0.262398 -0.211737 0.206658 0.674591
-1.056684 -0.196583 0.812855 -0.941404 -0.262398 -0.211737 0.489450 0.013814
-1.047932 -0.121733 1.032471 -0.835871 -0.083468 0.542497 0.155744 0.659138
-1.025944 0.222801 1.056142 -0.695090 0.336558 0.635243 0.148273 0.582356
-0.993330 -0.298298 1.049794 -0.503800 -0.619861 0.601581 0.151992 0.697219
3 0 1 2
3 3 4 5
3 6 7 8
3 1 8 7
3 3 9 4
3 4 9 10
3 11 12 13
3 9 14 10
3 14 15 10
3 5 4 16
3 5 16 17
3 10 15 18
3 16 4 19
3 17 20 21
3 22 17 16
3 4 23 19
3 23 4 10
3 24 25 26
3 26 25 27
3 18 28 29
3 30 29 28
3 31 21 32
3 20 32 21
3 20 17 33
3 17 22 33
3 22 16 19
3 22 34 33
3 23 10 29
3 10 18 29
3 35 36 37
3 37 36 38
3 39 40 41
3 34 22 19
3 42 37 38
3 39 36 35
3 40 39 35
3 43 44 45
3 29 46 23
3 47 48 49
3 43 45 50
3 19 51 34
3 47 34 52
3 51 46 53
3 54 49 48
3 34 55 52
3 34 51 55
3 46 56 53
3 46 57 56
3 54 48 58
3 48 59 58
3 47 52 48
3 52 55 60
3 51 53 61
3 62 61 53
3 53 63 62
3 63 53 64
3 64 62 63
3 56 64 53
3 58 59 65
3 60 66 52
3 55 67 60
3 68 69 70
3 48 52 66
3 48 66 59
3 71 59 66
3 72 73 74
3 70 75 68
3 76 77 67
3 51 67 55
3 67 51 61
3 67 61 76
3 78 79 80
3 81 82 83
3 74 82 72
3 71 84 59
3 85 82 74
3 61 86 76
3 79 87 80
3 88 87 89
3 87 90 91
3 87 91 92
3 93 94 95
3 96 79 78
3 87 88 90
3 83 97 98
3 99 98 97
3 85 97 82
3 82 97 83
3 100 80 87
3 100 78 80
3 74 101 102
3 96 101 74
3 96 78 101
3 103 104 105
3 106 107 108
3 102 101 109
3 101 110 109
3 102 85 74
3 87 111 100
3 92 111 87
3 85 99 97
3 101 78 110
3 112 113 114
3 115 100 111
3 116 110 78
3 117 118 119
3 112 114 120
3 121 120 114
3 121 114 122
3 123 124 125
3 126 124 120
3 127 119 118
3 119 127 128
3 129 127 118
3 102 109 130
3 127 123 125
3 125 124 126
3 126 120 121
3 121 122 131
3 131 132 121
3 127 125 128
3 121 133 126
3 134 135 136
3 119 128 137
3 138 139 140
3 126 133 125
3 121 132 141
3 142 141 132
3 143 125 133
3 133 121 141
3 144 145 146
3 147 148 149
3 148 150 149
3 148 151 150
3 150 151 152
3 151 153 152
3 145 144 154
3 155 156 157
3 157 156 158
3 159 160 161
3 162 163 164
3 156 155 165
3 166 167 160
3 166 168 167
3 165 155 159
3 160 167 161
3 156 169 158
3 170 157 158
3 165 159 161
3 156 165 169
3 165 161 169
3 170 158 171
3 172 173 174
3 174 173 175
3 175 176 174
3 175 177 176
3 178 179 180
3 177 179 181
3 182 181 179
3 183 179 178
3 176 177 181
3 179 183 182
3 164 184 185
3 178 186 183
3 11 182 183
3 174 187 172
3 176 181 2
3 2 181 182
3 186 188 183
3 187 189 190
3 174 189 187
3 176 2 1
3 1 174 176
3 0 2 182
3 182 11 0
3 7 174 1
3 183 12 11
3 12 183 188
3 190 189 6
3 174 7 189
3 13 0 11
3 6 189 7
3 191 192 193
3 178 180 186
3 194 195 191
3 191 195 192
3 194 196 195
3 192 195 196
3 192 196 197
3 194 198 199
3 199 196 194
3 200 196 199
3 201 202 203
3 204 205 199
3 200 199 206
3 206 199 205
3 204 199 198
3 204 207 205
3 208 206 205
3 209 210 211
3 212 210 209
3 205 207 208
3 213 207 214
3 215 208 216
3 217 213 214
3 207 213 208
3 208 213 216
3 213 218 216
3 216 218 103
3 103 219 216
3 213 217 218
3 103 218 104
3 104 218 217
3 132 131 220
3 57 64 56
3 27 185 184
3 27 25 185
3 185 25 24
3 185 162 164
3 185 221 162
3 185 24 221
3 146 222 223
3 144 146 223
3 222 42 223
3 38 223 42
3 134 224 225
3 225 135 134
3 224 226 225
3 227 54 58
3 226 228 225
3 225 228 229
3 135 225 229
3 226 230 228
3 58 65 227
