ply
format ascii 1.0
comment VCGLIB generated
comment TextureFile rock_texture.jpg
element vertex 573
property float x
property float y
property float z
property float nx
property float ny
property float nz
property float texture_u
property float texture_v
element face 550
property list uchar int vertex_indices
end_header
-11.3213 0.364026 7.56445 -0.187048 -0.857356 0.479507 0.408958 0.355486
-4.42554 0.0949065 11.233 -0.106815 -0.980255 0.166295 0.403547 0.225254
-4.7464 0.508789 12.2379 -0.487655 -0.705741 0.513871 0.41984 0.22125
8.52319 0.206588 -8.35654 0.212531 -0.959166 -0.18656 0.031339 0.205139
11.6074 0.0586296 -4.51115 0.063906 -0.989349 -0.130528 0.059061 0.1282
6.5097 0.0264531 -0.755711 0.004059 -0.999969 -0.00528013 0.151499 0.169674
8.39825 1.32038 15.2086 0.32313 0.251228 0.912381 0.949781 0.41128
7.50305 2.47549 14.8548 0.440016 0.398022 0.804926 0.967852 0.42753
5.23175 1.98159 15.3654 -0.015778 0.199927 0.979675 0.956635 0.460897
1.5838 0.119203 15.0061 -0.034974 -0.970306 0.239235 0.406688 0.106817
-0.040161 0.382076 15.3769 -0.127567 -0.638539 0.758904 0.424827 0.126968
4.75629 21.5764 -0.982454 0.573595 0.786615 -0.228431 0.818156 0.929069
2.54553 21.6729 0.870547 -0.031007 0.866329 0.498428 0.847584 0.89215
4.75513 21.5626 0.793763 0.459761 0.787347 0.410688 0.846347 0.929069
3.90655 19.5306 2.09312 0.05298 0.517533 0.853999 0.669532 0.814435
4.04339 16.1539 4.03346 0.49205 0.601337 0.629444 0.710359 0.85891
4.75513 21.5626 0.793763 0.459761 0.787347 0.410688 0.636422 0.798629
3.14899 13.3191 8.0388 0.261452 0.421552 0.868252 0.790522 0.280989
4.27539 12.3045 8.51605 0.068667 0.583026 0.809503 0.808279 0.272189
6.43896 15.884 2.97774 0.351238 0.857204 0.376568 0.845616 0.363057
10.3661 3.4254 10.5354 0.681143 0.622242 0.385754 0.571723 0.814626
10.2879 1.54064 12.2151 0.861995 0.307962 0.4026 0.54818 0.848334
11.1223 3.3944 7.99256 0.751579 0.552324 0.360546 0.561282 0.772639
7.54626 0.356544 15.4352 0.123539 -0.433393 0.892666 0.933305 0.423474
9.07275 0.361034 14.894 0.557268 -0.586138 0.588061 0.936211 0.402008
-9.22094 3.08746 -8.98658 -0.14597 0.47026 -0.870357 0.364032 0.759882
-9.90667 0.467647 -9.89806 -0.372173 -0.431928 -0.821497 0.408405 0.762098
-10.7099 3.78006 -8.58621 -0.269143 0.728141 -0.630329 0.354389 0.784213
1.15857 10.4522 9.05895 0.191961 0.656026 0.729881 0.604612 0.631126
2.46045 11.1479 8.2978 -0.147618 0.306345 0.940367 0.609473 0.652786
-1.12665 10.9233 8.84007 0.006012 0.625141 0.78048 0.57218 0.614434
7.73913 7.45747 8.81006 0.571734 0.280221 0.771081 0.708207 0.656574
5.42254 11.0065 9.43309 0.131993 0.340342 0.930967 0.65184 0.681396
6.24512 7.02232 9.38859 0.354442 0.411878 0.839442 0.697708 0.636327
-2.633 17.6719 5.14902 -0.218848 0.817621 0.532487 0.409054 0.873214
-1.07367 15.1586 7.90549 -0.111911 0.445112 0.888424 0.427982 0.823891
-1.7793 19.5982 2.47824 -0.311747 0.85641 0.411512 0.427982 0.915446
-7.39899 13.5209 1.34251 -0.753319 0.646626 -0.119755 0.571723 0.824053
-6.21777 14.9534 3.36339 -0.783593 0.597949 0.168432 0.600747 0.848166
-4.28113 17.2079 4.2269 -0.527665 0.824549 0.204016 0.609867 0.881731
8.33825 3.65572 12.1804 0.716514 0.554399 0.423292 0.850492 0.844859
5.75378 4.66341 14.3031 0.221656 0.832545 0.507645 0.877029 0.893434
7.68805 4.22777 14.4214 0.632801 0.62566 0.45616 0.847584 0.88374
-16.5197 0.495847 6.19459 -0.788141 -0.330576 0.51912 0.934767 0.853338
-14.856 1.31021 7.20375 -0.42906 -0.0443131 0.902158 0.946642 0.821866
-14.8384 2.93532 6.50456 -0.702414 0.440107 0.559343 0.973817 0.825477
-16.3931 2.78796 1.52338 -0.754875 0.654225 -0.0459609 0.349159 0.955461
-16.5471 1.6205 1.98042 -0.979186 0.194586 -0.057161 0.366199 0.962092
-16.5197 0.495847 6.19459 -0.788141 -0.330576 0.51912 0.371403 1
2.72461 0.243193 -13.4088 0.199774 -0.550127 -0.810816 0.009006 0.331381
4.37353 0.395938 -12.9075 0.265175 -0.541673 -0.797632 0.002556 0.303378
6.59686 0.195866 -10.8757 0.428419 -0.778314 -0.458968 0.012428 0.254214
7.54626 0.356544 15.4352 0.123539 -0.433393 0.892666 0.364473 0.017366
8.12842 0.181667 15.0443 0.152928 -0.921506 0.356914 0.35445 0.012349
9.07275 0.361034 14.894 0.557268 -0.586138 0.588061 0.344769 0
6.59686 0.195866 -10.8757 0.428419 -0.778314 -0.458968 0.694755 0.85891
6.91327 5.15147 -11.3723 0.604816 -0.285348 -0.743461 0.694755 0.939547
9.09619 3.43386 -9.91211 0.574236 -0.100314 -0.812494 0.676246 0.921809
9.46039 1.32893 14.627 0.782189 0.303476 0.544084 0.952396 0.397399
8.33825 3.65572 12.1804 0.716514 0.554399 0.423292 0.926412 0.804243
10.3661 3.4254 10.5354 0.681143 0.622242 0.385754 0.886302 0.79312
9.58575 4.04998 9.25541 0.65276 0.696127 0.298776 0.889381 0.768218
-9.4721 8.70164 5.53866 -0.381176 0.419446 0.823847 0.476203 0.498731
-11.2585 6.4943 5.80613 -0.372814 0.389538 0.842158 0.476767 0.451627
-6.41223 8.67553 6.59198 -0.309061 0.326853 0.893094 0.518224 0.52979
-2.05328 11.5864 8.40317 -0.074831 0.28666 0.955077 0.552827 0.613687
-3.74957 8.12807 9.53713 -0.747063 0.249794 0.615986 0.570586 0.551482
-2.79785 7.39057 11.1027 -0.633747 0.488205 0.599963 0.597034 0.552419
4.41485 16.2424 -3.79153 0.417859 0.271615 -0.866939 0.526013 0.048011
3.94257 8.97883 -6.27615 0.174566 0.406781 -0.896664 0.647322 0.042801
3.14941 13.5125 -4.80769 0.115879 0.269112 -0.956084 0.572595 0.060706
-2.71356 9.00098 -8.84863 -0.362499 0.724754 -0.585894 0.212786 0.87684
-4.12225 8.61395 -8.72633 -0.14536 0.566363 -0.811212 0.2215 0.855183
-0.079773 10.3319 -7.4237 0.446791 0.713706 -0.539384 0.2215 0.925706
-0.931396 2.39334 -12.7463 -0.281747 0.363353 -0.887997 0.373057 0.609689
-1.97894 3.68875 -11.3931 -0.378643 0.457015 -0.804804 0.350616 0.636215
2.8526 4.52656 -12.8767 -0.054567 0.221442 -0.973632 0.33453 0.554678
6.59686 0.195866 -10.8757 0.428419 -0.778314 -0.458968 0.703832 0.018372
9.09619 3.43386 -9.91211 0.574236 -0.100314 -0.812494 0.747304 0.024305
10.2571 1.11352 -8.48675 0.512467 -0.518052 -0.684805 0.710769 0.052536
3.61139 0.0199248 8.96798 0.006745 -0.999908 0.0102239 0.307801 0.12889
-16.5197 0.495847 6.19459 -0.788141 -0.330576 0.51912 0.432123 0.44184
-16.9458 0.187442 4.34189 -0.838313 -0.520951 0.160588 0.410252 0.463754
-15.6982 0.346496 6.55474 -0.264229 -0.754234 0.601062 0.430436 0.427005
-13.2561 4.01192 -5.29314 -0.335246 0.746666 -0.574511 0.345127 0.849599
-13.714 5.17027 -4.71603 -0.643361 0.35783 -0.676748 0.326164 0.860887
-9.62396 4.00685 -6.88094 -0.56035 0.603076 -0.567675 0.344264 0.784237
-12.5475 4.34745 7.30225 -0.29313 0.697775 0.653584 0.50477 0.787145
-6.69934 4.49906 9.80624 -0.51207 0.565081 0.64687 0.482299 0.890669
-12.5333 4.7012 6.38425 -0.268441 0.916105 0.297769 0.492904 0.778245
14.9156 5.19948 0.737612 0.783197 0.618061 -0.0674459 0.756989 0.674941
13.2314 4.80725 -2.20326 0.426618 0.890408 -0.158391 0.762115 0.618656
10.6211 6.49004 -2.54578 0.501907 0.85876 -0.102878 0.798002 0.595374
0.980347 19.3655 2.08398 0.132969 0.641255 0.755699 0.698796 0.77912
2.21667 18.2495 2.68179 0.068911 0.68862 0.721824 0.701274 0.808554
4.08154 8.00563 10.2997 0.362346 0.665181 0.652852 0.027542 0.86515
0.756226 6.26684 14.4166 -0.062685 0.517472 0.853389 0.052039 0.949412
2.07452 5.63472 14.4239 0.086795 0.442305 0.892636 0.032424 0.941331
1.15857 10.4522 9.05895 0.191961 0.656026 0.729881 0.919537 0.272189
0.756226 6.26684 14.4166 -0.062685 0.517472 0.853389 0.919537 0.385101
2.88232 8.99931 9.17462 -0.009461 0.572863 0.819575 0.896989 0.289839
-1.59357 8.68965 -10.0337 -0.138462 0.651295 -0.746055 0.189393 0.888599
11.9418 4.76893 5.34266 0.500504 0.67806 0.538224 0.829939 0.724718
10.4405 5.86664 4.22664 0.610859 0.712027 0.346141 0.844616 0.697321
10.1907 3.90191 7.61793 0.605335 0.717887 0.34376 0.869927 0.747446
-0.44043 0.0343416 -11.98 0.00528 -0.999298 -0.0368361 0.054069 0.364833
-11.0547 0.0670994 4.2681 -0.018647 -0.999207 0.0348219 0.361765 0.379679
-13.9736 0.0460814 -3.14475 -0.06534 -0.996521 -0.0512101 0.28395 0.484537
4.28039 3.04939 14.7507 -0.018403 0.226691 0.973785 0.973931 0.479366
5.93475 4.23677 14.8665 0.086795 0.508164 0.856838 0.993844 0.452705
-14.7628 4.10216 -4.05727 -0.568743 0.733482 -0.372143 0.342443 0.881884
1.1167 4.68707 14.452 -0.031404 0.511582 0.858638 0.441157 0.560024
-2.51471 4.40202 14.6144 -0.378246 0.458266 0.804285 0.435502 0.620358
1.66345 4.25145 15.261 -0.005982 0.476608 0.879086 0.428804 0.550081
-8.9447 4.19448 -8.38707 -0.453383 0.476485 -0.753227 0.921074 0.148235
-10.7099 3.78006 -8.58621 -0.269143 0.728141 -0.630329 0.89977 0.128962
-9.62396 4.00685 -6.88094 -0.56035 0.603076 -0.567675 0.931296 0.122847
-0.079773 10.3319 -7.4237 0.446791 0.713706 -0.539384 0.092896 0.868279
1.97809 8.02013 -6.51805 0.279244 0.610859 -0.740806 0.101125 0.914074
0.633118 7.49054 -9.18257 0.551195 0.749199 -0.367199 0.060548 0.914074
9.67981 7.44171 3.07349 0.919675 0.391217 0.0334181 0.222294 0.704305
8.71106 13.0554 3.92961 0.908567 0.369579 0.194525 0.131199 0.711353
10.0623 5.90902 5.3664 0.931059 0.307382 0.196448 0.238853 0.661391
-13.8163 6.16156 2.11095 -0.842555 0.538408 -0.0135199 0.673459 0.371356
-12.1841 8.2347 1.26011 -0.561022 0.368877 -0.74102 0.643254 0.337971
-12.051 7.31885 0.996866 -0.584979 0.607807 -0.536973 0.658252 0.335031
1.97809 8.02013 -6.51805 0.279244 0.610859 -0.740806 0.664268 0.069753
-0.451294 11.1438 -6.59093 0.029145 0.687551 -0.725516 0.617748 0.099171
2.36298 14.5426 -4.65171 -0.118717 0.240211 -0.963408 0.556622 0.071781
-4.12225 8.61395 -8.72633 -0.14536 0.566363 -0.811212 0.878985 0.033653
-1.14935 12.4219 -4.36552 -0.394726 0.668691 -0.630085 0.79582 0.029393
-0.451294 11.1438 -6.59093 0.029145 0.687551 -0.725516 0.820231 0
-6.41003 10.8031 -4.01847 -0.408246 0.845637 -0.343791 0.833912 0.107336
-5.13672 12.4908 -1.57902 -0.437452 0.644704 -0.62685 0.790522 0.110442
-1.14935 12.4219 -4.36552 -0.394726 0.668691 -0.630085 0.590731 0.126842
-0.637146 14.0056 -3.67595 -0.435682 0.353252 -0.827845 0.563507 0.123493
2.5614 14.4837 7.98922 0.408704 0.438673 0.800287 0.578504 0.698114
0.039185 15.5177 7.98248 0.018555 0.523026 0.852107 0.539283 0.686756
-8.44415 7.00738 -8.39129 -0.496017 0.353465 -0.793054 0.300246 0.753149
-9.75512 5.34849 -6.99411 -0.568621 -0.145756 -0.809534 0.323958 0.78466
-11.0174 6.9977 -6.51648 -0.558092 0.285836 -0.778954 0.298889 0.806213
-8.9447 4.19448 -8.38707 -0.453383 0.476485 -0.753227 0.344681 0.761066
-2.71356 9.00098 -8.84863 -0.362499 0.724754 -0.585894 0.261864 0.667869
-1.59357 8.68965 -10.0337 -0.138462 0.651295 -0.746055 0.268425 0.641543
-4.53497 4.74667 -9.33148 -0.340281 0.307016 -0.88876 0.332111 0.690401
-0.62085 0.0931257 -13.0053 -0.2331 -0.732505 -0.639576 0.409054 0.60368
-3.20416 1.85198 -12.3393 -0.297586 0.337687 -0.892941 0.383753 0.645469
-16.5371 0.138343 1.15492 -0.686483 -0.720695 -0.0962551 0.36339 0.484918
-16.5473 0.113388 -1.69063 -0.838282 -0.529893 -0.128361 0.324571 0.509205
13.894 0.795812 5.39919 0.768273 -0.329753 0.548601 0.723052 0.279424
13.5104 2.86143 5.09233 0.68395 0.331767 0.649709 0.755438 0.26963
12.4691 0.222886 6.78165 0.590442 -0.692465 0.414502 0.721914 0.304803
9.47137 6.21902 -9.12817 0.473006 0.802637 -0.363292 0.790522 0.030127
10.6966 5.95038 -7.92589 0.531419 0.744163 -0.404706 0.784841 0.049613
9.33825 5.2528 -9.62964 0.707297 0.143101 -0.692251 0.775054 0.024323
-6.63696 1.5207 -10.9892 -0.284433 0.538987 -0.79281 0.390224 0.705988
-4.41095 0.333593 -12.1302 -0.295328 -0.51207 -0.806543 0.408569 0.664772
2.37994 6.51491 -9.32927 0.268868 0.924406 -0.270455 0.873057 0.435588
2.39716 5.93212 -11.733 0.073733 0.827845 -0.556078 0.857025 0.399165
0.633118 7.49054 -9.18257 0.551195 0.749199 -0.367199 0.899491 0.425747
-14.6867 4.86627 -3.73557 -0.84225 0.426954 -0.329081 0.329528 0.883484
-15.0124 4.36018 -1.87729 -0.939055 0.343669 -0.00283795 0.332496 0.904952
-14.6703 5.8536 -2.08949 -0.458419 0.839259 -0.292306 0.309397 0.897783
6.62707 5.14044 13.0357 0.479965 0.727409 0.490371 0.871348 0.868502
4.78766 5.52355 13.1284 0.377972 0.800775 0.464614 0.898181 0.880922
10.1569 6.71504 1.23413 0.728141 0.685354 0.00964409 0.24124 0.731659
10.6211 6.49004 -2.54578 0.501907 0.85876 -0.102878 0.25925 0.792452
9.75171 7.56638 -0.896408 0.879086 0.468398 -0.0882289 0.234344 0.769319
-6.35156 8.58222 -7.83992 -0.318705 0.814936 -0.484024 0.270997 0.728225
-5.69763 8.18531 -9.10851 -0.123356 0.519669 -0.845393 0.27984 0.707724
-6.04529 13.6952 4.80139 -0.695944 0.330271 0.637623 0.466964 0.59905
-0.677551 18.6465 -2.7976 -0.571429 0.226966 -0.788598 0.488671 0.125426
1.0824 21.573 -2.75361 -0.318583 0.791162 -0.522019 0.442084 0.096931
2.50629 20.5387 -3.87011 0.065279 0.396863 -0.915525 0.461027 0.068411
-2.74591 19.7643 -0.286621 -0.821162 0.517899 -0.239601 0.464036 0.175194
-1.60974 20.9479 -0.82575 -0.599841 0.753044 -0.270333 0.446844 0.152777
4.75629 21.5764 -0.982454 0.573595 0.786615 -0.228431 0.005921 0.821685
4.75513 21.5626 0.793763 0.459761 0.787347 0.410688 0 0.792773
6.0871 18.7149 -1.20766 0.846034 0.329234 -0.419263 0.054466 0.815095
2.5614 14.4837 7.98922 0.408704 0.438673 0.800287 0.746897 0.94641
2.96124 16.919 4.32119 0.342479 0.697378 0.629536 0.722628 0.890389
2.21667 18.2495 2.68179 0.068911 0.68862 0.721824 0.725701 0.860358
-5.20135 15.537 5.78511 -0.768914 0.412458 0.48851 0.465415 0.632897
-4.32324 14.6971 7.45148 -0.596789 0.365856 0.714103 0.492478 0.631815
-2.633 17.6719 5.14902 -0.218848 0.817621 0.532487 0.472731 0.686532
-6.47796 14.3106 0.303155 -0.623981 0.4991 -0.601245 0.548825 0.240593
-4.82062 17.0055 0.719825 -0.728996 0.636952 -0.250679 0.504602 0.217139
-5.42126 13.8549 -0.408993 -0.415357 0.470046 -0.778771 0.557653 0.220024
-2.45679 15.4999 -1.70799 -0.586261 0.262917 -0.766228 0.534759 0.164458
-2.633 17.6719 5.14902 -0.218848 0.817621 0.532487 0.734882 0.304803
-4.82062 17.0055 0.719825 -0.728996 0.636952 -0.250679 0.710665 0.383183
-4.28113 17.2079 4.2269 -0.527665 0.824549 0.204016 0.711178 0.323941
-5.33771 14.5293 5.25154 -0.561846 -0.20307 0.801904 0.470124 0.617629
-11.8874 5.04378 6.16126 -0.376598 0.629353 0.679739 0.484055 0.784705
-14.0181 4.57771 4.50331 -0.774926 0.421033 0.471358 0.48262 0.739741
4.15613 4.70185 14.6148 0.185125 0.450758 0.873226 0.898965 0.907805
-1.80151 8.28718 10.5091 -0.291055 0.602466 0.743156 0.597366 0.573853
7.76819 6.38621 9.34592 0.468184 0.568194 0.676687 0.210138 0.597372
6.62707 5.14044 13.0357 0.479965 0.727409 0.490371 0.212376 0.532072
8.33825 3.65572 12.1804 0.716514 0.554399 0.423292 0.243571 0.541177
-6.69934 4.49906 9.80624 -0.51207 0.565081 0.64687 0.998089 0.679483
-5.25488 3.21902 12.435 -0.772759 0.301462 0.558458 0.97297 0.642785
-4.73181 4.39504 11.7388 -0.540819 0.681478 0.492996 0.993606 0.638269
4.01294 6.19824 -10.6634 0.042634 0.986602 -0.157384 0.840669 0.426501
4.49982 5.8747 -12.5048 -0.148686 0.692526 -0.705863 0.821558 0.401833
9.47137 6.21902 -9.12817 0.473006 0.802637 -0.363292 0.771691 0.487293
3.28979 6.69645 -8.23616 0.180242 0.892026 -0.414441 0.867051 0.458451
10.6966 5.95038 -7.92589 0.531419 0.744163 -0.404706 0.76174 0.514027
7.94202 5.90978 -11.0762 0.480544 0.535966 -0.694082 0.781064 0.44718
-13.723 3.25367 7.32877 -0.481277 0.34669 0.805078 0.977851 0.803577
6.06177 6.01331 -12.8669 0.349376 0.525468 -0.775719 0.306514 0.509205
4.54748 4.62872 -12.6538 -0.073061 0.0788291 -0.994201 0.32971 0.532828
4.49982 5.8747 -12.5048 -0.148686 0.692526 -0.705863 0.310001 0.534467
5.46002 4.61993 -12.8753 0.253945 -0.0326239 -0.966643 0.329095 0.518007
4.37353 0.395938 -12.9075 0.265175 -0.541673 -0.797632 0.396443 0.534256
8.33825 3.65572 12.1804 0.716514 0.554399 0.423292 0.144039 0.88693
7.68805 4.22777 14.4214 0.632801 0.62566 0.45616 0.142329 0.926596
7.50305 2.47549 14.8548 0.440016 0.398022 0.804926 0.1147 0.924697
-12.5475 4.34745 7.30225 -0.29313 0.697775 0.653584 0.996182 0.785237
-12.0284 3.15266 8.07183 -0.247139 0.214454 0.944914 0.976092 0.772816
-9.81976 3.1958 8.46903 -0.368389 0.0614029 0.92761 0.977949 0.735695
5.51581 0.668512 -12.4194 0.572527 -0.396466 -0.717612 0.389051 0.522512
5.51581 0.668512 -12.4194 0.572527 -0.396466 -0.717612 0.221944 0.941286
6.91327 5.15147 -11.3723 0.604816 -0.285348 -0.743461 0.243653 0.874992
6.59686 0.195866 -10.8757 0.428419 -0.778314 -0.458968 0.243653 0.955598
2.51984 1.31903 15.4062 0.008606 0.0810879 0.996643 0.943509 0.503649
-0.040161 0.382076 15.3769 -0.127567 -0.638539 0.758904 0.926412 0.544298
4.91937 0.180527 15.4105 0.005066 -0.672628 0.739952 0.928037 0.465301
15.0276 0.371011 2.66638 0.724815 -0.596881 0.343974 0.129596 0.018059
13.894 0.795812 5.39919 0.768273 -0.329753 0.548601 0.176063 0.011087
13.1011 0.314433 5.0755 0.23838 -0.965117 0.108158 0.178066 0.025348
10.1786 0.428136 12.3827 0.7463 -0.61272 0.259896 0.301516 0.005379
10.5046 0.189314 8.39484 0.254585 -0.953825 0.159185 0.244386 0.034568
-15.2398 0.312518 -3.78551 -0.5656 -0.68688 -0.456374 0.285376 0.508121
14.3006 0.222922 -5.52455 0.300851 -0.791162 -0.532426 0.023485 0.098022
14.6594 0.142747 -4.15846 0.107974 -0.990051 -0.0901211 0.039275 0.081294
11.8248 1.03657 -7.20493 -0.248756 -0.933653 0.257607 0.020406 0.147692
16.1453 0.161772 -0.878489 0.357585 -0.933805 0.00820888 0.072139 0.032099
16.5263 0.478657 -0.0627189 0.870205 -0.415723 0.264351 0.080196 0.019626
-16.4722 0.331745 -0.533201 -0.9588 0.277139 -0.061892 0.393386 0.938786
15.0504 4.49897 0.890783 0.915891 0.359203 0.179083 0.766609 0.195044
14.4577 2.84422 3.59848 0.882595 0.226814 0.411756 0.748861 0.244247
15.0276 0.371011 2.66638 0.724815 -0.596881 0.343974 0.706973 0.234442
12.4691 0.222886 6.78165 0.590442 -0.692465 0.414502 0.206493 0.019988
11.0773 1.065 9.29313 0.917447 -0.250313 0.309183 0.251984 0.018509
-6.35156 8.58222 -7.83992 -0.318705 0.814936 -0.484024 0.885149 0.073175
-11.6252 7.70193 -5.4541 -0.604419 0.658162 -0.448866 0.895703 0.168993
-14.0181 4.57771 4.50331 -0.774926 0.421033 0.471358 0.68984 0.397399
-13.6549 7.45685 2.19848 -0.857326 0.423963 -0.291879 0.653005 0.36807
-2.89893 13.1405 -2.63529 -0.521043 0.454451 -0.722434 0.574767 0.165789
-5.13672 12.4908 -1.57902 -0.437452 0.644704 -0.62685 0.582623 0.207589
-0.435913 19.6091 1.98229 0.024018 0.847865 0.529618 0.708866 0.758438
2.54553 21.6729 0.870547 -0.031007 0.866329 0.498428 0.65544 0.770238
-1.7854 20.5448 0.507464 -0.48674 0.798608 0.353923 0.710359 0.724255
7.39258 12.4367 -3.99137 0.684011 0.330851 -0.650105 0.163395 0.836999
7.05981 15.189 -1.54129 0.830622 0.406903 -0.380047 0.112214 0.807541
8.32672 14.9831 1.61574 0.847163 0.531175 0.00967407 0.108734 0.756117
16.0574 1.51517 -4.00723 0.842524 0.0855741 -0.531785 0.707046 0.120694
16.4842 3.05985 -1.3578 0.919767 0.391644 0.0246281 0.734958 0.160283
16.3742 0.490685 -3.33626 0.798639 -0.527879 -0.288919 0.691656 0.134007
11.9667 5.64329 -0.288349 0.255837 0.954802 0.151128 0.793065 0.639058
-13.8163 6.16156 2.11095 -0.842555 0.538408 -0.0135199 0.189393 0.881362
-14.942 5.47918 1.07646 -0.852016 0.513627 0.100894 0.189393 0.906396
-14.0181 4.57771 4.50331 -0.774926 0.421033 0.471358 0.157449 0.885307
4.27539 12.3045 8.51605 0.068667 0.583026 0.809503 0.621481 0.686535
3.6369 9.93579 9.37369 -0.268624 0.256783 0.928373 0.640253 0.649219
-11.1043 0.128914 -8.43871 -0.158391 -0.958586 -0.236549 0.188438 0.48815
-0.62085 0.0931257 -13.0053 -0.2331 -0.732505 -0.639576 0.041502 0.37611
16.5263 0.478657 -0.0627189 0.870205 -0.415723 0.264351 0.697871 0.18792
-15.2398 0.312518 -3.78551 -0.5656 -0.68688 -0.456374 0.401233 0.892174
-16.5473 0.113388 -1.69063 -0.838282 -0.529893 -0.128361 0.400248 0.929483
-15.6014 2.06938 -4.08011 -0.769829 -0.0953089 -0.631062 0.375357 0.894077
-14.1704 5.55123 -3.53194 -0.756859 0.64275 -0.11832 0.890103 0.221517
-13.922 5.55098 -2.1776 -0.253365 0.956145 -0.146764 0.869649 0.229613
-12.0142 7.70741 -4.01655 -0.619312 0.784845 0.0206001 0.879328 0.186927
-4.18707 10.5057 8.24442 -0.631916 0.215217 0.74453 0.536689 0.577819
-4.98688 6.56187 7.8977 -0.599872 0.439802 0.668325 0.561424 0.516849
-2.11688 5.70733 13.6651 -0.370312 0.685232 0.627125 0.441159 0.553592
-2.11676 5.70733 13.6651 -0.028535 0.743584 0.66802 0.441157 0.553592
-2.79785 7.39057 11.1027 -0.633747 0.488205 0.599963 0.441159 0.509205
-1.22192 5.928 13.1812 -0.181951 0.750175 0.635701 0.710796 0.884791
-2.11676 5.70733 13.6651 -0.028535 0.743584 0.66802 0.694755 0.883342
-0.145508 5.31719 14.3985 -0.165654 0.352916 0.920835 0.718848 0.85891
7.56958 12.7482 7.20571 0.437971 0.672842 0.596149 0.649155 0.724255
-13.9506 6.16487 0.350861 -0.488815 0.871303 -0.0427869 0.835562 0.251898
-9.51227 8.48402 -0.282185 -0.645466 0.676656 -0.354167 0.808169 0.183405
4.04339 16.1539 4.03346 0.49205 0.601337 0.629444 0.068175 0.719094
7.3645 16.0125 1.45826 0.778375 0.598956 0.188025 0.090455 0.762112
2.50629 20.5387 -3.87011 0.065279 0.396863 -0.915525 0.438962 0.620358
4.75629 21.5764 -0.982454 0.573595 0.786615 -0.228431 0.438962 0.68133
3.63769 20.0252 -3.44482 0.570238 0.35783 -0.739402 0.428804 0.637614
-0.435913 19.6091 1.98229 0.024018 0.847865 0.529618 0.762253 0.8349
-1.7854 20.5448 0.507464 -0.48674 0.798608 0.353923 0.775171 0.804243
-1.7793 19.5982 2.47824 -0.311747 0.85641 0.411512 0.78497 0.835503
-14.6867 4.86627 -3.73557 -0.84225 0.426954 -0.329081 0.897011 0.227015
7.94202 5.90978 -11.0762 0.480544 0.535966 -0.694082 0.786759 0
-6.48169 1.69486 10.4504 -0.647938 0.186773 0.738395 0.952832 0.672203
0.039185 15.5177 7.98248 0.018555 0.523026 0.852107 0.78497 0.932631
8.93445 10.2597 -1.05291 0.950102 0.235359 -0.204566 0.191398 0.781734
8.82953 13.3723 1.84133 0.970122 0.235786 -0.05707 0.13401 0.746554
-10.4124 1.01951 8.28611 -0.432508 -0.0924411 0.896847 0.94377 0.745654
9.74524 0.0446926 3.41546 0.033815 -0.999329 0.0139159 0.182443 0.087757
7.56958 12.7482 7.20571 0.437971 0.672842 0.596149 0.120675 0.65636
7.85004 11.0619 8.06939 0.698447 0.242439 0.673299 0.144138 0.636027
8.42834 12.3867 6.56687 0.790857 0.486221 0.371563 0.131253 0.665802
7.85004 11.0619 8.06939 0.698447 0.242439 0.673299 0.672556 0.705234
7.73913 7.45747 8.81006 0.571734 0.280221 0.771081 0.195694 0.610158
13.3329 4.75577 -5.15216 0.604114 0.719016 -0.343516 0.741421 0.574455
15.0504 4.49897 0.890783 0.915891 0.359203 0.179083 0.755892 0.678269
15.1777 3.96543 -3.9145 0.695059 0.620685 -0.362774 0.722628 0.606029
-2.67517 14.2231 8.19979 -0.136753 0.29429 0.94586 0.520296 0.642546
-13.6549 7.45685 2.19848 -0.857326 0.423963 -0.291879 0.599529 0.724255
7.76819 6.38621 9.34592 0.468184 0.568194 0.676687 0.721245 0.642991
-4.21423 2.08896 14.1875 -0.5627 -0.216468 0.797784 0.95197 0.617035
-4.7464 0.508789 12.2379 -0.487655 -0.705741 0.513871 0.931551 0.635228
-14.6703 5.8536 -2.08949 -0.458419 0.839259 -0.292306 0.874605 0.241141
-2.74591 19.7643 -0.286621 -0.821162 0.517899 -0.239601 0.418912 0.963429
-1.7793 19.5982 2.47824 -0.311747 0.85641 0.411512 0.880863 0.370426
-1.7854 20.5448 0.507464 -0.48674 0.798608 0.353923 0.882721 0.39352
-2.74591 19.7643 -0.286621 -0.821162 0.517899 -0.239601 0.861316 0.39352
2.66345 21.5577 -3.0746 0.232917 0.810724 -0.537034 0.78497 0.89411
4.04339 16.1539 4.03346 0.49205 0.601337 0.629444 0.806841 0.347198
7.3645 16.0125 1.45826 0.778375 0.598956 0.188025 0.861316 0.387732
-0.451294 11.1438 -6.59093 0.029145 0.687551 -0.725516 0.608273 0.944869
-0.079773 10.3319 -7.4237 0.446791 0.713706 -0.539384 0.59059 0.938471
-4.12225 8.61395 -8.72633 -0.14536 0.566363 -0.811212 0.608273 0.881731
8.96753 7.09847 -3.52806 0.651112 0.665944 -0.364025 0.247833 0.809881
-12.051 7.31885 0.996866 -0.584979 0.607807 -0.536973 0.811384 0.230504
-13.8163 6.16156 2.11095 -0.842555 0.538408 -0.0135199 0.810521 0.265117
-2.11676 5.70733 13.6651 -0.028535 0.743584 0.66802 0.634341 0.538841
-2.11688 5.70733 13.6651 -0.370312 0.685232 0.627125 0.634339 0.53884
-2.51471 4.40202 14.6144 -0.378246 0.458266 0.804285 0.646727 0.518212
-0.145508 5.31719 14.3985 -0.165654 0.352916 0.920835 0.665121 0.553907
1.1167 4.68707 14.452 -0.031404 0.511582 0.858638 0.68605 0.558127
-1.80151 8.28718 10.5091 -0.291055 0.602466 0.743156 0.718848 0.929793
-6.37543 3.28112 -9.33737 -0.240608 0.35432 -0.903623 0.357697 0.716661
-3.91333 6.19816 9.43141 -0.710501 -0.291879 0.640278 0.45169 0.924261
-4.98688 6.56187 7.8977 -0.599872 0.439802 0.668325 0.442084 0.894625
-7.10889 5.77687 7.2626 -0.330149 0.599292 0.72924 0.453652 0.859892
-16.3931 2.78796 1.52338 -0.754875 0.654225 -0.0459609 0.409054 0.594389
-15.1946 3.07361 1.35307 -0.747032 0.664296 0.0250861 0.428175 0.595418
-15.6642 2.88317 -0.973725 -0.909787 0.41435 -0.0232249 0.42414 0.634818
-13.2561 4.01192 -5.29314 -0.335246 0.746666 -0.574511 0.910565 0.060354
-12.7111 3.82719 -6.8732 -0.5244 0.705374 -0.476882 0.898093 0.085003
11.9418 4.76893 5.34266 0.500504 0.67806 0.538224 0.571723 0.724255
11.0773 1.065 9.29313 0.917447 -0.250313 0.309183 0.529747 0.801578
12.4691 0.222886 6.78165 0.590442 -0.692465 0.414502 0.504899 0.762355
-3.47034 3.21795 14.6213 -0.515488 0.188879 0.83578 0.96929 0.603191
-2.68732 0.659298 13.8156 -0.456893 -0.573321 0.680044 0.932019 0.594431
-1.09448 0.85105 15.3509 -0.307871 -0.352367 0.883755 0.93278 0.561266
5.46002 4.61993 -12.8753 0.253945 -0.0326239 -0.966643 0.2215 0.87591
-12.1014 1.02954 -9.01261 -0.60387 -0.131046 -0.786218 0.400463 0.800758
4.91937 0.180527 15.4105 0.005066 -0.672628 0.739952 0.385324 0.055398
-4.41095 0.333593 -12.1302 -0.295328 -0.51207 -0.806543 0.083999 0.423144
14.3006 0.222922 -5.52455 0.300851 -0.791162 -0.532426 0.68984 0.100261
12.4593 2.93728 -7.36091 0.667959 0.0857881 -0.739219 0.733834 0.064846
10.2571 1.11352 -8.48675 0.512467 -0.518052 -0.684805 0.015513 0.181094
14.3006 0.222922 -5.52455 0.300851 -0.791162 -0.532426 0.718652 0.80594
11.8248 1.03657 -7.20493 -0.248756 -0.933653 0.257607 0.714746 0.755639
10.2571 1.11352 -8.48675 0.512467 -0.518052 -0.684805 0.718652 0.724255
-16.0425 2.73403 4.94257 -0.774102 0.592059 0.224067 0.339548 0.981345
0.807861 21.6697 -0.194747 -0.184393 0.970946 0.152409 0.830692 0.863127
1.0824 21.573 -2.75361 -0.318583 0.791162 -0.522019 0.790078 0.86771
-1.60974 20.9479 -0.82575 -0.599841 0.753044 -0.270333 0.820701 0.822926
9.37823 2.58516 11.6484 0.558428 0.541276 0.62859 0.128357 0.870576
10.3661 3.4254 10.5354 0.681143 0.622242 0.385754 0.144039 0.855183
9.37823 2.58516 11.6484 0.558428 0.541276 0.62859 0.636422 0.926955
10.2879 1.54064 12.2151 0.861995 0.307962 0.4026 0.649133 0.905888
10.3661 3.4254 10.5354 0.681143 0.622242 0.385754 0.649133 0.942205
16.3742 0.490685 -3.33626 0.798639 -0.527879 -0.288919 0.036666 0.049575
0.290405 0.77608 -13.745 -0.179479 -0.129276 -0.975219 0.399202 0.584002
3.14899 13.3191 8.0388 0.261452 0.421552 0.868252 0.596342 0.688457
2.88232 8.99931 9.17462 -0.009461 0.572863 0.819575 0.638838 0.629009
4.08154 8.00563 10.2997 0.362346 0.665181 0.652852 0.668156 0.628629
5.75006 6.11102 10.4878 0.385632 0.783441 0.487289 0.867458 0.336787
4.08154 8.00563 10.2997 0.362346 0.665181 0.652852 0.888388 0.307505
4.78766 5.52355 13.1284 0.377972 0.800775 0.464614 0.896989 0.370426
6.24512 7.02232 9.38859 0.354442 0.411878 0.839442 0.861316 0.314401
3.6369 9.93579 9.37369 -0.268624 0.256783 0.928373 0.896989 0.272189
-1.7854 20.5448 0.507464 -0.48674 0.798608 0.353923 0.841864 0.820102
-6.03894 16.0166 1.56558 -0.809778 0.585894 -0.0308539 0.517776 0.243145
-3.401 18.5841 -0.286298 -0.757622 0.481491 -0.440596 0.482726 0.186072
-1.07367 15.1586 7.90549 -0.111911 0.445112 0.888424 0.529029 0.670787
4.41485 16.2424 -3.79153 0.417859 0.271615 -0.866939 0.095081 0.846759
3.63769 20.0252 -3.44482 0.570238 0.35783 -0.739402 0.034069 0.855183
4.56036 17.3711 -3.1868 0.714042 0.267495 -0.646962 0.076428 0.841323
3.63769 20.0252 -3.44482 0.570238 0.35783 -0.739402 0.466772 0.056861
-4.28113 17.2079 4.2269 -0.527665 0.824549 0.204016 0.452543 0.663121
-12.0142 7.70741 -4.01655 -0.619312 0.784845 0.0206001 0.282141 0.842531
-11.6252 7.70193 -5.4541 -0.604419 0.658162 -0.448866 0.285801 0.824116
-14.1704 5.55123 -3.53194 -0.756859 0.64275 -0.11832 0.317512 0.877854
3.28979 6.69645 -8.23616 0.180242 0.892026 -0.414441 0.68984 0.03793
-14.942 5.47918 1.07646 -0.852016 0.513627 0.100894 0.833714 0.272189
8.96753 7.09847 -3.52806 0.651112 0.665944 -0.364025 0.815654 0.56902
13.2314 4.80725 -2.20326 0.426618 0.890408 -0.158391 0.770887 0.144738
14.9156 5.19948 0.737612 0.783197 0.618061 -0.0674459 0.777504 0.190916
5.93475 4.23677 14.8665 0.086795 0.508164 0.856838 0.871068 0.901115
7.68805 4.22777 14.4214 0.632801 0.62566 0.45616 0.996523 0.427139
13.3329 4.75577 -5.15216 0.604114 0.719016 -0.343516 0.763535 0.096127
15.1777 3.96543 -3.9145 0.695059 0.620685 -0.362774 0.747843 0.116962
-8.15069 0.940554 -10.7795 -0.394574 0.133152 -0.909146 0.400936 0.729331
-6.63696 1.5207 -10.9892 -0.284433 0.538987 -0.79281 0.523141 0.896807
-9.22094 3.08746 -8.98658 -0.14597 0.47026 -0.870357 0.523141 0.951686
-6.34485 2.56886 -9.75233 -0.248085 0.650288 -0.718009 0.504899 0.905717
-15.6982 0.346496 6.55474 -0.264229 -0.754234 0.601062 0.932344 0.838407
-16.5371 0.138343 1.15492 -0.686483 -0.720695 -0.0962551 0.391594 0.954961
-17.1291 0.503785 2.52392 -0.989441 -0.120823 -0.079806 0.382853 0.975505
-13.2482 0.267329 -7.28943 -0.673391 -0.604602 -0.425367 0.221421 0.509205
-9.90667 0.467647 -9.89806 -0.372173 -0.431928 -0.821497 0.158806 0.483224
-12.1014 1.02954 -9.01261 -0.60387 -0.131046 -0.786218 0.18856 0.507148
9.07275 0.361034 14.894 0.557268 -0.586138 0.588061 0.542126 0.896807
10.1786 0.428136 12.3827 0.7463 -0.61272 0.259896 0.532092 0.85479
9.46039 1.32893 14.627 0.782189 0.303476 0.544084 0.554783 0.889019
2.72461 0.243193 -13.4088 0.199774 -0.550127 -0.810816 0.402786 0.552968
1.383 2.806 -12.8968 0.010743 0.172246 -0.984985 0.363551 0.575673
-13.2482 0.267329 -7.28943 -0.673391 -0.604602 -0.425367 0.409054 0.832629
-12.7111 3.82719 -6.8732 -0.5244 0.705374 -0.476882 0.351745 0.827761
-15.6642 2.88317 -0.973725 -0.909787 0.41435 -0.0232249 0.353808 0.922695
-11.3213 0.364026 7.56445 -0.187048 -0.857356 0.479507 0.934409 0.763687
14.1339 5.19439 2.32378 0.589251 0.734733 0.336039 0.78338 0.217741
11.9418 4.76893 5.34266 0.500504 0.67806 0.538224 0.790522 0.270389
6.06177 6.01331 -12.8669 0.349376 0.525468 -0.775719 0.439772 0.740874
7.94202 5.90978 -11.0762 0.480544 0.535966 -0.694082 0.439772 0.784208
6.91327 5.15147 -11.3723 0.604816 -0.285348 -0.743461 0.431817 0.768204
2.39716 5.93212 -11.733 0.073733 0.827845 -0.556078 0.310082 0.570961
-16.0425 2.73403 4.94257 -0.774102 0.592059 0.224067 0.409694 0.536996
-14.3417 4.49858 6.00484 -0.538713 0.829829 0.145421 1 0.82044
-14.8384 2.93532 6.50456 -0.702414 0.440107 0.559343 0.426435 0.509205
-14.8952 3.67593 4.11437 -0.747734 0.649678 0.136967 0.428804 0.54906
-14.8384 2.93532 6.50456 -0.702414 0.440107 0.559343 0.649133 0.927471
-14.3417 4.49858 6.00484 -0.538713 0.829829 0.145421 0.665397 0.905888
-14.8952 3.67593 4.11437 -0.747734 0.649678 0.136967 0.669544 0.927471
6.06177 6.01331 -12.8669 0.349376 0.525468 -0.775719 0.796624 0.407013
-15.6202 3.74524 -3.87149 -0.872433 0.455733 -0.176366 0.348756 0.895718
-15.6202 3.74524 -3.87149 -0.872433 0.455733 -0.176366 0.538404 0.896807
-15.1946 3.07361 1.35307 -0.747032 0.664296 0.0250861 0.538404 0.938351
-15.0124 4.36018 -1.87729 -0.939055 0.343669 -0.00283795 0.523141 0.909651
-15.6202 3.74524 -3.87149 -0.872433 0.455733 -0.176366 0.428804 0.682964
-14.8952 3.67593 4.11437 -0.747734 0.649678 0.136967 0.32557 0.957473
-14.942 5.47918 1.07646 -0.852016 0.513627 0.100894 0.306447 0.930229
-15.1946 3.07361 1.35307 -0.747032 0.664296 0.0250861 0.343387 0.936993
1.66345 4.25145 15.261 -0.005982 0.476608 0.879086 0.98891 0.518533
-15.2566 3.84468 -4.60445 -0.652608 0.518632 -0.552324 0.897011 0.028073
-14.3417 4.49858 6.00484 -0.538713 0.829829 0.145421 0.504899 0.750145
-14.8952 3.67593 4.11437 -0.747734 0.649678 0.136967 0.485704 0.724255
-2.51471 4.40202 14.6144 -0.378246 0.458266 0.804285 0.988771 0.588261
-4.73181 4.39504 11.7388 -0.540819 0.681478 0.492996 0.488707 0.936242
-2.51471 4.40202 14.6144 -0.378246 0.458266 0.804285 0.504899 0.994431
4.15613 4.70185 14.6148 0.185125 0.450758 0.873226 1 0.482339
5.75378 4.66341 14.3031 0.221656 0.832545 0.507645 0.212256 0.509205
14.1339 5.19439 2.32378 0.589251 0.734733 0.336039 0.778634 0.693734
11.5266 5.70042 2.77414 0.392712 0.916257 0.0788901 0.819402 0.682666
-6.34485 2.56886 -9.75233 -0.248085 0.650288 -0.718009 0.369915 0.712707
9.58575 4.04998 9.25541 0.65276 0.696127 0.298776 0.251928 0.590853
9.76642 6.68124 6.37083 0.924223 0.233833 0.301828 0.222713 0.647871
10.4405 5.86664 4.22664 0.610859 0.712027 0.346141 0.244707 0.679943
7.6308 6.34874 -5.62472 0.297433 0.823298 -0.483352 0.82118 0.528008
-7.10889 5.77687 7.2626 -0.330149 0.599292 0.72924 0.540139 0.484657
-11.8874 5.04378 6.16126 -0.376598 0.629353 0.679739 0.484536 0.426261
-3.91333 6.19816 9.43141 -0.710501 -0.291879 0.640278 0.58572 0.523971
-3.91333 6.19816 9.43141 -0.710501 -0.291879 0.640278 0.710359 0.800843
-3.91333 6.19816 9.43142 -0.669637 -0.655293 0.349498 0.710359 0.800843
-4.98688 6.56187 7.8977 -0.599872 0.439802 0.668325 0.714746 0.831695
-2.11688 5.70733 13.6651 -0.370312 0.685232 0.627125 0.714746 0.724255
-0.377625 6.95 13.0502 -0.411634 0.643635 0.645161 0.640151 0.572295
-1.22192 5.928 13.1812 -0.181951 0.750175 0.635701 0.640249 0.55032
0.756226 6.26684 14.4166 -0.062685 0.517472 0.853389 0.66717 0.575611
4.15613 4.70185 14.6148 0.185125 0.450758 0.873226 0.144039 0.929142
4.78766 5.52355 13.1284 0.377972 0.800775 0.464614 0.159795 0.906396
3.32587 5.55614 14.5089 0.170629 0.541734 0.823023 0.159795 0.931836
3.32587 5.55614 14.5089 0.170629 0.541734 0.823023 0.013458 0.934916
4.78766 5.52355 13.1284 0.377972 0.800775 0.464614 0 0.904469
-14.0181 4.57771 4.50331 -0.774926 0.421033 0.471358 0.454689 0.397399
-13.6928 6.40097 4.54468 -0.790948 0.35783 0.496323 0.442084 0.425044
0.756226 6.26684 14.4166 -0.062685 0.517472 0.853389 0.771402 0.304803
1.15857 10.4522 9.05895 0.191961 0.656026 0.729881 0.771402 0.394472
-0.377625 6.95 13.0502 -0.411634 0.643635 0.645161 0.751907 0.32636
7.6308 6.34874 -5.62472 0.297433 0.823298 -0.483352 0.261864 0.840389
7.39258 12.4367 -3.99137 0.684011 0.330851 -0.650105 0.583676 0.009382
7.6308 6.34874 -5.62472 0.297433 0.823298 -0.483352 0.683389 0
-6.79754 10.8131 -1.91919 -0.646199 0.697897 -0.308725 0.808524 0.130944
-6.79754 10.8131 -1.91919 -0.646199 0.697897 -0.308725 0.61084 0.230371
-9.51227 8.48402 -0.282185 -0.645466 0.676656 -0.354167 0.642992 0.286314
4.56036 17.3711 -3.1868 0.714042 0.267495 -0.646962 0.506361 0.049723
4.04339 16.1539 4.03346 0.49205 0.601337 0.629444 0.409054 0.743112
2.5614 14.4837 7.98922 0.408704 0.438673 0.800287 0.431817 0.810754
3.14899 13.3191 8.0388 0.261452 0.421552 0.868252 0.416208 0.823891
7.56958 12.7482 7.20571 0.437971 0.672842 0.596149 0.861316 0.291649
-6.03894 16.0166 1.56558 -0.809778 0.585894 -0.0308539 0.68984 0.372058
-4.28113 17.2079 4.2269 -0.527665 0.824549 0.204016 0.787171 0.389879
-6.03894 16.0166 1.56558 -0.809778 0.585894 -0.0308539 0.771402 0.34928
-7.39899 13.5209 1.34251 -0.753319 0.646626 -0.119755 0.787171 0.304803
2.96124 16.919 4.32119 0.342479 0.697378 0.629536 0.424685 0.737981
3.90655 19.5306 2.09312 0.05298 0.517533 0.853999 0.431817 0.682964
2.96124 16.919 4.32119 0.342479 0.697378 0.629536 0.710355 0.83977
5.95392 20.065 0.617699 0.824976 0.525681 0.207465 0.027311 0.790529
-2.74591 19.7643 -0.286621 -0.821162 0.517899 -0.239601 0.829273 0.804243
-2.74591 19.7643 -0.286621 -0.821162 0.517899 -0.239601 0.626585 0.938816
-3.401 18.5841 -0.286298 -0.757622 0.481491 -0.440596 0.608273 0.927117
-2.633 17.6719 5.14902 -0.218848 0.817621 0.532487 0.626585 0.881731
2.66345 21.5577 -3.0746 0.232917 0.810724 -0.537034 0.442405 0.071785
3.94257 8.97883 -6.27615 0.174566 0.406781 -0.896664 0.676246 0.905888
7.6308 6.34874 -5.62472 0.297433 0.823298 -0.483352 0.636422 0.868949
3.28979 6.69645 -8.23616 0.180242 0.892026 -0.414441 0.676246 0.85891
10.1569 6.71504 1.23413 0.728141 0.685354 0.00964409 0.829396 0.649724
5.75006 6.11102 10.4878 0.385632 0.783441 0.487289 0.898965 0.834043
7.76819 6.38621 9.34592 0.468184 0.568194 0.676687 0.875555 0.804243
-4.12225 8.61395 -8.72633 -0.14536 0.566363 -0.811212 0.269671 0.688891
11.1223 3.3944 7.99256 0.751579 0.552324 0.360546 0.858783 0.759589
-15.2566 3.84468 -4.60445 -0.652608 0.518632 -0.552324 0.348782 0.883977
-1.59357 8.68965 -10.0337 -0.138462 0.651295 -0.746055 0.052039 0.885962
-1.59357 8.68965 -10.0337 -0.138462 0.651295 -0.746055 0.926412 0.397399
6.06177 6.01331 -12.8669 0.349376 0.525468 -0.775719 0.223 0.855183
12.4691 0.222886 6.78165 0.590442 -0.692465 0.414502 0.260183 0.934972
13.5104 2.86143 5.09233 0.68395 0.331767 0.649709 0.243653 0.888667
11.9418 4.76893 5.34266 0.500504 0.67806 0.538224 0.260183 0.855183
-1.12665 10.9233 8.84007 0.006012 0.625141 0.78048 0.734882 0.395682
-7.39899 13.5209 1.34251 -0.753319 0.646626 -0.119755 0.558055 0.263825
-0.451294 11.1438 -6.59093 0.029145 0.687551 -0.725516 0.107595 0.855183
-12.1841 8.2347 1.26011 -0.561022 0.368877 -0.74102 0.441818 0.91907
-7.39899 13.5209 1.34251 -0.753319 0.646626 -0.119755 0.427982 0.841784
-6.47796 14.3106 0.303155 -0.623981 0.4991 -0.601245 0.441818 0.823891
1.97809 8.02013 -6.51805 0.279244 0.610859 -0.740806 0.8975 0.475484
0.290405 0.77608 -13.745 -0.179479 -0.129276 -0.975219 0.023991 0.369118
10.1907 3.90191 7.61793 0.605335 0.717887 0.34376 0.261864 0.617204
2.88232 8.99931 9.17462 -0.009461 0.572863 0.819575 0.052039 0.855183
2.07452 5.63472 14.4239 0.086795 0.442305 0.892636 0.688528 0.580326
-0.585449 19.0569 3.67428 0.054598 0.829829 0.555284 0.773046 0.860883
0.980347 19.3655 2.08398 0.132969 0.641255 0.755699 0.741449 0.844158
-14.8952 3.67593 4.11437 -0.747734 0.649678 0.136967 0.150344 0.905556
-12.5333 4.7012 6.38425 -0.268441 0.916105 0.297769 0.144039 0.855183
-14.7628 4.10216 -4.05727 -0.568743 0.733482 -0.372143 0.908668 0.02786
-15.0124 4.36018 -1.87729 -0.939055 0.343669 -0.00283795 0.931296 0
-17.1291 0.503785 2.52392 -0.989441 -0.120823 -0.079806 0.386851 0.481737
-15.6202 3.74524 -3.87149 -0.872433 0.455733 -0.176366 0.901631 0.015316
-0.585449 19.0569 3.67428 0.054598 0.829829 0.555284 0.476214 0.724255
-3.401 18.5841 -0.286298 -0.757622 0.481491 -0.440596 0.734882 0.396503
8.71106 13.0554 3.92961 0.908567 0.369579 0.194525 0.441445 0.682964
7.56958 12.7482 7.20571 0.437971 0.672842 0.596149 0.441445 0.740874
8.42834 12.3867 6.56687 0.790857 0.486221 0.371563 0.431817 0.726067
11.5266 5.70042 2.77414 0.392712 0.916257 0.0788901 0.255911 0.703468
4.15613 4.70185 14.6148 0.185125 0.450758 0.873226 0.722628 0.588792
3.32587 5.55614 14.5089 0.170629 0.541734 0.823023 0.704458 0.591835
-3.91333 6.19816 9.43142 -0.669637 -0.655293 0.349498 0.58572 0.523971
4.15613 4.70185 14.6148 0.185125 0.450758 0.873226 0.441157 0.509205
-5.69763 8.18531 -9.10851 -0.123356 0.519669 -0.845393 0.897011 0.052823
-16.0425 2.73403 4.94257 -0.774102 0.592059 0.224067 0.973353 0.852602
10.5046 0.189314 8.39484 0.254585 -0.953825 0.159185 0.515719 0.790115
7.50305 2.47549 14.8548 0.440016 0.398022 0.804926 0.59059 0.945962
9.46039 1.32893 14.627 0.782189 0.303476 0.544084 0.571723 0.919382
10.2879 1.54064 12.2151 0.861995 0.307962 0.4026 0.59059 0.881731
7.94202 5.90978 -11.0762 0.480544 0.535966 -0.694082 0.685257 0.95592
5.51581 0.668512 -12.4194 0.572527 -0.396466 -0.717612 0 0.282746
-16.9458 0.187442 4.34189 -0.838313 -0.520951 0.160588 0.722252 0.80594
-16.5471 1.6205 1.98042 -0.979186 0.194586 -0.057161 0.722252 0.845883
-17.1291 0.503785 2.52392 -0.989441 -0.120823 -0.079806 0.714746 0.835422
-16.5197 0.495847 6.19459 -0.788141 -0.330576 0.51912 0.563634 0.896807
-16.5471 1.6205 1.98042 -0.979186 0.194586 -0.057161 0.563634 0.933763
-16.9458 0.187442 4.34189 -0.838313 -0.520951 0.160588 0.550932 0.90606
-6.21777 14.9534 3.36339 -0.783593 0.597949 0.168432 0.445635 0.612953
-13.6928 6.40097 4.54468 -0.790948 0.35783 0.496323 0.661267 0.390669
-13.6928 6.40097 4.54468 -0.790948 0.35783 0.496323 0.636422 0.729618
-5.20135 15.537 5.78511 -0.768914 0.412458 0.48851 0.636422 0.870739
-1.7793 19.5982 2.47824 -0.311747 0.85641 0.411512 0.450708 0.718585
10.2879 1.54064 12.2151 0.861995 0.307962 0.4026 0.107595 0.871903
-2.68732 0.659298 13.8156 -0.456893 -0.573321 0.680044 0.4248 0.178218
-4.21423 2.08896 14.1875 -0.5627 -0.216468 0.797784 0.442084 0.196692
2.66345 21.5577 -3.0746 0.232917 0.810724 -0.537034 0.538404 0.926885
4.75629 21.5764 -0.982454 0.573595 0.786615 -0.228431 0.550932 0.896807
2.50629 20.5387 -3.87011 0.065279 0.396863 -0.915525 0.550932 0.94269
-1.09448 0.85105 15.3509 -0.307871 -0.352367 0.883755 0.432936 0.142243
9.75171 7.56638 -0.896408 0.879086 0.468398 -0.0882289 0.821551 0.614418
6.24512 7.02232 9.38859 0.354442 0.411878 0.839442 0.898034 0.81402
3 0 1 2 
3 3 4 5 
3 6 7 8 
3 9 10 2 
3 11 12 13 
3 14 15 16 
3 17 18 19 
3 20 21 22 
3 23 24 6 
3 25 26 27 
3 28 29 30 
3 31 32 33 
3 34 35 36 
3 37 38 39 
3 40 41 42 
3 43 44 45 
3 46 47 48 
3 49 50 51 
3 52 53 54 
3 55 56 57 
3 6 58 7 
3 59 60 61 
3 62 63 64 
3 65 66 67 
3 68 69 70 
3 71 72 73 
3 74 75 76 
3 77 78 79 
3 80 9 1 
3 81 82 83 
3 84 85 86 
3 87 88 89 
3 90 91 92 
3 14 93 94 
3 95 96 97 
3 98 99 100 
3 71 73 101 
3 102 103 104 
3 80 105 5 
3 106 82 107 
3 106 0 82 
3 108 8 109 
3 84 110 85 
3 111 112 113 
3 114 115 116 
3 117 118 119 
3 120 121 122 
3 123 124 125 
3 126 127 128 
3 129 130 131 
3 130 132 133 
3 127 134 128 
3 128 134 135 
3 29 136 137 
3 138 139 140 
3 141 86 138 
3 142 143 144 
3 74 145 146 
3 107 147 148 
3 149 150 151 
3 152 153 154 
3 155 146 156 
3 157 158 159 
3 160 161 162 
3 41 163 164 
3 165 166 167 
3 138 168 169 
3 62 64 170 
3 171 172 173 
3 171 174 175 
3 176 177 178 
3 179 180 181 
3 182 183 184 
3 185 186 187 
3 171 135 188 
3 189 190 191 
3 126 128 70 
3 182 192 183 
3 89 193 194 
3 41 164 195 
3 65 196 30 
3 197 198 199 
3 200 201 202 
3 203 204 157 
3 157 204 158 
3 205 206 207 
3 205 208 206 
3 44 209 45 
3 210 211 212 
3 213 214 211 
3 215 216 217 
3 218 219 220 
3 213 221 214 
3 222 223 224 
3 225 226 227 
3 228 229 230 
3 231 54 232 
3 80 1 107 
3 107 148 233 
3 234 235 236 
3 228 237 238 
3 46 239 47 
3 240 241 242 
3 232 243 244 
3 138 140 168 
3 245 246 132 
3 123 247 248 
3 182 170 192 
3 134 249 188 
3 187 249 250 
3 251 252 253 
3 254 255 256 
3 257 258 259 
3 260 90 92 
3 261 262 263 
3 264 265 32 
3 105 266 267 
3 80 53 9 
3 259 258 268 
3 269 270 271 
3 203 206 208 
3 272 273 274 
3 275 276 66 
3 277 278 279 
3 280 281 282 
3 283 264 32 
3 273 284 285 
3 177 286 287 
3 288 289 290 
3 291 292 293 
3 273 272 294 
3 8 108 225 
3 152 154 295 
3 200 296 201 
3 179 181 297 
3 298 299 120 
3 300 296 220 
3 80 301 232 
3 302 303 304 
3 283 32 305 
3 304 303 306 
3 9 2 1 
3 230 301 235 
3 232 301 230 
3 240 268 258 
3 220 200 218 
3 220 296 200 
3 8 7 109 
3 307 91 308 
3 309 307 308 
3 275 65 310 
3 120 299 121 
3 38 37 311 
3 33 312 31 
3 201 296 313 
3 313 296 314 
3 295 154 78 
3 211 210 213 
3 273 294 315 
3 132 129 245 
3 36 316 34 
3 317 318 319 
3 11 320 12 
3 321 17 19 
3 322 321 19 
3 128 135 173 
3 65 275 66 
3 323 324 325 
3 298 326 254 
3 256 298 254 
3 299 298 256 
3 284 327 285 
3 284 328 327 
3 329 330 331 
3 332 331 333 
3 332 329 331 
3 67 196 65 
3 334 281 280 
3 67 329 196 
3 138 335 141 
3 169 335 138 
3 336 337 338 
3 104 61 60 
3 339 340 341 
3 342 115 343 
3 6 8 23 
3 344 345 346 
3 347 348 349 
3 223 222 350 
3 351 27 26 
3 352 53 52 
3 352 9 53 
3 267 266 353 
3 354 79 355 
3 356 236 3 
3 357 358 359 
3 51 356 3 
3 48 360 46 
3 173 135 171 
3 361 362 363 
3 361 12 362 
3 364 365 215 
3 366 367 368 
3 369 235 234 
3 237 235 369 
3 238 237 369 
3 370 145 74 
3 29 265 371 
3 265 372 373 
3 372 265 29 
3 33 32 265 
3 374 375 376 
3 375 377 378 
3 374 377 375 
3 379 361 363 
3 379 12 361 
3 380 186 185 
3 250 249 134 
3 188 187 381 
3 188 249 187 
3 183 310 382 
3 383 384 385 
3 68 173 386 
3 387 182 184 
3 372 29 28 
3 388 389 390 
3 132 246 274 
3 389 140 390 
3 168 140 389 
3 69 391 126 
3 328 284 392 
3 392 284 315 
3 92 207 393 
3 394 395 240 
3 42 195 396 
3 195 42 41 
3 109 7 397 
3 355 398 399 
3 355 153 398 
3 400 26 25 
3 401 402 403 
3 240 242 268 
3 404 44 43 
3 242 241 149 
3 47 405 406 
3 47 239 405 
3 107 266 105 
3 266 233 407 
3 233 266 107 
3 51 267 49 
3 267 51 105 
3 236 4 3 
3 236 235 4 
3 408 266 407 
3 408 353 266 
3 409 408 407 
3 0 106 1 
3 107 1 106 
3 232 54 53 
3 230 243 232 
3 230 229 243 
3 156 26 400 
3 352 10 9 
3 21 410 411 
3 24 58 6 
3 21 412 410 
3 21 411 345 
3 214 413 414 
3 413 370 414 
3 414 370 74 
3 351 415 416 
3 270 239 271 
3 399 258 257 
3 399 257 355 
3 257 354 355 
3 146 145 156 
3 239 46 417 
3 314 300 418 
3 314 296 300 
3 300 219 44 
3 220 219 300 
3 419 420 150 
3 419 240 395 
3 258 399 240 
3 421 422 423 
3 211 214 414 
3 76 211 414 
3 212 211 76 
3 212 76 424 
3 74 76 414 
3 155 75 146 
3 339 425 340 
3 219 209 44 
3 209 218 426 
3 219 218 209 
3 45 209 426 
3 425 427 428 
3 429 430 431 
3 203 208 432 
3 204 203 432 
3 417 433 271 
3 434 435 436 
3 437 341 340 
3 438 439 440 
3 161 440 439 
3 225 108 441 
3 342 343 442 
3 443 89 444 
3 202 347 445 
3 347 201 313 
3 202 201 347 
3 336 446 447 
3 446 338 88 
3 336 338 446 
3 109 448 108 
3 199 198 449 
3 103 450 451 
3 307 92 91 
3 25 335 452 
3 441 108 448 
3 453 122 454 
3 122 455 120 
3 456 207 206 
3 456 393 207 
3 457 64 458 
3 276 64 457 
3 330 459 331 
3 460 461 462 
3 463 461 460 
3 464 196 465 
3 30 196 464 
3 466 332 333 
3 332 464 465 
3 466 464 332 
3 467 468 469 
3 95 470 471 
3 472 458 473 
3 473 63 62 
3 63 473 458 
3 474 475 476 
3 120 167 298 
3 167 120 165 
3 326 477 254 
3 478 479 69 
3 132 480 133 
3 285 480 273 
3 481 185 250 
3 481 482 185 
3 478 69 68 
3 183 192 275 
3 478 68 483 
3 70 173 68 
3 70 128 173 
3 484 485 486 
3 19 487 322 
3 287 256 255 
3 178 384 176 
3 178 385 384 
3 191 190 488 
3 489 490 491 
3 178 287 255 
3 188 135 134 
3 187 186 381 
3 185 187 250 
3 184 183 382 
3 178 255 385 
3 492 484 493 
3 485 484 492 
3 94 494 14 
3 178 495 287 
3 178 177 495 
3 174 188 381 
3 188 174 171 
3 363 496 379 
3 497 498 499 
3 173 172 500 
3 170 276 192 
3 170 64 276 
3 192 276 275 
3 29 382 65 
3 501 502 503 
3 260 92 504 
3 197 453 306 
3 199 453 197 
3 505 163 506 
3 164 163 505 
3 335 144 452 
3 144 507 142 
3 335 507 144 
3 508 104 60 
3 102 104 508 
3 433 509 271 
3 119 510 117 
3 143 424 76 
3 159 158 511 
3 75 143 76 
3 509 269 271 
3 269 416 415 
3 509 416 269 
3 350 512 223 
3 417 271 239 
3 513 514 515 
3 270 405 239 
3 154 355 78 
3 154 153 355 
3 144 75 452 
3 144 143 75 
3 138 86 139 
3 140 85 390 
3 140 139 85 
3 475 516 476 
3 517 380 185 
3 132 130 129 
3 385 255 254 
3 302 256 287 
3 256 302 121 
3 183 275 310 
3 310 65 382 
3 518 118 117 
3 305 32 31 
3 132 274 480 
3 480 274 273 
3 248 124 123 
3 519 520 521 
3 248 517 124 
3 125 185 482 
3 125 124 185 
3 284 273 315 
3 454 121 304 
3 122 121 454 
3 453 454 306 
3 157 522 206 
3 159 522 157 
3 116 115 342 
3 161 439 162 
3 85 160 390 
3 160 110 161 
3 85 110 160 
3 27 351 416 
3 225 441 445 
3 445 347 349 
3 225 445 349 
3 418 44 404 
3 300 44 418 
3 25 155 400 
3 8 227 23 
3 225 227 8 
3 82 0 83 
3 107 82 147 
3 107 105 80 
3 5 51 3 
3 5 105 51 
3 267 523 49 
3 524 122 453 
3 524 455 122 
3 525 96 95 
3 526 466 333 
3 454 304 306 
3 495 177 287 
3 252 93 14 
3 181 527 297 
3 181 528 527 
3 262 529 263 
3 226 225 349 
3 528 291 527 
3 252 251 93 
3 263 529 530 
3 156 400 155 
3 89 88 338 
3 92 307 207 
3 442 531 342 
3 531 442 532 
3 25 27 141 
3 16 252 14 
3 29 371 136 
3 86 85 139 
3 147 82 533 
3 79 78 355 
3 534 532 442 
3 169 507 335 
3 504 451 260 
3 371 265 264 
3 382 137 535 
3 536 190 189 
3 70 69 126 
3 537 538 539 
3 540 165 120 
3 541 526 333 
3 97 470 95 
3 541 542 526 
3 67 543 330 
3 543 66 276 
3 67 66 543 
3 64 63 458 
3 193 89 338 
3 455 540 120 
3 113 544 111 
3 129 545 245 
3 425 428 340 
3 75 155 452 
3 89 443 87 
3 419 241 240 
3 241 150 149 
3 419 150 241 
3 146 75 74 
3 259 354 257 
3 45 546 43 
3 547 345 411 
3 548 549 550 
3 57 56 551 
3 51 50 552 
3 230 237 228 
3 237 230 235 
3 553 554 555 
3 556 557 558 
3 559 170 182 
3 170 559 62 
3 559 473 62 
3 560 248 247 
3 38 311 561 
3 39 38 562 
3 293 527 291 
3 563 382 535 
3 29 137 382 
3 30 29 65 
3 451 90 260 
3 451 450 90 
3 217 364 215 
3 564 364 217 
3 565 566 2 
3 348 347 313 
3 232 53 80 
3 22 345 344 
3 22 21 345 
3 103 102 450 
3 335 25 141 
3 19 18 487 
3 320 362 12 
3 567 568 569 
3 175 172 171 
3 203 157 206 
3 565 10 570 
3 2 10 565 
3 393 571 92 
3 326 298 167 
3 505 506 572 
3 299 256 121 
3 5 301 80 
3 301 4 235 
3 5 4 301 
