ply
format ascii 1.0
comment VCGLIB generated
comment TextureFile rock_texture.jpg
element vertex 586
property float x
property float y
property float z
property float nx
property float ny
property float nz
property float texture_u
property float texture_v
element face 552
property list uchar int vertex_indices
end_header
6.40472 8.4377 -8.32772 0.91583 0.332347 -0.225318 0.63959 0.082435
7.14346 10.8241 -0.946041 0.916044 0.333934 -0.222053 0.675595 0.211611
8.44851 7.17212 -1.51334 0.724021 0.666524 -0.177557 0.607537 0.199071
3.79269 16.5412 -0.785762 0.425214 0.898984 0.104678 0.985017 0.235947
2.55246 16.7321 -0.695416 0.257942 0.962157 -0.0875879 0.998926 0.221647
4.56622 13.882 0.918804 0.544969 0.778344 0.311655 0.998926 0.289667
3.09949 14.2777 8.82984 0.195837 0.950346 0.241707 0.978701 0.166677
3.87323 13.9671 11.946 -0.46205 0.700827 0.543443 0.955163 0.218166
6.49597 13.9855 11.2947 0.610981 0.706351 0.357372 0.911372 0.198354
10.4342 5.18572 7.62025 0.766961 0.475082 0.431318 0.985017 0.312672
11.6936 4.82663 3.23152 0.956084 0.278726 0.090335 0.968008 0.392187
10.1057 5.43903 6.78838 0.616352 0.752312 0.232582 0.973054 0.32272
8.02752 5.1599 12.1555 0.849605 0.124729 0.512406 0.568394 0.4412
9.42947 3.3497 7.82924 0.792352 -0.0766931 0.605182 0.533632 0.362166
10.4342 5.18572 7.62025 0.766961 0.475082 0.431318 0.562179 0.356747
6.59292 0.526589 14.4466 0.274056 -0.591296 0.758415 0.157586 0.547736
8.04483 1.19697 13.6549 0.812738 -0.14127 0.565172 0.180739 0.554037
7.26941 1.95011 14.229 0.546159 0.248543 0.799951 0.176972 0.567851
4.74188 2.92666 14.681 0.128025 0.287088 0.949278 0.146971 0.595866
2.18863 3.34575 14.7018 0.068514 0.126072 0.989624 0.110426 0.617113
2.56464 0.402934 14.8088 0.004883 -0.599506 0.800317 0.096104 0.567031
-9.25332 6.11657 -12.0136 -0.315012 0.476943 -0.820521 0.802069 0.329585
-10.0608 0.690678 -12.9555 -0.386822 -0.433424 -0.813929 0.900232 0.338046
-10.6734 5.58286 -12.0635 -0.3596 0.627735 -0.690359 0.812492 0.353514
1.36246 6.92244 12.6873 -0.064302 0.598895 0.798212 0.112389 0.689127
1.94287 10.6987 12.0217 0.275948 0.203253 0.939421 0.144529 0.749851
0.730103 11.4634 12.5596 0.138279 0.40672 0.903012 0.133872 0.766525
10.372 6.56932 2.54627 0.579424 0.804376 -0.131046 0.409423 0.574629
11.4007 6.18144 1.14201 0.678487 0.712729 0.177953 0.435061 0.592485
9.5954 6.57322 -0.530208 0.424482 0.903867 -0.0530409 0.414426 0.630649
8.77707 0.437511 8.06173 0.507126 -0.811975 0.288888 0.092874 0.109639
12.1759 0.11024 0.176847 0.18601 -0.980773 0.0585039 0.020411 0.243979
12.1234 0.249746 1.34069 0.738762 -0.63979 0.211829 0.023123 0.223396
1.59918 0.359177 -16.09 0.126713 -0.537797 -0.833461 0.904141 0.123638
3.88272 0.949448 -14.9683 0.455153 -0.0518199 -0.888882 0.890348 0.090205
4.77554 0.289279 -14.3119 0.310312 -0.686758 -0.657247 0.900355 0.078077
-11.9734 4.03795 3.70187 -0.438307 0.637135 0.633961 0.018446 0.814579
-12.3283 0.732329 4.54517 -0.520035 -0.364025 0.772668 0.076971 0.799121
-9.61722 1.93508 5.11885 -0.353313 0.0958889 0.93057 0.067522 0.85165
13.2595 0.632559 -0.509943 0.92468 -0.290078 0.246529 0.476105 0.207825
12.9341 0.238924 -1.0397 0.565935 -0.821741 -0.0663471 0.470606 0.199036
12.9905 1.11943 -2.93974 0.918729 -0.181219 -0.35078 0.48653 0.16541
-4.99457 3.00012 -14.8491 -0.183874 0.0439471 -0.981933 0.859406 0.242621
-4.32251 4.0134 -14.9527 -0.175634 0.106326 -0.978668 0.841224 0.230777
-3.42581 3.13052 -15.0822 -0.179449 0.00763013 -0.983734 0.856512 0.214718
-6.74005 6.94331 4.47352 -0.024262 0.987823 0.1536 0 0
-6.74005 6.94331 4.47352 0.17655 -0.172765 0.968993 0 0
-6.74005 6.94331 4.47352 0.036256 0.998535 0.0395521 0 0
-4.72348 11.1572 -9.79992 -0.636738 0.694968 -0.333964 0.986575 0.742709
-5.186 9.87623 -12.3354 -0.617756 0.65865 -0.429518 0.992815 0.793426
-6.37173 9.46618 -8.6136 -0.414777 0.762352 -0.496719 0.942771 0.747885
-1.5972 11.4289 12.6354 -0.445601 0.518326 0.729881 0.097924 0.778908
-2.59198 9.57469 11.4698 -0.844874 0.158025 0.511032 0.063437 0.760304
-1.93753 8.09607 12.58 -0.336436 0.214911 0.916837 0.06891 0.727414
2.68762 6.87738 13.0913 -0.031892 0.667531 0.743858 0.134708 0.67889
3.65497 9.53637 12.4187 -0.028718 0.153172 0.987762 0.164952 0.719433
-6.74005 6.94331 4.47352 -0.024262 0.987823 0.1536 0.470606 0.547736
-5.68509 8.15636 4.22413 -0.783441 0.421705 0.456435 0.470606 0.567196
-6.74005 6.94331 4.47352 0.17655 -0.172765 0.968993 0.470606 0.547736
5.67309 12.9916 -7.14533 0.814722 0.54445 -0.199377 0.721099 0.104849
6.36416 10.5039 -7.25104 0.967406 0.187139 -0.170446 0.675323 0.101623
-0.658508 15.1918 5.56586 -0.277505 0.91467 0.293832 0.872152 0.398796
0.499084 16.9573 1.81989 -0.132054 0.988067 0.0789511 0.898567 0.470019
-0.612701 15.3397 2.8396 -0.491836 0.842616 0.219153 0.867612 0.447072
8.43322 7.81828 0.778132 0.816919 0.513504 -0.26252 0.386844 0.614312
-13.0922 5.3943 -8.43309 -0.845332 0.534165 -0.00415093 0.948488 0.810127
-11.0771 6.43965 -6.79298 -0.754448 0.636921 0.15833 0.992342 0.793426
-12.587 5.6783 -9.35431 -0.559435 0.802881 -0.205756 0.951702 0.82822
6.78366 1.61217 -13.7173 0.323954 0.0852381 -0.942198 0.874664 0.046872
9.84082 0.534526 -12.5972 0.647206 -0.359355 -0.672262 0.889915 0
-12.3283 0.732329 4.54517 -0.520035 -0.364025 0.772668 0.4614 0.204258
-12.9474 0.27684 3.33781 -0.706381 -0.649098 0.282235 0.470606 0.226854
-9.50805 0.551067 4.93147 -0.234413 -0.713187 0.660573 0.412061 0.193184
-5.45038 11.7261 -7.61713 -0.755242 0.51326 -0.407605 0.968013 0.708432
0.462097 12.6912 -5.70585 -0.002808 0.833064 -0.553148 0.566664 0.641285
-1.01566 11.9602 -7.97083 0.334941 0.851436 -0.403516 0.579565 0.594394
-2.72617 13.2056 -7.64651 0.189337 0.834071 -0.518113 0.61068 0.592101
10.856 6.18429 -1.25454 0.668569 0.660817 -0.341044 0.439971 0.635772
10.0076 5.61914 -4.99277 0.703757 0.676351 -0.217292 0.447826 0.703861
8.44851 7.17212 -1.51334 0.724021 0.666524 -0.177557 0.400744 0.653214
-1.53775 6.50145 13.1654 -0.176855 0.343913 0.922178 0.066909 0.696627
-2.30402 4.75266 13.2085 -0.476119 0.108127 0.872677 0.042942 0.672621
-0.343018 1.25694 14.6273 -0.212683 -0.113895 0.970458 0.056078 0.598281
-7.513 6.41038 5.61188 -0.723991 0.597034 0.34547 0.533472 0.962967
-6.39795 6.48933 6.79333 -0.823908 0.338816 0.454237 0.549997 0.939255
-6.74005 6.94331 4.47352 -0.024262 0.987823 0.1536 0.549997 0.980343
-5.25107 0.492689 -14.7973 -0.168554 -0.384747 -0.907468 0.566487 0.939255
-8.08651 1.75631 -13.8128 -0.376782 0.124424 -0.917875 0.566487 0.992446
-6.67782 1.37056 -14.7125 -0.440657 -0.296213 -0.847377 0.559798 0.963495
-7.73007 0.53737 5.95301 -0.463149 -0.608905 0.643941 0.382144 0.172385
-8.7669 0.0991016 3.14124 -0.046602 -0.994964 0.0885949 0.396246 0.223978
-8.1196 8.65367 1.77194 -0.411908 0.72866 0.547105 0.968171 0.443098
-8.54202 6.86315 2.35342 -0.717978 0.428724 0.548296 0.937849 0.457183
-6.95032 7.81033 2.61537 -0.600482 0.55208 0.578417 0.944989 0.424962
2.83371 10.0237 12.2055 -0.151128 0.197394 0.968596 0.154544 0.733002
-5.79278 5.85379 -14.2617 -0.342967 0.20127 -0.917508 0.808388 0.259498
-4.61127 8.91424 -13.8636 -0.458602 0.424512 -0.780663 0.752791 0.241679
-2.88516 8.88007 -14.313 -0.056825 0.379925 -0.923246 0.753082 0.210012
-0.341064 1.14621 -15.5739 -0.193121 -0.0351269 -0.980529 0.890544 0.159388
-1.06342 0.137538 -15.3047 -0.125095 -0.766442 -0.629963 0.908393 0.172899
-1.06342 0.137538 -15.3047 -0.125095 -0.766442 -0.629963 0.230912 0.538115
3.11578 0.0294292 5.83953 0.006806 -0.999939 0.00769087 0.189857 0.157944
-5.5809 0.0441376 -4.38394 -0.006409 -0.999939 -0.00543213 0.328047 0.352112
-7.70288 4.08704 -13.3664 -0.522996 0.217536 -0.824061 0.839333 0.29624
-8.08651 1.75631 -13.8128 -0.376782 0.124424 -0.917875 0.881593 0.300299
-8.67645 1.38912 -13.6755 -0.410016 0.0507831 -0.910642 0.888229 0.310992
1.86978 6.27906 14.5408 0.04416 0.538041 0.841731 0.125289 0.666973
1.36246 6.92244 12.6873 -0.064302 0.598895 0.798212 0.20943 0.886331
-1.53775 6.50145 13.1654 -0.176855 0.343913 0.922178 0.196596 0.936874
1.86978 6.27906 14.5408 0.04416 0.538041 0.841731 0.178169 0.874389
9.75802 9.04416 6.59724 0.937193 0.322703 0.132176 0.63226 0.340071
8.98416 10.4558 6.63626 0.762169 0.613727 0.205878 0.659592 0.34222
9.77618 7.59519 8.25088 0.878201 0.0125739 0.478103 0.60626 0.369184
1.24072 11.1676 -8.92058 -0.216956 0.923154 -0.31727 0.535988 0.589459
-0.303131 10.512 -12.7254 0.052797 0.778191 -0.625782 0.541875 0.516243
1.6499 13.7793 10.0127 -0.044832 0.794031 0.606189 0.63006 0.914623
2.24689 16.4766 5.15113 0.42143 0.86578 0.269723 0.594906 0.838289
-0.658508 15.1918 5.56586 -0.277505 0.91467 0.293832 0.646101 0.828613
3.09949 14.2777 8.82984 0.195837 0.950346 0.241707 0.599308 0.902793
-4.85766 14.0343 -4.46578 -0.404309 0.897671 -0.175146 0.663965 0.635479
-6.12225 11.6425 -6.83703 -0.487075 0.704398 -0.516251 0.672225 0.586221
-5.86178 13.8801 -3.72123 -0.742302 0.670003 0.00772109 0.684923 0.642603
-3.10596 4.5708 -14.9767 -0.142125 0.145451 -0.979095 0.830635 0.209965
-1.94885 1.86661 -15.5645 -0.208899 -0.0596939 -0.976104 0.878783 0.186979
-7.513 6.41038 5.61188 -0.723991 0.597034 0.34547 0 0
-9.90628 7.37294 -8.55204 -0.45201 0.873074 0.182653 0.241567 0.618467
-11.3216 6.13278 -8.32082 -0.488357 0.842341 -0.227882 0.271486 0.621366
-10.348 7.81275 -7.56952 -0.510697 0.828486 -0.229621 0.237847 0.636019
-3.16534 7.15557 -14.5038 -0.060793 0.148167 -0.98706 0.78411 0.213633
8.05462 5.98151 9.62098 0.850978 0.369854 0.372784 0.583652 0.396416
7.65277 8.32995 9.87443 0.947783 0.161718 0.274789 0.625917 0.401725
-8.83285 8.33941 -11.5134 -0.289956 0.643269 -0.708548 0.317849 0.887007
-7.08362 9.03573 -9.65697 -0.399487 0.907834 -0.127232 0.35783 0.8645
-7.73108 8.51581 -11.0798 -0.184912 0.813959 -0.550645 0.338935 0.885505
2.95233 12.7475 11.1235 -0.467605 0.574267 0.671957 0.209012 0.995902
1.6499 13.7793 10.0127 -0.044832 0.794031 0.606189 0.200246 0.962216
0.161682 13.8263 9.66677 -0.258339 0.849361 0.460219 0.209012 0.936874
5.67309 12.9916 -7.14533 0.814722 0.54445 -0.199377 0.470606 0.644821
4.3912 13.9503 -7.54919 0.290597 0.926115 -0.240394 0.490504 0.632183
5.11136 14.0796 -2.2113 0.632221 0.741325 -0.225166 0.506586 0.726438
3.79269 16.5412 -0.785762 0.425214 0.898984 0.104678 0.867612 0.453252
4.56622 13.882 0.918804 0.544969 0.778344 0.311655 0.817628 0.424991
6.4256 13.3122 -0.0588023 0.7781 0.622486 -0.0838039 0.827264 0.400655
2.44818 16.2296 1.88222 0.526749 0.839991 -0.129978 0.574101 0.783796
0.499084 16.9573 1.81989 -0.132054 0.988067 0.0789511 0.607078 0.773169
-0.611603 16.4632 -1.83438 -0.188818 0.864223 -0.466262 0.777304 0.904362
-1.51398 15.454 -1.79956 -0.584613 0.707755 -0.396558 0.79159 0.92363
-2.73587 16.5889 -0.0932888 -0.431196 0.898495 -0.0819119 0.763147 0.94703
2.80875 15.1614 -3.10777 0.201239 0.890011 -0.40907 0.541247 0.700188
3.79269 16.5412 -0.785762 0.425214 0.898984 0.104678 0.537214 0.746093
1.24072 11.1676 -8.92058 -0.216956 0.923154 -0.31727 0.386844 0.967804
2.52698 14.3014 -4.96388 -0.500656 0.77871 -0.377972 0.393939 0.875586
2.66656 11.4491 -10.7943 -0.427351 0.721335 -0.545 0.417758 0.986336
-4.07104 14.9304 2.94479 -0.551439 0.780358 0.294778 0.730134 0.656685
-4.54574 11.8407 5.16728 -0.903745 0.240944 0.353801 0.771608 0.709391
-3.58209 11.8204 8.39583 -0.920774 0.248848 0.300272 0.750274 0.763036
3.9975 12.1997 -11.5494 0.090579 0.586474 -0.804834 0.714998 0.030035
4.11874 13.3209 -10.061 0.159032 0.835566 -0.525834 0.733516 0.056159
-6.45239 8.38144 -1.88314 -0.497421 0.86578 -0.0543229 0.872726 0.607688
-6.29211 8.97475 -0.438262 -0.764336 0.573016 -0.295602 0.855301 0.629442
-4.95889 14.1948 -1.28561 -0.708762 0.702597 -0.0629289 0.767853 0.589192
5.10205 8.41995 -11.7871 0.610645 0.317057 -0.725639 0.30433 0.915504
3.51508 10.2147 -11.826 0.057863 0.317454 -0.946501 0.290123 0.877099
3.9975 12.1997 -11.5494 0.090579 0.586474 -0.804834 0.309336 0.846107
5.10205 8.41995 -11.7871 0.610645 0.317057 -0.725639 0.645288 0.023672
5.70593 10.2404 -10.2738 0.88406 0.223548 -0.410382 0.674281 0.0494
-6.74005 6.94331 4.47352 0.17655 -0.172765 0.968993 0.497536 0.979247
-5.68509 8.15636 4.22413 -0.783441 0.421705 0.456435 0.470606 0.983921
-6.95032 7.81033 2.61537 -0.600482 0.55208 0.578417 0.474439 0.952267
10.2118 6.68687 4.20265 0.919858 0.366894 0.138524 0.590526 0.296844
9.95208 6.26432 5.82835 0.939634 0.232063 0.251411 0.583416 0.326011
-3.61081 7.81131 10.4247 -0.764397 0.505875 0.39967 0.804498 0.815819
-5.03116 6.92807 10.1157 -0.836634 0.369976 0.403821 0.82903 0.81692
-2.67355 7.06803 12.488 -0.473556 0.53679 0.698233 0.800458 0.852845
-5.03116 6.92807 10.1157 -0.836634 0.369976 0.403821 0 0.738091
-3.79599 4.75425 11.6186 -0.865352 -0.0906091 0.492843 0.011613 0.688797
-3.32678 6.43503 12.9539 -0.558306 0.28605 0.77871 0.037603 0.706796
-10.6734 5.58286 -12.0635 -0.3596 0.627735 -0.690359 0.967981 0.884848
-12.8045 5.31842 -10.2328 -0.727287 0.586627 -0.356182 0.942771 0.842007
-10.2698 5.81958 -9.89302 -0.614948 0.69573 -0.371136 0.987543 0.850645
4.00021 6.43377 13.4336 0.188513 0.54854 0.81457 0.153712 0.662598
3.93942 4.50372 13.6452 0.19425 0.279 0.940428 0.14028 0.630831
8.41519 2.68513 -12.7742 0.634724 0.355266 -0.686178 0.533988 0
7.57547 4.29386 -12.8547 0.500473 0.403119 -0.766137 0.565038 0.000165
9.91125 2.72313 -8.94131 0.79458 0.526414 -0.302469 0.527809 0.065014
-8.90652 4.33525 4.62984 -0.566057 0.456191 0.686605 0.028707 0.981419
-6.74005 6.94331 4.47352 0.036256 0.998535 0.0395521 0.060384 0.933652
-9.10812 5.42907 3.05124 -0.70629 0.641865 0.298502 0.061472 0.981419
0.469666 4.14424 -15.7392 0.058107 0.0977811 -0.9935 0.837246 0.145142
0.164398 6.10781 -15.6663 0.124088 0.208686 -0.970061 0.802554 0.150972
0.733093 8.18289 -14.8991 0.355998 0.500748 -0.788965 0.764156 0.145286
-2.21396 6.91191 -14.4898 -0.136753 0.197363 -0.970733 0.787803 0.197426
8.04202 5.69946 -9.60278 0.54329 0.813898 -0.205878 0.441831 0.792431
9.03155 5.61879 -8.36354 0.644246 0.722983 -0.249428 0.451207 0.765979
7.16174 5.49907 -12.0965 0.667806 0.58449 -0.460829 0.441737 0.839516
11.8408 2.00834 5.13847 0.9335 0.253304 0.2537 0.502815 0.310226
11.6936 4.82663 3.23152 0.956084 0.278726 0.090335 0.553248 0.276933
-7.06769 2.86564 6.10026 -0.496628 0.108982 0.86108 0.063797 0.902737
-8.28158 2.73759 5.63177 -0.449416 0.13187 0.883511 0.060196 0.8798
-7.73007 0.53737 5.95301 -0.463149 -0.608905 0.643941 0.100758 0.880856
-7.06769 2.86564 6.10026 -0.496628 0.108982 0.86108 0.559798 0.939255
-5.53659 1.60562 8.11096 -0.816004 0.254036 0.519181 0.559798 0.982993
-5.90173 2.6375 6.7006 -0.60625 0.334819 0.721335 0.549997 0.960248
-3.30847 0.751444 13.7747 -0.603992 -0.34611 0.717887 0.898829 0.904362
-5.53659 1.60562 8.11096 -0.816004 0.254036 0.519181 0.926624 0.807479
-5.64957 0.612291 8.18988 -0.755974 -0.489761 0.434248 0.942771 0.813493
-13.1969 0.489962 -0.168449 -0.948393 -0.314219 -0.042482 0.382578 0.76204
-12.6343 4.40856 1.88235 -0.565661 0.819086 -0.0954309 0.315487 0.800951
-12.7552 1.26843 -1.28513 -0.904172 0.425001 -0.0423289 0.36606 0.742835
11.4272 1.63475 -7.57841 0.898862 0.358623 -0.251747 0.502922 0.086308
11.5106 3.47197 -2.98482 0.653768 0.747459 -0.11771 0.532797 0.167388
-13.6968 0.349884 -5.16312 -0.848018 -0.506485 0.155889 0.384783 0.673168
-12.6787 0.394824 -11.1323 -0.614093 -0.61037 -0.50029 0.373342 0.567611
-13.3394 1.78461 -10.0003 -0.89523 0.0598471 -0.441511 0.355446 0.588311
-11.8005 1.52056 -12.3065 -0.581103 -0.0528279 -0.812067 0.34819 0.547736
8.61856 0.632326 12.0081 0.842799 -0.481399 0.240608 0.487422 0.437324
8.77707 0.437511 8.06173 0.507126 -0.811975 0.288888 0.485066 0.367316
9.34787 1.90538 8.12345 0.751061 -0.0511191 0.658223 0.508618 0.367444
-6.76605 0.23505 -14.2218 -0.24485 -0.717002 -0.652638 0.908393 0.275555
-10.0608 0.690678 -12.9555 -0.386822 -0.433424 -0.813929 0.981569 0.060154
-8.57272 0.154353 -12.7658 0.493545 -0.683737 0.537461 1 0.04118
-12.6787 0.394824 -11.1323 -0.614093 -0.61037 -0.50029 0.978701 0.116698
11.1508 0.329239 -9.25 0.755547 -0.624622 -0.197363 0.023816 0.412066
9.04382 0.17503 -12.2728 0.160558 -0.961364 -0.223487 0.056484 0.46886
-13.9439 0.180707 -8.63874 -0.739738 -0.649922 -0.174139 1 0.161459
-8.57272 0.154353 -12.7658 0.493545 -0.683737 0.537461 0.469204 0.699975
-6.76605 0.23505 -14.2218 -0.24485 -0.717002 -0.652638 0.470544 0.670703
-13.9439 0.180707 -8.63874 -0.739738 -0.649922 -0.174139 0.470544 0.784433
12.0984 3.23391 0.16359 0.925535 0.315836 0.208838 0.525292 0.221935
11.5338 2.9357 1.96803 0.989074 0.123478 0.080203 0.521355 0.254815
12.1234 0.249746 1.34069 0.738762 -0.63979 0.211829 0.472694 0.242547
-8.1196 8.65367 1.77194 -0.411908 0.72866 0.547105 0.94583 0.408501
-6.82394 9.10504 0.473873 -0.565691 0.821925 -0.0661639 0.920157 0.388963
-8.39596 8.81753 0.0158812 -0.52739 0.849391 0.0189211 0.946897 0.377181
-5.19324 13.9697 1.84792 -0.895474 0.366832 0.252022 0.757811 0.644163
-1.71652 14.8124 -4.2354 -0.022492 0.909024 -0.41612 0.469156 0.81395
-1.51398 15.454 -1.79956 -0.584613 0.707755 -0.396558 0.451207 0.77282
-0.611603 16.4632 -1.83438 -0.188818 0.864223 -0.466262 0.469156 0.759093
6.4256 13.3122 -0.0588023 0.7781 0.622486 -0.0838039 0.495455 0.769027
6.65759 10.1507 11.9834 0.367199 0.162114 0.915891 0.213602 0.714258
4.80847 13.9814 12.3183 0.05475 0.669057 0.741142 0.213602 0.784947
3.87323 13.9671 11.946 -0.46205 0.700827 0.543443 0.942771 0.927339
2.95233 12.7475 11.1235 -0.467605 0.574267 0.671957 0.970828 0.938043
2.83371 10.0237 12.2055 -0.151128 0.197394 0.968596 0.985357 0.985527
7.78711 2.83744 12.5349 0.856746 0.23719 0.45793 0.528595 0.448229
3.87323 13.9671 11.946 -0.46205 0.700827 0.543443 0.197075 0.791848
9.84082 0.534526 -12.5972 0.647206 -0.359355 -0.672262 0.041759 0.473129
1.78775 0.176056 14.0474 -0.041749 -0.975097 0.21775 0.226165 0.014809
7.30429 0.167599 12.6726 0.249794 -0.951537 0.179357 0.126243 0.030584
2.56464 0.402934 14.8088 0.004883 -0.599506 0.800317 0.213525 0
-13.9439 0.180707 -8.63874 -0.739738 -0.649922 -0.174139 0.386844 0.611315
-14.0334 1.61944 -7.35088 -0.979186 0.191076 0.068148 0.364509 0.634995
-13.7967 2.23735 -8.48929 -0.970885 0.210364 -0.114383 0.351972 0.615242
11.138 2.89128 6.31184 0.821589 0.0726649 0.565386 0.520217 0.33226
-5.97555 3.41803 -14.5287 -0.359325 0.150212 -0.921018 0.852076 0.260989
-6.67782 1.37056 -14.7125 -0.440657 -0.296213 -0.847377 0.889074 0.271807
10.8457 1.57292 7.54142 0.657643 -0.0472731 0.751823 0.061472 0.958722
9.42947 3.3497 7.82924 0.792352 -0.0766931 0.605182 0.087684 0.933652
9.34787 1.90538 8.12345 0.751061 -0.0511191 0.658223 0.082546 0.959303
-12.3461 4.25822 -5.30259 -0.831965 0.485336 0.268715 0.311226 0.673467
-9.95303 4.53948 0.572178 -0.626972 0.772118 0.103366 0.294903 0.778661
-11.0771 6.43965 -6.79298 -0.754448 0.636921 0.15833 0.265847 0.648739
-12.6343 4.40856 1.88235 -0.565661 0.819086 -0.0954309 0.950027 0.511574
-9.95303 4.53948 0.572178 -0.626972 0.772118 0.103366 0.999095 0.531656
-11.758 4.18804 -1.19423 -0.63683 0.769005 -0.0550249 0.969 0.565269
8.05462 5.98151 9.62098 0.850978 0.369854 0.372784 0.964745 0.260788
8.02752 5.1599 12.1555 0.849605 0.124729 0.512406 0.985017 0.221647
2.01614 6.44922 -13.5492 0.557543 0.60033 -0.573351 0.851104 0.910841
6.04526 6.56266 -12.1555 0.566485 0.571093 -0.594043 0.851104 0.986571
5.82254 5.33731 -13.9176 0.646535 0.393506 -0.653523 0.821619 0.972125
2.01614 6.44922 -13.5492 0.557543 0.60033 -0.573351 0.248957 0.936635
6.04526 6.56266 -12.1555 0.566485 0.571093 -0.594043 0.309336 0.952696
-7.18991 5.87328 -13.4309 -0.66213 0.27839 -0.6957 0.918806 0.927364
-8.30877 5.99005 -11.8895 -0.246071 0.441816 -0.862667 0.942331 0.942262
-7.73108 8.51581 -11.0798 -0.184912 0.813959 -0.550645 0.921341 0.985103
-9.90628 7.37294 -8.55204 -0.45201 0.873074 0.182653 0.942771 0.504089
-8.38235 8.03077 -6.36133 -0.332377 0.942747 -0.0266429 0.912101 0.535991
-8.59637 8.44483 -9.60486 -0.388562 0.920408 0.0424211 0.9225 0.479048
-1.22198 11.8971 11.6664 -0.257668 0.790216 0.555986 0.515475 0.939255
-1.99206 11.1616 11.7382 -0.764855 0.417615 0.490463 0.512959 0.956291
-1.5972 11.4289 12.6354 -0.445601 0.518326 0.729881 0.497536 0.94813
1.91717 15.4408 -2.63519 0.044832 0.823511 -0.565508 0.558971 0.70375
-0.768707 16.7005 0.908384 -0.269387 0.937284 0.221107 0.623713 0.750774
-1.85089 16.6846 -0.0989218 -0.156896 0.979003 0.130009 0.636755 0.727987
-2.06988 15.7233 1.24435 -0.289987 0.813501 0.504044 0.647326 0.748571
-6.12225 11.6425 -6.83703 -0.487075 0.704398 -0.516251 0.989859 0.470142
-6.37173 9.46618 -8.6136 -0.414777 0.762352 -0.496719 0.968411 0.434134
-8.59637 8.44483 -9.60486 -0.388562 0.920408 0.0424211 0.989859 0.401311
-3.79599 4.75425 11.6186 -0.865352 -0.0906091 0.492843 0.848582 0.850307
-3.94537 2.62871 10.5874 -0.953337 -0.050417 0.297586 0.888336 0.842507
-6.39795 6.48933 6.79333 -0.823908 0.338816 0.454237 0.860675 0.764422
-2.97131 11.1072 10.7149 -0.858547 0.179266 0.4803 0.894894 0.92336
-1.99206 11.1616 11.7382 -0.764855 0.417615 0.490463 0.915078 0.934306
-2.3356 13.1015 10.2272 -0.420362 0.711539 0.562975 0.882852 0.958881
-1.3342 9.36597 -13.6644 0.087344 0.738639 -0.668386 0.213602 0.870068
-0.303131 10.512 -12.7254 0.052797 0.778191 -0.625782 0.233795 0.853782
1.71796 9.40493 -12.5816 0.356151 0.494339 -0.792932 0.258939 0.882918
-5.90173 2.6375 6.7006 -0.60625 0.334819 0.721335 0.073835 0.92409
-6.39795 6.48933 6.79333 -0.823908 0.338816 0.454237 0.00693 0.933652
7.82852 0.199612 8.56322 0.150548 -0.987701 0.0421459 0.110531 0.102396
-3.30847 0.751444 13.7747 -0.603992 -0.34611 0.717887 0.315922 0.027138
-3.08899 0.14017 12.7294 -0.297769 -0.921293 0.249977 0.310557 0.045674
7.40677 11.4432 8.84136 0.937803 0.263131 0.226356 0.681488 0.384061
6.49597 13.9855 11.2947 0.610981 0.706351 0.357372 0.728039 0.429159
-13.6968 0.349884 -5.16312 -0.848018 -0.506485 0.155889 0.470606 0.378242
-12.7853 0.167465 -2.65362 -0.190588 -0.981201 0.0302439 0.458412 0.332588
-13.1969 0.489962 -0.168449 -0.948393 -0.314219 -0.042482 0.469502 0.289084
-13.9439 0.180707 -8.63874 -0.739738 -0.649922 -0.174139 0.469606 0.440174
6.65759 10.1507 11.9834 0.367199 0.162114 0.915891 0.660325 0.440857
13.1944 3.21207 -1.3668 0.773034 0.634358 0.00174008 0.521659 0.192924
-5.90173 2.6375 6.7006 -0.60625 0.334819 0.721335 0.919305 0.779344
-7.513 6.41038 5.61188 -0.723991 0.597034 0.34547 0 0.908375
10.5869 3.79767 -2.57631 0.80343 0.594562 -0.0308239 0.763147 0.945047
12.0984 3.23391 0.16359 0.925535 0.315836 0.208838 0.763147 1
11.5106 3.47197 -2.98482 0.653768 0.747459 -0.11771 0.745102 0.946421
2.66656 11.4491 -10.7943 -0.427351 0.721335 -0.545 0.280114 0.848495
-1.22198 11.8971 11.6664 -0.257668 0.790216 0.555986 0.918806 0.952369
8.43322 7.81828 0.778132 0.816919 0.513504 -0.26252 0.617928 0.239607
8.94748 10.5808 4.15062 0.874111 0.469619 -0.123936 0.66291 0.298382
10.372 6.56932 2.54627 0.579424 0.804376 -0.131046 0.588582 0.26729
6.4256 13.3122 -0.0588023 0.7781 0.622486 -0.0838039 0.721154 0.228692
6.96582 13.2208 1.7517 0.660146 0.744621 -0.0983919 0.716917 0.259697
5.94476 13.5727 0.757391 0.251991 0.965758 -0.0612199 0.955174 0.01605
6.96582 13.2208 1.7517 0.660146 0.744621 -0.0983919 0.934177 0.029715
6.4256 13.3122 -0.0588023 0.7781 0.622486 -0.0838039 0.94946 0
0.164734 16.7947 3.63443 -0.556688 0.82223 0.118351 0.622326 0.801932
9.84082 0.534526 -12.5972 0.647206 -0.359355 -0.672262 0.49138 0.000459
10.6181 1.07315 -11.2057 0.894436 0.206458 -0.396619 0.49746 0.023665
11.1508 0.329239 -9.25 0.755547 -0.624622 -0.197363 0.481814 0.057218
-12.4069 1.99622 -2.42599 -0.891476 0.436872 0.119785 0.350976 0.72314
-3.94537 2.62871 10.5874 -0.949705 0.154912 0.272073 0.888336 0.842507
-8.38235 8.03077 -6.36133 -0.332377 0.942747 -0.0266429 0.932684 0.264196
-10.348 7.81275 -7.56952 -0.510697 0.828486 -0.229621 0.964745 0.238434
-9.44568 8.64531 -4.59944 -0.447157 0.894375 -0.00958288 0.955358 0.293524
-9.90628 7.37294 -8.55204 -0.45201 0.873074 0.182653 0.954764 0.221647
-8.59637 8.44483 -9.60486 -0.388562 0.920408 0.0424211 0.33227 0.855982
-6.37173 9.46618 -8.6136 -0.414777 0.762352 -0.496719 0.375719 0.850336
4.7984 13.5352 7.9025 0.219153 0.970153 -0.103519 0.952146 0.144253
4.63049 13.473 3.20184 0.397229 0.914457 0.0771201 0.970293 0.062802
4.56622 13.882 0.918804 0.544969 0.778344 0.311655 0.978701 0.02364
2.52698 14.3014 -4.96388 -0.500656 0.77871 -0.377972 0.535963 0.666414
-2.59198 9.57469 11.4698 -0.844874 0.158025 0.511032 0.918806 0.904362
-2.59198 9.57469 11.4698 -0.844874 0.158025 0.511032 0.515475 0.986683
-6.29211 8.97475 -0.438262 -0.764336 0.573016 -0.295602 0.908765 0.373938
-6.45239 8.38144 -1.88314 -0.497421 0.86578 -0.0543229 0.908393 0.347545
-3.31122 11.4597 -11.552 -0.110721 0.880276 -0.461287 0.599448 0.521143
-3.74692 9.71968 -13.7985 -0.1919 0.644887 -0.739769 0.594468 0.479048
-5.186 9.87623 -12.3354 -0.617756 0.65865 -0.429518 0.626707 0.496345
7.74496 12.0547 5.59579 0.806299 0.584765 0.0887481 0.692271 0.326146
-2.59198 9.57469 11.4698 -0.844874 0.158025 0.511032 0.764945 0.824015
-3.90582 10.2851 7.76156 -0.95642 0.101169 0.273812 0.77982 0.759657
-2.97131 11.1072 10.7149 -0.858547 0.179266 0.4803 0.746585 0.804852
-7.75317 9.09033 -7.79996 -0.894772 0.326853 0.304209 0.89819 0.505564
-8.30877 5.99005 -11.8895 -0.246071 0.441816 -0.862667 0.803505 0.314047
-8.83285 8.33941 -11.5134 -0.289956 0.643269 -0.708548 0.761604 0.325145
-7.73108 8.51581 -11.0798 -0.184912 0.813959 -0.550645 0.757051 0.308475
-12.3461 4.25822 -5.30259 -0.831965 0.485336 0.268715 0.963099 0.638524
-9.71075 5.73654 -0.891759 -0.917356 0.37608 0.130314 0.272533 0.753478
10.5869 3.79767 -2.57631 0.80343 0.594562 -0.0308239 0.541574 0.176285
10.0076 5.61914 -4.99277 0.703757 0.676351 -0.217292 0.576361 0.134725
10.856 6.18429 -1.25454 0.668569 0.660817 -0.341044 0.581701 0.199258
11.9865 6.20299 0.0659808 0.803674 0.585101 -0.108371 0.577496 0.220548
-5.25107 0.492689 -14.7973 -0.168554 -0.384747 -0.907468 0.903865 0.246917
10.8457 1.57292 7.54142 0.657643 -0.0472731 0.751823 0.497764 0.354448
-12.9474 0.27684 3.33781 -0.706381 -0.649098 0.282235 0.386844 0.824209
-12.3283 0.732329 4.54517 -0.520035 -0.364025 0.772668 0.37608 0.846107
-12.9998 4.13491 2.57767 -0.791925 0.572008 0.213569 0.322873 0.813006
4.73678 5.117 -14.4723 0.338481 0.317515 -0.885769 0.815192 0.078603
6.13449 3.61265 -13.653 0.688314 0.139744 -0.711783 0.839549 0.058537
-11.8005 1.52056 -12.3065 -0.581103 -0.0528279 -0.812067 0.885524 0.371026
6.59292 0.526589 14.4466 0.274056 -0.591296 0.758415 0.141528 9.1e-005
-6.76605 0.23505 -14.2218 -0.24485 -0.717002 -0.652638 0.333654 0.527731
-5.25107 0.492689 -14.7973 -0.168554 -0.384747 -0.907468 0.305837 0.535393
4.77554 0.289279 -14.3119 0.310312 -0.686758 -0.657247 0.128927 0.511435
-12.9998 4.13491 2.57767 -0.791925 0.572008 0.213569 0.009031 0.791848
-9.44568 8.64531 -4.59944 -0.447157 0.894375 -0.00958288 0.22019 0.689512
-4.95889 14.1948 -1.28561 -0.708762 0.702597 -0.0629289 0.682576 0.688912
-1.71652 14.8124 -4.2354 -0.022492 0.909024 -0.41612 0.612043 0.6568
-0.611603 16.4632 -1.83438 -0.188818 0.864223 -0.466262 0.606449 0.704958
-0.509766 16.7074 -0.835813 -0.048067 0.989807 -0.134007 0.610077 0.722642
2.06372 16.7353 0.504628 0.362743 0.916135 0.170476 0.573472 0.758971
2.55246 16.7321 -0.695416 0.257942 0.962157 -0.0875879 0.558812 0.741252
-6.4429 9.10015 1.62799 -0.80755 0.562944 0.175756 0.968411 0.414705
12.9341 0.238924 -1.0397 0.565935 -0.821741 -0.0663471 0.005042 0.264229
0.161682 13.8263 9.66677 -0.258339 0.849361 0.460219 0.028707 0.9893
-1.22198 11.8971 11.6664 -0.257668 0.790216 0.555986 0 0.959946
0.730103 11.4634 12.5596 0.138279 0.40672 0.903012 0.028707 0.933652
0.161682 13.8263 9.66677 -0.258339 0.849361 0.460219 0.937849 0.470019
0.730103 11.4634 12.5596 0.138279 0.40672 0.903012 0.898567 0.43932
2.95233 12.7475 11.1235 -0.467605 0.574267 0.671957 0.937849 0.414705
-1.22198 11.8971 11.6664 -0.257668 0.790216 0.555986 0.470544 0.670703
0.161682 13.8263 9.66677 -0.258339 0.849361 0.460219 0.451207 0.620135
-0.658508 15.1918 5.56586 -0.277505 0.91467 0.293832 0.470544 0.547736
-0.612701 15.3397 2.8396 -0.491836 0.842616 0.219153 0.087684 0.958111
0.499084 16.9573 1.81989 -0.132054 0.988067 0.0789511 0.111201 0.933652
-2.06988 15.7233 1.24435 -0.289987 0.813501 0.504044 0.111201 0.985095
-1.51398 15.454 -1.79956 -0.584613 0.707755 -0.396558 0.621684 0.699739
-5.19061 14.3855 0.384408 -0.853236 0.49968 -0.149297 0.695412 0.716135
-5.19061 14.3855 0.384408 -0.853236 0.49968 -0.149297 0.79159 0.998965
3.03928 13.4284 -8.53207 -0.595325 0.744804 -0.301309 0.422422 0.933209
2.80875 15.1614 -3.10777 0.201239 0.890011 -0.40907 0.387423 0.839516
2.95233 12.7475 11.1235 -0.467605 0.574267 0.671957 0.169969 0.781401
-6.4429 9.10015 1.62799 -0.80755 0.562944 0.175756 0.844297 0.66445
-6.95032 7.81033 2.61537 -0.600482 0.55208 0.578417 0.863279 0.687995
-8.59637 8.44483 -9.60486 -0.388562 0.920408 0.0424211 0.994696 0.220018
-9.9931 8.27288 -9.45963 -0.608631 0.783685 0.123875 0.978701 0.20411
-9.90628 7.37294 -8.55204 -0.45201 0.873074 0.182653 0.994696 0.193167
-9.9931 8.27288 -9.45963 -0.608631 0.783685 0.123875 0.309336 0.846107
-6.4429 9.10015 1.62799 -0.80755 0.562944 0.175756 0.915944 0.41009
8.13888 6.21845 -5.18961 0.633106 0.752922 -0.179571 0.593494 0.134643
8.04202 5.69946 -9.60278 0.54329 0.813898 -0.205878 0.586578 0.056835
-9.10812 5.42907 3.05124 -0.70629 0.641865 0.298502 0.469756 0.932316
-11.9734 4.03795 3.70187 -0.438307 0.637135 0.633961 0.469756 0.984239
-8.90652 4.33525 4.62984 -0.566057 0.456191 0.686605 0.442698 0.934052
-9.8164 4.54617 2.76521 -0.496597 0.832331 -0.246132 0.985357 0.932771
-11.9734 4.03795 3.70187 -0.438307 0.637135 0.633961 0.99561 0.891789
-9.10812 5.42907 3.05124 -0.70629 0.641865 0.298502 0.99561 0.949513
6.08636 3.85325 13.8562 0.368603 0.319865 0.872799 0.170091 0.607067
6.66186 6.2441 13.2257 0.409986 0.232887 0.881832 0.192588 0.645326
11.9015 0.329187 5.8379 0.633686 -0.666524 0.392621 0.034052 0.144188
10.8457 1.57292 7.54142 0.657643 -0.0472731 0.751823 0.055105 0.1149
12.5782 0.636834 4.45648 0.955382 -0.270028 0.119572 0.476572 0.296787
1.59918 0.359177 -16.09 0.126713 -0.537797 -0.833461 0.182435 0.547736
13.2595 0.632559 -0.509943 0.92468 -0.290078 0.246529 0 0.254105
-6.76605 0.23505 -14.2218 -0.24485 -0.717002 -0.652638 0.999105 0
-12.6787 0.394824 -11.1323 -0.614093 -0.61037 -0.50029 0.903999 0.391598
-5.72836 0.102681 5.47514 -0.083773 -0.99292 0.0840779 0.34603 0.178018
-5.64957 0.612291 8.18988 -0.755974 -0.489761 0.434248 0.348738 0.129575
8.61856 0.632326 12.0081 0.842799 -0.481399 0.240608 0.101792 0.039996
12.5782 0.636834 4.45648 0.955382 -0.270028 0.119572 0.019824 0.167362
8.04483 1.19697 13.6549 0.812738 -0.14127 0.565172 0.498626 0.467474
7.26941 1.95011 14.229 0.546159 0.248543 0.799951 0.514265 0.479048
8.77707 0.437511 8.06173 0.507126 -0.811975 0.288888 0.087684 0.9868
-12.8045 5.31842 -10.2328 -0.727287 0.586627 -0.356182 0.293355 0.586469
-2.53555 1.55763 -15.0823 -0.298257 -0.148381 -0.942869 0.883798 0.199308
-11.758 4.18804 -1.19423 -0.63683 0.769005 -0.0550249 0.311321 0.746517
-8.90652 4.33525 4.62984 -0.566057 0.456191 0.686605 0.026983 0.87092
-5.53659 1.60562 8.11096 -0.816004 0.254036 0.519181 0.098172 0.933652
-5.64957 0.612291 8.18988 -0.755974 -0.489761 0.434248 0.11505 0.927887
13.1944 3.21207 -1.3668 0.773034 0.634358 0.00174008 0.732847 0.985795
5.82254 5.33731 -13.9176 0.646535 0.393506 -0.653523 0.809665 0.062803
1.98422 6.07504 -14.5474 0.471908 0.532304 -0.70278 0.800085 0.125359
-11.9734 4.03795 3.70187 -0.438307 0.637135 0.633961 0.959761 0.479048
-12.9998 4.13491 2.57767 -0.791925 0.572008 0.213569 0.942771 0.499967
-9.8164 4.54617 2.76521 -0.496597 0.832331 -0.246132 0.999095 0.492701
-7.513 6.41038 5.61188 -0.723991 0.597034 0.34547 0.035916 0.935217
11.9865 6.20299 0.0659808 0.803674 0.585101 -0.108371 0.451207 0.607032
10.0076 5.61914 -4.99277 0.703757 0.676351 -0.217292 0.752073 0.904362
9.03155 5.61879 -8.36354 0.644246 0.722983 -0.249428 0.581172 0.076939
7.16174 5.49907 -12.0965 0.667806 0.58449 -0.460829 0.587206 0.01436
6.78366 1.61217 -13.7173 0.323954 0.0852381 -0.942198 0.465747 0.932316
6.13449 3.61265 -13.653 0.688314 0.139744 -0.711783 0.45636 0.89637
6.04526 6.56266 -12.1555 0.566485 0.571093 -0.594043 0.465747 0.839516
5.82254 5.33731 -13.9176 0.646535 0.393506 -0.653523 0.442698 0.868003
6.04526 6.56266 -12.1555 0.566485 0.571093 -0.594043 0.60972 0.01538
7.57547 4.29386 -12.8547 0.500473 0.403119 -0.766137 0.825225 0.037923
6.04526 6.56266 -12.1555 0.566485 0.571093 -0.594043 0.784828 0.067764
1.98422 6.07504 -14.5474 0.471908 0.532304 -0.70278 0.834167 0.904362
0.733093 8.18289 -14.8991 0.355998 0.500748 -0.788965 0.851104 0.932971
2.01614 6.44922 -13.5492 0.557543 0.60033 -0.573351 0.882852 0.959394
1.98422 6.07504 -14.5474 0.471908 0.532304 -0.70278 0.868103 0.970746
1.71796 9.40493 -12.5816 0.356151 0.494339 -0.792932 0.882852 0.904362
-13.0922 5.3943 -8.43309 -0.845332 0.534165 -0.00415093 0.295199 0.618353
-8.54202 6.86315 2.35342 -0.717978 0.428724 0.548296 0.248457 0.812116
-9.30542 8.09232 0.864311 -0.852168 0.502213 0.146764 0.232115 0.786176
-9.10812 5.42907 3.05124 -0.70629 0.641865 0.298502 0.276346 0.823457
-6.74005 6.94331 4.47352 0.036256 0.998535 0.0395521 0.470544 0.547736
-6.74005 6.94331 4.47352 0.17655 -0.172765 0.968993 0.470544 0.547736
-9.10812 5.42907 3.05124 -0.70629 0.641865 0.298502 0.470544 0.597655
-2.67355 7.06803 12.488 -0.473556 0.53679 0.698233 0.049785 0.715497
-2.67355 7.06803 12.488 -0.473556 0.53679 0.698233 0.998647 0.289667
-5.03116 6.92807 10.1157 -0.836634 0.369976 0.403821 0.998647 0.349108
-3.32678 6.43503 12.9539 -0.558306 0.28605 0.77871 0.985017 0.292469
10.2118 6.68687 4.20265 0.919858 0.366894 0.138524 0.396978 0.547736
-7.18991 5.87328 -13.4309 -0.66213 0.27839 -0.6957 0.807501 0.287407
-6.82822 4.64395 -14.0598 -0.520463 0.103397 -0.847591 0.830109 0.277998
-7.70288 4.08704 -13.3664 -0.522996 0.217536 -0.824061 0.942331 0.904362
4.00021 6.43377 13.4336 0.188513 0.54854 0.81457 0.201129 0.838533
2.68762 6.87738 13.0913 -0.031892 0.667531 0.743858 0.204536 0.862242
-6.95032 7.81033 2.61537 -0.600482 0.55208 0.578417 0.821619 0.99213
-4.57171 9.33579 5.45842 -0.888119 0.216681 0.405286 0.79159 0.937612
-4.54574 11.8407 5.16728 -0.903745 0.240944 0.353801 0.821619 0.904362
-5.68509 8.15636 4.22413 -0.783441 0.421705 0.456435 0.79973 0.969148
7.74496 12.0547 5.59579 0.806299 0.584765 0.0887481 0.908393 0.092992
6.32126 13.449 7.99717 0.328227 0.938292 -0.108768 0.925214 0.14089
-4.68631 14.0814 -6.53324 -0.503037 0.797479 -0.333079 0.992815 0.667406
-4.85766 14.0343 -4.46578 -0.404309 0.897671 -0.175146 0.970045 0.638524
-5.19061 14.3855 0.384408 -0.853236 0.49968 -0.149297 0.758232 0.617271
-6.82394 9.10504 0.473873 -0.565691 0.821925 -0.0661639 0.852192 0.645346
4.11874 13.3209 -10.061 0.159032 0.835566 -0.525834 0.442698 0.951938
3.9975 12.1997 -11.5494 0.090579 0.586474 -0.804834 0.442698 0.984645
-2.3356 13.1015 10.2272 -0.420362 0.711539 0.562975 0.713167 0.786458
-1.86291 14.5536 7.81144 -0.086215 0.90405 0.418561 0.698708 0.737827
4.11874 13.3209 -10.061 0.159032 0.835566 -0.525834 0.481652 0.5876
3.03928 13.4284 -8.53207 -0.595325 0.744804 -0.301309 0.508118 0.607864
3.09949 14.2777 8.82984 0.195837 0.950346 0.241707 0.14092 0.962555
2.44818 16.2296 1.88222 0.526749 0.839991 -0.129978 0.169501 0.838186
2.24689 16.4766 5.15113 0.42143 0.86578 0.269723 0.178169 0.895777
3.18549 15.6492 1.27604 0.714011 0.699942 0.0147101 0.156031 0.827233
4.56622 13.882 0.918804 0.544969 0.778344 0.311655 0.119852 0.821425
2.06372 16.7353 0.504628 0.362743 0.916135 0.170476 0.178169 0.813736
-4.68631 14.0814 -6.53324 -0.503037 0.797479 -0.333079 0.650114 0.601456
5.11136 14.0796 -2.2113 0.632221 0.741325 -0.225166 0.867612 0.398796
-4.80762 15.0645 1.20841 -0.672781 0.727744 0.13303 0.741028 0.627649
-2.73587 16.5889 -0.0932888 -0.431196 0.898495 -0.0819119 0.709935 0.595026
-4.07104 14.9304 2.94479 -0.551439 0.780358 0.294778 0.690109 0.765937
-1.86291 14.5536 7.81144 -0.086215 0.90405 0.418561 0.67828 0.859577
-4.80762 15.0645 1.20841 -0.672781 0.727744 0.13303 0.693458 0.732798
-0.612701 15.3397 2.8396 -0.491836 0.842616 0.219153 0.63092 0.782882
0.164734 16.7947 3.63443 -0.556688 0.82223 0.118351 0.898567 0.437454
3.18549 15.6492 1.27604 0.714011 0.699942 0.0147101 0.558206 0.77685
-2.73587 16.5889 -0.0932888 -0.431196 0.898495 -0.0819119 0.65179 0.7233
-4.57171 9.33579 5.45842 -0.888119 0.216681 0.405286 0.810247 0.725693
0.161682 13.8263 9.66677 -0.258339 0.849361 0.460219 0.653519 0.90094
-6.62274 8.7545 -11.4224 -0.543199 0.719016 -0.433485 0.355935 0.897077
6.66186 6.2441 13.2257 0.409986 0.232887 0.881832 0.59169 0.462617
-3.74692 9.71968 -13.7985 -0.1919 0.644887 -0.739769 0.737881 0.227348
-5.186 9.87623 -12.3354 -0.617756 0.65865 -0.429518 0.733516 0.259078
-6.62274 8.7545 -11.4224 -0.543199 0.719016 -0.433485 0.765339 0.445301
-5.186 9.87623 -12.3354 -0.617756 0.65865 -0.429518 0.733516 0.439761
-4.61127 8.91424 -13.8636 -0.458602 0.424512 -0.780663 0.735593 0.41018
-6.20318 7.09339 -13.7069 -0.54796 0.382916 -0.743675 0.785755 0.269378
-11.3216 6.13278 -8.32082 -0.488357 0.842341 -0.227882 0.989269 0.161459
-12.587 5.6783 -9.35431 -0.559435 0.802881 -0.205756 0.286576 0.602342
-1.3342 9.36597 -13.6644 0.087344 0.738639 -0.668386 0.742402 0.186764
-1.3342 9.36597 -13.6644 0.087344 0.738639 -0.668386 0.732847 0.934352
0.733093 8.18289 -14.8991 0.355998 0.500748 -0.788965 0.698708 0.961163
-2.88516 8.88007 -14.313 -0.056825 0.379925 -0.923246 0.730741 0.904362
8.41519 2.68513 -12.7742 0.634724 0.355266 -0.686178 0.85304 0.023764
-9.9931 8.27288 -9.45963 -0.608631 0.783685 0.123875 0.817628 0.428642
-9.25332 6.11657 -12.0136 -0.315012 0.476943 -0.820521 0.777116 0.46549
-10.2698 5.81958 -9.89302 -0.614948 0.69573 -0.371136 0.774602 0.426255
-8.83285 8.33941 -11.5134 -0.289956 0.643269 -0.708548 0.817628 0.46604
-8.59637 8.44483 -9.60486 -0.388562 0.920408 0.0424211 0.698708 0.523027
-1.22198 11.8971 11.6664 -0.257668 0.790216 0.555986 0.533472 0.977155
-1.5972 11.4289 12.6354 -0.445601 0.518326 0.729881 0.515475 0.9765
0.730103 11.4634 12.5596 0.138279 0.40672 0.903012 0.533472 0.939255
-1.63071 10.2581 -12.5358 0.029511 0.84463 -0.534501 0.56536 0.512164
-1.3342 9.36597 -13.6644 0.087344 0.738639 -0.668386 0.554099 0.493727
-4.72348 11.1572 -9.79992 -0.636738 0.694968 -0.333964 0.632635 0.543
-1.22198 11.8971 11.6664 -0.257668 0.790216 0.555986 0.687086 0.925475
-2.3356 13.1015 10.2272 -0.420362 0.711539 0.562975 0.698708 0.896462
4.80847 13.9814 12.3183 0.05475 0.669057 0.741142 0.733516 0.450282
-5.86178 13.8801 -3.72123 -0.742302 0.670003 0.00772109 0.790315 0.550507
8.98416 10.4558 6.63626 0.762169 0.613727 0.205878 0.451207 0.712279
8.94748 10.5808 4.15062 0.874111 0.469619 -0.123936 0.46543 0.670703
7.40677 11.4432 8.84136 0.937803 0.263131 0.226356 0.46543 0.759093
1.71796 9.40493 -12.5816 0.356151 0.494339 -0.792932 0.732847 0.99186
-9.25332 6.11657 -12.0136 -0.315012 0.476943 -0.820521 0.992342 0.891789
6.66186 6.2441 13.2257 0.409986 0.232887 0.881832 0.20943 0.791848
-9.30542 8.09232 0.864311 -0.852168 0.502213 0.146764 0.964745 0.389361
-8.39596 8.81753 0.0158812 -0.52739 0.849391 0.0189211 0.213602 0.771853
-11.3216 6.13278 -8.32082 -0.488357 0.842341 -0.227882 0.779416 0.398796
-12.8045 5.31842 -10.2328 -0.727287 0.586627 -0.356182 0.815386 0.398796
8.13888 6.21845 -5.18961 0.633106 0.752922 -0.179571 0.417406 0.717502
-3.30847 0.751444 13.7747 -0.603992 -0.34611 0.717887 0.00213 0.611173
11.4007 6.18144 1.14201 0.678487 0.712729 0.177953 0.578754 0.240612
6.08636 3.85325 13.8562 0.368603 0.319865 0.872799 0.55178 0.474683
-9.50805 0.551067 4.93147 -0.234413 -0.713187 0.660573 0.09073 0.846197
-9.10812 5.42907 3.05124 -0.70629 0.641865 0.298502 0.200246 0.936874
-6.74005 6.94331 4.47352 0.17655 -0.172765 0.968993 0.200246 0.991625
-8.54202 6.86315 2.35342 -0.717978 0.428724 0.548296 0.178169 0.953787
10.1057 5.43903 6.78838 0.616352 0.752312 0.232582 0.568094 0.342656
-8.54202 6.86315 2.35342 -0.717978 0.428724 0.548296 0.497536 0.939255
-6.74005 6.94331 4.47352 -0.024262 0.987823 0.1536 0.866794 0.723305
-11.3216 6.13278 -8.32082 -0.488357 0.842341 -0.227882 0.979183 0.817872
-6.12225 11.6425 -6.83703 -0.487075 0.704398 -0.516251 0.955312 0.700486
11.9015 0.329187 5.8379 0.633686 -0.666524 0.392621 0.473039 0.322395
-6.20318 7.09339 -13.7069 -0.54796 0.382916 -0.743675 0.774602 0.398796
-6.20318 7.09339 -13.7069 -0.54796 0.382916 -0.743675 0.350014 0.939559
3.09949 14.2777 8.82984 0.195837 0.950346 0.241707 0.985357 0.891789
2.66656 11.4491 -10.7943 -0.427351 0.721335 -0.545 0.50192 0.565593
6.32126 13.449 7.99717 0.328227 0.938292 -0.108768 0.72064 0.371197
-5.68509 8.15636 4.22413 -0.783441 0.421705 0.456435 0.842014 0.711792
-7.08362 9.03573 -9.65697 -0.399487 0.907834 -0.127232 0.774602 0.475253
-5.186 9.87623 -12.3354 -0.617756 0.65865 -0.429518 0.375719 0.919181
-9.30542 8.09232 0.864311 -0.852168 0.502213 0.146764 0.968411 0.470142
-9.8164 4.54617 2.76521 -0.496597 0.832331 -0.246132 0.295384 0.817623
12.9905 1.11943 -2.93974 0.918729 -0.181219 -0.35078 0.375719 0.878158
12.9341 0.238924 -1.0397 0.565935 -0.821741 -0.0663471 0.384373 0.846107
11.4272 1.63475 -7.57841 0.898862 0.358623 -0.251747 0.384373 0.964225
8.04483 1.19697 13.6549 0.812738 -0.14127 0.565172 0.114386 0.011406
4.80847 13.9814 12.3183 0.05475 0.669057 0.741142 0.937591 0.221647
4.63049 13.473 3.20184 0.397229 0.914457 0.0771201 0.11505 0.862181
2.55246 16.7321 -0.695416 0.257942 0.962157 -0.0875879 0.174981 0.791848
2.95233 12.7475 11.1235 -0.467605 0.574267 0.671957 0.613538 0.939255
3 0 1 2 
3 3 4 5 
3 6 7 8 
3 9 10 11 
3 12 13 14 
3 15 16 17 
3 18 19 20 
3 21 22 23 
3 24 25 26 
3 27 28 29 
3 30 31 32 
3 33 34 35 
3 36 37 38 
3 39 40 41 
3 42 43 44 
3 45 46 47 
3 48 49 50 
3 51 52 53 
3 54 55 24 
3 56 57 58 
3 59 1 60 
3 61 62 63 
3 27 29 64 
3 65 66 67 
3 35 68 69 
3 70 71 72 
3 48 50 73 
3 74 75 76 
3 77 78 79 
3 80 81 82 
3 83 84 85 
3 86 87 88 
3 89 72 90 
3 91 92 93 
3 94 25 24 
3 95 96 97 
3 98 33 99 
3 100 101 102 
3 103 104 105 
3 80 82 106 
3 107 108 109 
3 110 111 112 
3 113 114 75 
3 115 116 117 
3 115 118 116 
3 119 120 121 
3 122 123 44 
3 124 45 47 
3 125 126 127 
3 43 95 128 
3 129 130 12 
3 131 132 133 
3 134 135 136 
3 137 138 139 
3 140 141 142 
3 116 143 144 
3 145 146 147 
3 139 148 149 
3 150 151 152 
3 153 154 155 
3 59 156 157 
3 158 159 160 
3 161 162 163 
3 164 165 0 
3 166 167 168 
3 169 110 170 
3 171 172 173 
3 174 175 176 
3 177 178 179 
3 19 180 106 
3 19 181 180 
3 182 183 184 
3 185 186 187 
3 188 98 189 
3 190 189 191 
3 190 188 189 
3 192 193 194 
3 14 195 196 
3 197 198 199 
3 200 201 202 
3 203 204 205 
3 206 207 208 
3 41 209 210 
3 206 208 211 
3 212 213 214 
3 215 216 217 
3 22 105 218 
3 219 220 221 
3 222 31 223 
3 220 224 221 
3 225 226 227 
3 228 229 230 
3 231 232 233 
3 153 234 154 
3 235 236 237 
3 137 139 238 
3 239 240 55 
3 241 242 243 
3 244 13 12 
3 245 94 240 
3 222 223 246 
3 247 248 249 
3 250 251 252 
3 14 253 195 
3 103 254 255 
3 256 257 258 
3 259 260 261 
3 262 263 264 
3 265 266 11 
3 267 268 269 
3 270 161 271 
3 272 273 274 
3 275 276 277 
3 278 279 280 
3 281 149 148 
3 282 283 284 
3 285 286 287 
3 288 289 203 
3 172 290 288 
3 291 292 293 
3 294 295 296 
3 197 297 298 
3 101 31 299 
3 300 301 247 
3 302 303 12 
3 304 305 306 
3 304 307 305 
3 12 303 308 
3 299 31 30 
3 228 39 309 
3 228 230 39 
3 290 310 289 
3 197 298 311 
3 312 313 314 
3 296 295 315 
3 292 316 293 
3 317 318 319 
3 318 320 321 
3 317 320 318 
3 322 323 324 
3 116 144 325 
3 288 290 289 
3 326 327 328 
3 329 259 251 
3 203 289 330 
3 19 18 181 
3 331 332 333 
3 331 334 332 
3 335 336 132 
3 337 338 6 
3 339 338 322 
3 74 340 113 
3 340 74 281 
3 341 292 291 
3 280 279 342 
3 343 344 232 
3 345 346 347 
3 320 1 59 
3 318 348 302 
3 24 53 80 
3 349 350 171 
3 350 349 351 
3 352 276 158 
3 277 276 352 
3 353 21 354 
3 355 353 354 
3 11 266 9 
3 264 263 356 
3 261 260 357 
3 358 359 360 
3 360 361 228 
3 217 13 244 
3 15 17 18 
3 255 42 362 
3 255 254 42 
3 195 253 363 
3 364 365 366 
3 34 367 368 
3 369 23 22 
3 249 248 370 
3 100 371 372 
3 373 246 223 
3 374 37 36 
3 375 261 357 
3 240 94 55 
3 119 121 376 
3 377 378 281 
3 379 380 381 
3 93 382 91 
3 79 29 77 
3 383 31 222 
3 98 123 122 
3 98 99 123 
3 41 309 39 
3 384 385 386 
3 387 388 389 
3 390 391 392 
3 282 284 144 
3 393 394 395 
3 283 380 379 
3 283 282 380 
3 376 396 377 
3 397 396 376 
3 147 146 398 
3 148 340 281 
3 399 151 400 
3 401 25 94 
3 234 402 403 
3 404 405 406 
3 335 131 407 
3 132 131 335 
3 408 232 231 
3 233 232 333 
3 0 409 410 
3 2 409 0 
3 411 412 413 
3 414 415 416 
3 417 418 180 
3 327 184 210 
3 184 327 182 
3 105 22 21 
3 103 105 21 
3 30 419 420 
3 230 229 421 
3 366 206 364 
3 102 371 100 
3 307 371 102 
3 373 100 422 
3 32 383 423 
3 32 31 383 
3 373 223 100 
3 424 220 219 
3 425 369 22 
3 101 426 90 
3 426 101 301 
3 90 427 89 
3 427 426 301 
3 90 426 427 
3 299 428 248 
3 30 428 299 
3 32 419 30 
3 419 32 429 
3 218 104 362 
3 218 105 104 
3 217 430 215 
3 430 244 431 
3 217 244 430 
3 258 432 256 
3 35 34 368 
3 367 34 188 
3 188 34 33 
3 188 33 98 
3 214 213 433 
3 251 208 329 
3 211 208 251 
3 210 309 41 
3 210 209 327 
3 327 209 328 
3 434 99 362 
3 329 435 259 
3 435 208 207 
3 329 208 435 
3 38 198 436 
3 199 437 197 
3 438 437 199 
3 310 330 289 
3 330 204 203 
3 310 204 330 
3 197 311 198 
3 199 198 38 
3 229 228 361 
3 314 313 439 
3 367 440 368 
3 441 367 188 
3 189 122 191 
3 189 98 122 
3 442 262 443 
3 262 444 263 
3 442 444 262 
3 198 311 436 
3 445 186 185 
3 77 29 446 
3 447 312 314 
3 184 448 359 
3 448 183 449 
3 184 183 448 
3 184 359 210 
3 441 440 367 
3 450 451 452 
3 452 451 453 
3 183 454 449 
3 455 68 456 
3 457 267 269 
3 458 459 460 
3 461 459 458 
3 462 252 259 
3 261 462 259 
3 463 464 260 
3 357 260 464 
3 465 463 260 
3 179 178 67 
3 466 467 468 
3 176 81 80 
3 176 175 81 
3 469 176 80 
3 470 471 472 
3 418 239 54 
3 473 28 27 
3 449 0 410 
3 353 103 21 
3 103 474 475 
3 273 272 476 
3 109 477 478 
3 170 112 129 
3 170 110 112 
3 318 169 319 
3 110 169 318 
3 53 469 80 
3 51 53 26 
3 24 26 53 
3 165 156 59 
3 164 156 165 
3 479 480 481 
3 479 482 480 
3 26 25 401 
3 60 165 59 
3 0 165 60 
3 348 303 302 
3 483 484 8 
3 163 162 315 
3 485 48 73 
3 485 73 486 
3 487 159 488 
3 160 159 487 
3 489 152 399 
3 489 490 152 
3 153 491 492 
3 491 155 351 
3 153 155 491 
3 493 138 137 
3 138 494 148 
3 493 494 138 
3 152 151 399 
3 495 496 497 
3 498 499 500 
3 8 484 337 
3 338 484 322 
3 338 337 484 
3 8 337 6 
3 76 501 377 
3 142 502 140 
3 487 503 504 
3 117 505 506 
3 507 505 117 
3 507 508 284 
3 508 507 117 
3 62 61 509 
3 144 143 510 
3 511 283 378 
3 378 283 379 
3 283 511 284 
3 281 378 381 
3 139 138 148 
3 350 512 171 
3 154 512 350 
3 350 155 154 
3 155 350 351 
3 513 115 117 
3 162 161 296 
3 133 132 514 
3 320 317 2 
3 12 130 302 
3 515 12 308 
3 54 239 55 
3 516 96 517 
3 518 519 520 
3 521 96 95 
3 474 95 475 
3 474 521 95 
3 128 97 191 
3 128 95 97 
3 375 126 261 
3 127 126 375 
3 522 406 405 
3 252 462 523 
3 524 97 516 
3 525 526 527 
3 252 433 213 
3 42 434 362 
3 68 455 528 
3 259 252 251 
3 182 327 326 
3 421 195 363 
3 305 71 306 
3 528 69 68 
3 44 434 42 
3 434 123 99 
3 44 123 434 
3 228 358 360 
3 95 43 475 
3 529 530 531 
3 532 530 529 
3 121 120 533 
3 534 535 536 
3 346 537 538 
3 537 345 76 
3 346 345 537 
3 117 116 325 
3 74 377 281 
3 74 76 377 
3 234 503 487 
3 377 501 119 
3 376 377 119 
3 539 345 347 
3 345 539 76 
3 322 484 323 
3 506 540 117 
3 541 540 506 
3 75 537 76 
3 537 114 538 
3 75 114 537 
3 113 75 74 
3 303 542 308 
3 352 543 277 
3 160 352 158 
3 543 352 160 
3 402 234 487 
3 488 402 487 
3 232 331 333 
3 344 331 232 
3 318 111 110 
3 544 545 546 
3 112 130 129 
3 130 111 302 
3 112 111 130 
3 525 547 526 
3 179 548 177 
3 0 454 164 
3 0 449 454 
3 478 477 549 
3 233 550 231 
3 357 551 375 
3 357 464 551 
3 531 552 529 
3 553 23 369 
3 554 193 192 
3 554 78 193 
3 18 417 181 
3 181 417 180 
3 19 106 82 
3 555 82 81 
3 254 103 475 
3 556 229 361 
3 229 196 195 
3 556 196 229 
3 17 417 18 
3 431 244 557 
3 38 37 558 
3 38 558 199 
3 211 251 250 
3 20 15 18 
3 71 90 72 
3 90 305 307 
3 90 71 305 
3 102 90 307 
3 102 101 90 
3 223 101 100 
3 213 250 252 
3 250 213 212 
3 559 560 561 
3 562 170 129 
3 170 562 169 
3 97 96 516 
3 339 322 324 
3 380 282 144 
3 20 19 82 
3 168 563 166 
3 255 104 103 
3 564 172 171 
3 564 290 172 
3 433 252 523 
3 79 78 554 
3 179 67 565 
3 539 501 76 
3 380 144 510 
3 73 566 486 
3 73 50 566 
3 436 36 38 
3 567 421 363 
3 301 248 247 
3 101 248 301 
3 191 97 190 
3 67 66 565 
3 355 521 474 
3 568 518 520 
3 133 514 569 
3 79 64 29 
3 242 241 570 
3 511 507 284 
3 571 114 113 
3 321 572 348 
3 60 1 0 
3 24 55 94 
3 173 349 171 
3 53 52 469 
3 512 573 171 
3 573 564 171 
3 107 109 478 
3 574 519 518 
3 336 575 132 
3 92 91 576 
3 577 465 260 
3 43 254 475 
3 254 43 42 
3 190 441 188 
3 229 195 421 
3 44 43 122 
3 122 128 191 
3 128 122 43 
3 209 40 328 
3 578 579 580 
3 68 35 368 
3 428 370 248 
3 581 370 428 
3 207 206 366 
3 244 515 557 
3 234 403 154 
3 503 234 153 
3 162 296 315 
3 29 28 446 
3 244 12 515 
3 555 81 175 
3 299 248 101 
3 253 13 363 
3 14 13 253 
3 296 161 270 
3 169 562 556 
3 562 196 556 
3 8 7 582 
3 318 321 348 
3 498 583 499 
3 583 496 495 
3 498 496 583 
3 378 379 381 
3 381 149 281 
3 499 584 500 
3 115 585 118 
3 555 20 82 
3 247 249 300 
3 2 1 320 
3 223 31 101 
3 427 301 300 
