ply
format ascii 1.0
comment VCGLIB generated
element vertex 80
property float x
property float y
property float z
property float nx
property float ny
property float nz
property float texture_u
property float texture_v
element face 156
property list uchar int vertex_indices
end_header
0.086749 0.757807 -0.200766 0.6849794 -0.6426715 -0.343186 0.166760 0.000000
0.086749 0.757807 0.200765 0.4118134 -0.3863776 0.8253012 0.166760 0.000000
-0.40627 0.757807 0.200765 -0.6849794 -0.6426715 0.343186 0.000000 0.000000
-0.40627 0.757807 -0.200766 -0.4118134 -0.3863776 -0.8253012 0.000000 0.000000
0.061132 1.159338 -0.200766 0.4466251 0.02224715 -0.8944446 0.158095 0.040187
0.061132 1.159338 0.200765 0.8933023 0.04449689 0.4472483 0.158095 0.040187
-0.380653 1.159338 0.200765 -0.4466254 0.022241 0.8944446 0.008665 0.040187
-0.380653 1.159338 -0.200766 -0.8933029 0.0444846 -0.4472484 0.008665 0.040187
0.004044 2.751997 -0.200766 0.5519938 0.7772694 -0.301919 0.138785 0.199587
0.004044 2.751997 0.200765 0.3397679 0.7718965 0.5373394 0.138785 0.199587
-0.323565 2.753222 0.200765 -0.5347046 0.7880115 0.3051704 0.027974 0.199709
-0.323565 2.753222 -0.200766 -0.3020023 0.7839667 -0.5423937 0.027974 0.199709
-0.042829 2.759594 -0.120785 0.3420628 0.7685228 -0.5407086 0.122931 0.200347
-0.042829 2.759594 0.120784 0.559229 0.7705911 0.3056998 0.122931 0.200347
-0.239925 2.760332 0.120784 -0.3041799 0.780609 0.5460076 0.056265 0.200421
-0.239925 2.760332 -0.120785 -0.5421422 0.7813213 -0.3092231 0.056265 0.200421
-0.073545 10.38164 -0.120785 0.6673664 0.6666389 -0.331986 0.112542 0.963193
-0.073545 10.38164 0.120784 0.4097111 0.4092644 0.8152543 0.112542 0.963193
-0.217697 10.38238 0.120784 -0.6639009 0.6692581 0.3336604 0.063783 0.963266
-0.217697 10.38238 -0.120785 -0.4063054 0.409584 -0.8167967 0.063783 0.963266
-0.220006 9.590597 0.120784 -0.7071038 0.002062052 0.7071068 0.063002 0.884022
-0.220006 9.590597 -0.120785 -0.7071038 0.002061989 -0.7071068 0.063002 0.884022
-0.070355 9.589861 -0.120785 0.4721096 -0.122583 -0.8729753 0.113621 0.883948
-0.070355 9.589861 0.120784 0.4935583 -0.2902819 0.8198394 0.113621 0.883948
-0.219507 9.761724 0.120784 -0.7071038 0.002061991 0.7071068 0.063171 0.901149
-0.071044 9.760986 0.120784 0.2523777 0.1416105 0.9572105 0.113388 0.901075
-0.219507 9.761724 -0.120785 -0.7071038 0.002062056 -0.7071068 0.063171 0.901149
-0.071044 9.760986 -0.120785 -0.08497909 0.3431441 -0.9354308 0.113388 0.901075
0.91825 10.3172 -0.120785 0.2741474 -0.6508731 -0.7079601 0.448008 0.956743
0.91825 10.31719 0.120785 0.2418419 -0.6635594 0.7079558 0.448008 0.956743
0.918564 10.42944 0.120785 -0.2649506 0.653738 0.7088215 0.448115 0.967977
0.918564 10.42944 -0.120785 -0.2186854 0.6706362 -0.7088186 0.448115 0.967977
0.411241 10.03739 0.120784 0.4115477 -0.5738963 0.7080054 0.276517 0.928739
0.393264 10.15366 0.120784 -0.3972542 0.5842957 0.7076635 0.270436 0.940376
0.393264 10.15366 -0.120785 -0.3737254 0.5996174 -0.707664 0.270436 0.940376
0.411241 10.03739 -0.120785 0.4399879 -0.5523949 -0.7080047 0.276517 0.928739
0.633847 10.18063 0.120785 0.33188 -0.6236992 0.7077112 0.351811 0.943075
0.633847 10.18063 -0.120785 0.3574158 -0.609424 -0.7077121 0.351811 0.943075
0.629259 10.28806 0.120785 -0.3368451 0.6215414 0.7072636 0.350260 0.953827
0.629259 10.28806 -0.120785 -0.3236892 0.6284943 -0.7072625 0.350260 0.953827
0.185507 10.00002 0.120784 -0.4618283 0.5347909 0.707611 0.200164 0.924999
0.185507 10.00002 -0.120785 -0.4412883 0.5518618 -0.707611 0.200164 0.924999
0.136897 9.795328 0.120784 0.4779218 -0.520963 0.7072399 0.183722 0.904512
0.136898 9.795328 -0.120785 0.4879244 -0.5116082 -0.7072389 0.183722 0.904512
1.567085 10.4872 -0.140317 -0.3137995 -0.651861 -0.6903674 0.667472 0.973758
1.567085 10.4872 0.140318 -0.1705912 -0.9215508 0.3487732 0.667472 0.973757
1.56745 10.61759 0.140318 -0.3184244 0.5993655 0.7344161 0.667595 0.986808
1.56745 10.61759 -0.140317 -0.3247212 0.6422302 -0.6943318 0.667595 0.986808
1.533347 10.50778 0.120785 -0.2002782 -0.8150312 0.5437028 0.656060 0.975818
1.281645 10.52049 0.120785 -0.4615982 0.4557896 0.7610407 0.570924 0.977090
1.281645 10.52049 -0.120784 -0.2728582 0.6579282 -0.7019109 0.570924 0.977090
1.533347 10.50779 -0.120784 -0.1096487 -0.705336 -0.7003416 0.656060 0.975818
2.550192 10.48158 -0.140317 0.4964401 -0.7533337 -0.4313183 1.000000 0.973196
2.550192 10.48158 0.140318 0.7013502 -0.1746954 0.6910785 1.000000 0.973196
2.518226 10.608 0.140318 0.7582901 0.5638282 0.3272523 0.989188 0.985848
2.518226 10.608 -0.140317 0.7438591 0.3499466 -0.5693954 0.989188 0.985848
2.001014 10.73335 0.140318 -0.1363668 0.6922361 0.7086702 0.814245 0.998393
2.001014 10.73335 -0.140317 -0.08992945 0.6997852 -0.7086702 0.814245 0.998393
1.679273 10.48274 -0.140317 -0.1284078 -0.6100801 -0.7818656 0.705418 0.973311
1.679273 10.48274 0.140318 -0.2789372 -0.5827543 0.7632769 0.705418 0.973311
2.26208 10.7494 0.140318 0.02430721 0.7033959 0.7103826 0.902548 1.000000
2.178456 10.46658 -0.140317 -0.009359602 -0.2472775 -0.9688995 0.874263 0.971694
2.26208 10.7494 -0.140317 0.09221169 0.69775 -0.7103816 0.902548 1.000000
2.178456 10.46658 0.140318 -0.005194784 -0.2486307 0.9685845 0.874263 0.971693
2.397534 10.71807 0.140318 0.2689352 0.6426544 0.7174046 0.948365 0.996864
2.4588 10.47326 -0.140317 0.280587 -0.5798861 -0.764855 0.969087 0.972362
2.397533 10.71807 -0.140317 0.3761728 0.5863676 -0.7174031 0.948364 0.996864
2.458801 10.47326 0.140318 0.1367319 -0.5999487 0.7882677 0.969088 0.972362
2.030129 10.29837 -0.035441 -0.1898268 -0.9540898 -0.2316863 0.824093 0.954859
2.030129 10.29837 0.03544 -0.09230197 -0.9166819 0.3888117 0.824093 0.954859
2.156211 10.29429 -0.035441 -0.01590974 -0.8790204 -0.4765187 0.866739 0.954450
2.156211 10.29429 0.03544 -0.00647413 -0.8837745 0.4678683 0.866739 0.954450
2.227019 10.29598 -0.035441 0.1180832 -0.913136 -0.3901781 0.890689 0.954619
2.227019 10.29598 0.03544 0.2885861 -0.9294637 0.229816 0.890689 0.954619
1.788626 10.38039 0.087879 -0.2664613 -0.817462 0.5106412 0.742406 0.963068
2.167333 10.38043 0.087879 -0.01252154 -0.5075203 0.8615488 0.870501 0.963072
2.337827 10.36175 -0.087879 0.3257772 -0.7893322 -0.5204074 0.928169 0.961202
2.167333 10.38043 -0.087879 -0.01630985 -0.5133623 -0.858017 0.870501 0.963072
1.788626 10.38039 -0.087879 -0.3406342 -0.7928189 -0.5053777 0.742406 0.963068
2.337827 10.36174 0.087879 0.3606514 -0.7858112 0.5024254 0.928169 0.961201
3 0 1 2 
3 0 2 3 
3 6 5 9 
3 6 9 10 
3 0 4 5 
3 0 5 1 
3 1 5 6 
3 1 6 2 
3 2 6 7 
3 2 7 3 
3 4 0 3 
3 4 3 7 
3 10 9 13 
3 10 13 14 
3 5 4 8 
3 5 8 9 
3 7 6 10 
3 7 10 11 
3 4 7 11 
3 4 11 8 
3 26 24 18 
3 26 18 19 
3 9 8 12 
3 9 12 13 
3 11 10 14 
3 11 14 15 
3 8 11 15 
3 8 15 12 
3 16 19 18 
3 16 18 17 
3 27 26 19 
3 27 19 16 
3 24 25 17 
3 24 17 18 
3 25 27 16 
3 25 16 17 
3 13 12 22 
3 13 22 23 
3 14 13 23 
3 14 23 20 
3 12 15 21 
3 12 21 22 
3 15 14 20 
3 15 20 21 
3 38 36 29 
3 38 29 30 
3 20 23 25 
3 20 25 24 
3 22 21 26 
3 22 26 27 
3 21 20 24 
3 21 24 26 
3 49 48 45 
3 49 45 46 
3 39 38 30 
3 39 30 31 
3 36 37 28 
3 36 28 29 
3 37 39 31 
3 37 31 28 
3 43 41 34 
3 43 34 35 
3 42 43 35 
3 42 35 32 
3 41 40 33 
3 41 33 34 
3 40 42 32 
3 40 32 33 
3 35 34 39 
3 35 39 37 
3 32 35 37 
3 32 37 36 
3 34 33 38 
3 34 38 39 
3 33 32 36 
3 33 36 38 
3 25 23 42 
3 25 42 40 
3 27 25 40 
3 27 40 41 
3 23 22 43 
3 23 43 42 
3 22 27 41 
3 22 41 43 
3 66 64 54 
3 66 54 55 
3 51 50 47 
3 51 47 44 
3 50 49 46 
3 50 46 47 
3 48 51 44 
3 48 44 45 
3 29 28 51 
3 29 51 48 
3 31 30 49 
3 31 49 50 
3 28 31 50 
3 28 50 51 
3 30 29 48 
3 30 48 49 
3 53 52 55 
3 53 55 54 
3 67 65 52 
3 67 52 53 
3 64 67 53 
3 64 53 54 
3 65 66 55 
3 65 55 52 
3 44 47 57 
3 44 57 58 
3 46 45 59 
3 46 59 56 
3 45 44 58 
3 45 58 59 
3 47 46 56 
3 47 56 57 
3 58 57 62 
3 58 62 61 
3 56 59 63 
3 56 63 60 
3 57 56 60 
3 57 60 62 
3 61 62 66 
3 61 66 65 
3 60 63 67 
3 60 67 64 
3 62 60 64 
3 62 64 66 
3 77 76 72 
3 77 72 70 
3 75 74 69 
3 75 69 71 
3 69 68 70 
3 69 70 71 
3 71 70 72 
3 71 72 73 
3 74 78 68 
3 74 68 69 
3 76 79 73 
3 76 73 72 
3 79 75 71 
3 79 71 73 
3 78 77 70 
3 78 70 68 
3 58 61 77 
3 58 77 78 
3 67 63 75 
3 67 75 79 
3 65 67 79 
3 65 79 76 
3 59 58 78 
3 59 78 74 
3 63 59 74 
3 63 74 75 
3 61 65 76 
3 61 76 77 
