ply
format ascii 1.0
comment VCGLIB generated
element vertex 144
property float x
property float y
property float z
element face 280
property list uchar int vertex_indices
end_header
-0.00544 -0.809443 -0.939428 
0.019167 3.227034 0.022684 
0.637348 -0.809443 -0.705472 
0.028745 3.227034 0.02617 
0.979368 -1.00352 -0.113076 
0.033842 3.227034 0.034997 
0.860586 -1.00352 0.560572 
0.032072 3.227034 0.045035 
0.33658 -0.809443 1.000265 
0.024263 3.227034 0.051587 
-0.353069 -0.872769 0.994068 
0.01407 3.227034 0.051587 
-0.871465 -1.00352 0.560572 
0.006262 3.227034 0.045035 
-0.990247 -1.00352 -0.113076 
0.004492 3.227034 0.034997 
-0.653837 -1.066847 -0.711668 
0.009589 3.227034 0.02617 
-0.00229 -0.453387 -0.816288 
0.559453 -0.453387 -0.61183 
0.858351 -0.453387 -0.094124 
0.754545 -0.453387 0.494589 
0.296607 -0.453387 0.878845 
-0.306797 -0.516713 0.872648 
-0.759126 -0.453387 0.494589 
-0.862932 -0.453387 -0.094124 
-0.569643 -0.516713 -0.618026 
0.015024 2.516458 -0.139296 
0.131209 2.516458 -0.097008 
0.193029 2.516458 0.010068 
0.171559 2.516458 0.13183 
0.076845 2.516458 0.211305 
-0.052405 2.453131 0.205109 
-0.141511 2.516458 0.13183 
-0.162981 2.516458 0.010068 
-0.106769 2.453131 -0.103204 
0.242392 1.745409 -0.230669 
0.365764 1.745409 -0.016983 
0.322917 1.745409 0.226012 
0.133901 1.745409 0.384616 
-0.118452 1.682083 0.37842 
-0.30186 1.745409 0.226012 
-0.344706 1.745409 -0.016983 
-0.226943 1.682082 -0.236866 
0.010529 1.745409 -0.315061 
0.365054 0.894761 -0.378129 
0.556331 0.894761 -0.046827 
0.489901 0.894761 0.329917 
0.196847 0.894761 0.575818 
-0.191317 0.831434 0.569622 
-0.478762 0.894761 0.329916 
-0.545192 0.894761 -0.046827 
-0.359524 0.831434 -0.384325 
0.005569 0.894761 -0.508971 
0.47439 0.136519 -0.50957 
0.726197 0.136518 -0.073428 
0.638746 0.136519 0.422534 
0.252955 0.136519 0.74625 
-0.256267 0.073192 0.740054 
-0.636448 0.136519 0.422534 
-0.723899 0.136518 -0.073428 
-0.477702 0.073192 -0.515766 
0.001149 0.136518 -0.681816 
0.015674 2.466367 -0.253986 
0.199847 2.466368 -0.186952 
0.292234 2.403041 -0.023413 
0.263809 2.466367 0.175798 
0.11367 2.466367 0.30178 
-0.087932 2.403041 0.295584 
-0.232462 2.466367 0.175798 
-0.266496 2.466367 -0.017217 
-0.174109 2.403041 -0.193148 
0.010725 1.692862 -0.451635 
0.324917 1.692862 -0.337279 
0.486486 1.629535 -0.053915 
0.434034 1.692862 0.281558 
0.177903 1.692862 0.496478 
-0.162062 1.629536 0.490282 
-0.412585 1.692862 0.281558 
-0.470645 1.692862 -0.047718 
-0.309076 1.629535 -0.343475 
0.005286 0.842699 -0.671042 
0.463775 0.842699 -0.504165 
0.702124 0.779372 -0.087815 
0.623007 0.842699 0.398883 
0.249243 0.842699 0.712509 
-0.244281 0.779373 0.706312 
-0.612436 0.842699 0.398883 
-0.697161 0.842699 -0.081619 
-0.458813 0.779373 -0.510362 
0.000399 0.078844 -0.831178 
0.564756 0.078845 -0.625769 
0.859436 0.015518 -0.11185 
0.760756 0.078844 0.485799 
0.300687 0.078845 0.871843 
-0.305499 0.015518 0.865646 
-0.759959 0.078845 0.485799 
-0.864248 0.078844 -0.105654 
-0.569569 0.015518 -0.631965 
0.669916 -0.51294 -0.752068 
1.022565 -0.576267 -0.137744 
0.903752 -0.51294 0.574081 
0.35487 -0.51294 1.034648 
-0.367254 -0.576267 1.028452 
-0.910528 -0.51294 0.574081 
-1.034949 -0.512941 -0.131548 
-0.682301 -0.576267 -0.758265 
-0.003388 -0.512941 -0.997131 
0.747414 -1.054853 -0.845319 
1.143143 -1.118179 -0.156378 
1.009368 -1.054853 0.6403 
0.394483 -1.054853 1.15625 
-0.413802 -1.118179 1.150053 
-1.023078 -1.054853 0.640299 
-1.162461 -1.054853 -0.150182 
-0.766733 -1.118179 -0.851516 
-0.006855 -1.054853 -1.119851 
-0.018886 -1.895607 -0.373037 
-0.018886 -0.720161 -0.373037 
0.231064 -1.895607 -0.282063 
0.231064 -0.720161 -0.282063 
0.36406 -1.895607 -0.051708 
0.36406 -0.720161 -0.051708 
0.317871 -1.895607 0.210242 
0.317871 -0.720161 0.210242 
0.11411 -1.895607 0.381218 
0.11411 -0.720161 0.381218 
-0.151881 -1.895607 0.381218 
-0.151881 -0.720161 0.381218 
-0.355642 -1.895607 0.210242 
-0.355642 -0.720161 0.210242 
-0.401831 -1.895607 -0.051708 
-0.401831 -0.720161 -0.051708 
-0.268836 -1.895607 -0.282063 
-0.268836 -0.720161 -0.282063 
-0.018886 -1.31439 -0.264436 
0.161257 -1.31439 -0.19887 
0.257109 -1.31439 -0.03285 
0.22382 -1.31439 0.155942 
0.076966 -1.31439 0.279167 
-0.114738 -1.31439 0.279166 
-0.261591 -1.31439 0.155942 
-0.29488 -1.31439 -0.03285 
-0.199028 -1.31439 -0.19887 
3 63 1 3 
3 63 3 64 
3 64 3 5 
3 64 5 65 
3 65 5 7 
3 65 7 66 
3 66 7 9 
3 66 9 67 
3 67 9 11 
3 67 11 68 
3 68 11 13 
3 68 13 69 
3 69 13 15 
3 69 15 70 
3 3 1 17 
3 3 17 15 
3 3 15 13 
3 3 13 11 
3 3 11 9 
3 3 9 7 
3 3 7 5 
3 71 17 1 
3 71 1 63 
3 70 15 17 
3 70 17 71 
3 0 2 4 
3 0 4 6 
3 0 6 8 
3 0 8 10 
3 0 10 12 
3 0 12 14 
3 0 14 16 
3 114 25 26 
3 114 26 115 
3 115 26 18 
3 115 18 116 
3 113 24 25 
3 113 25 114 
3 112 23 24 
3 112 24 113 
3 111 22 23 
3 111 23 112 
3 110 21 22 
3 110 22 111 
3 109 20 21 
3 109 21 110 
3 108 19 20 
3 108 20 109 
3 116 18 19 
3 116 19 108 
3 79 34 35 
3 79 35 80 
3 80 35 27 
3 80 27 72 
3 78 33 34 
3 78 34 79 
3 77 32 33 
3 77 33 78 
3 76 31 32 
3 76 32 77 
3 75 30 31 
3 75 31 76 
3 74 29 30 
3 74 30 75 
3 73 28 29 
3 73 29 74 
3 72 27 28 
3 72 28 73 
3 81 44 36 
3 81 36 82 
3 82 36 37 
3 82 37 83 
3 83 37 38 
3 83 38 84 
3 84 38 39 
3 84 39 85 
3 85 39 40 
3 85 40 86 
3 86 40 41 
3 86 41 87 
3 87 41 42 
3 87 42 88 
3 89 43 44 
3 89 44 81 
3 88 42 43 
3 88 43 89 
3 97 51 52 
3 97 52 98 
3 98 52 53 
3 98 53 90 
3 96 50 51 
3 96 51 97 
3 95 49 50 
3 95 50 96 
3 94 48 49 
3 94 49 95 
3 93 47 48 
3 93 48 94 
3 92 46 47 
3 92 47 93 
3 91 45 46 
3 91 46 92 
3 90 53 45 
3 90 45 91 
3 107 62 54 
3 107 54 99 
3 99 54 55 
3 99 55 100 
3 100 55 56 
3 100 56 101 
3 101 56 57 
3 101 57 102 
3 102 57 58 
3 102 58 103 
3 103 58 59 
3 103 59 104 
3 104 59 60 
3 104 60 105 
3 106 61 62 
3 106 62 107 
3 105 60 61 
3 105 61 106 
3 34 70 71 
3 34 71 35 
3 35 71 63 
3 35 63 27 
3 33 69 70 
3 33 70 34 
3 32 68 69 
3 32 69 33 
3 31 67 68 
3 31 68 32 
3 30 66 67 
3 30 67 31 
3 29 65 66 
3 29 66 30 
3 28 64 65 
3 28 65 29 
3 27 63 64 
3 27 64 28 
3 44 72 73 
3 44 73 36 
3 36 73 74 
3 36 74 37 
3 37 74 75 
3 37 75 38 
3 38 75 76 
3 38 76 39 
3 39 76 77 
3 39 77 40 
3 40 77 78 
3 40 78 41 
3 41 78 79 
3 41 79 42 
3 43 80 72 
3 43 72 44 
3 42 79 80 
3 42 80 43 
3 51 88 89 
3 51 89 52 
3 52 89 81 
3 52 81 53 
3 50 87 88 
3 50 88 51 
3 49 86 87 
3 49 87 50 
3 48 85 86 
3 48 86 49 
3 47 84 85 
3 47 85 48 
3 46 83 84 
3 46 84 47 
3 45 82 83 
3 45 83 46 
3 53 81 82 
3 53 82 45 
3 62 90 91 
3 62 91 54 
3 54 91 92 
3 54 92 55 
3 55 92 93 
3 55 93 56 
3 56 93 94 
3 56 94 57 
3 57 94 95 
3 57 95 58 
3 58 95 96 
3 58 96 59 
3 59 96 97 
3 59 97 60 
3 61 98 90 
3 61 90 62 
3 60 97 98 
3 60 98 61 
3 25 105 106 
3 25 106 26 
3 26 106 107 
3 26 107 18 
3 24 104 105 
3 24 105 25 
3 23 103 104 
3 23 104 24 
3 22 102 103 
3 22 103 23 
3 21 101 102 
3 21 102 22 
3 20 100 101 
3 20 101 21 
3 19 99 100 
3 19 100 20 
3 18 107 99 
3 18 99 19 
3 0 116 108 
3 0 108 2 
3 2 108 109 
3 2 109 4 
3 4 109 110 
3 4 110 6 
3 6 110 111 
3 6 111 8 
3 8 111 112 
3 8 112 10 
3 10 112 113 
3 10 113 12 
3 12 113 114 
3 12 114 14 
3 16 115 116 
3 16 116 0 
3 14 114 115 
3 14 115 16 
3 135 118 120 
3 135 120 136 
3 136 120 122 
3 136 122 137 
3 137 122 124 
3 137 124 138 
3 138 124 126 
3 138 126 139 
3 139 126 128 
3 139 128 140 
3 140 128 130 
3 140 130 141 
3 141 130 132 
3 141 132 142 
3 120 118 134 
3 120 134 132 
3 120 132 130 
3 120 130 128 
3 120 128 126 
3 120 126 124 
3 120 124 122 
3 143 134 118 
3 143 118 135 
3 142 132 134 
3 142 134 143 
3 117 119 121 
3 117 121 123 
3 117 123 125 
3 117 125 127 
3 117 127 129 
3 117 129 131 
3 117 131 133 
3 131 142 143 
3 131 143 133 
3 133 143 135 
3 133 135 117 
3 129 141 142 
3 129 142 131 
3 127 140 141 
3 127 141 129 
3 125 139 140 
3 125 140 127 
3 123 138 139 
3 123 139 125 
3 121 137 138 
3 121 138 123 
3 119 136 137 
3 119 137 121 
3 117 135 136 
3 117 136 119 
